<svg xmlns="http://www.w3.org/2000/svg" xmlns:xlink="http://www.w3.org/1999/xlink" width="1200" zoomAndPan="magnify" viewBox="0 0 900 809.999993" height="1080" preserveAspectRatio="xMidYMid meet" version="1.0"><defs><clipPath id="39b275c637"><path d="M 73.875 31.894531 L 826 31.894531 L 826 778.105469 L 73.875 778.105469 Z M 73.875 31.894531 " clip-rule="nonzero"/></clipPath><clipPath id="8537da4997"><path d="M 87.375 31.894531 L 812.625 31.894531 C 816.207031 31.894531 819.640625 33.316406 822.171875 35.847656 C 824.703125 38.378906 826.125 41.8125 826.125 45.394531 L 826.125 764.605469 C 826.125 768.1875 824.703125 771.621094 822.171875 774.152344 C 819.640625 776.683594 816.207031 778.105469 812.625 778.105469 L 87.375 778.105469 C 83.792969 778.105469 80.359375 776.683594 77.828125 774.152344 C 75.296875 771.621094 73.875 768.1875 73.875 764.605469 L 73.875 45.394531 C 73.875 41.8125 75.296875 38.378906 77.828125 35.847656 C 80.359375 33.316406 83.792969 31.894531 87.375 31.894531 Z M 87.375 31.894531 " clip-rule="nonzero"/></clipPath><clipPath id="889a890cf8"><path d="M 212.617188 603 L 746 603 L 746 660.71875 L 212.617188 660.71875 Z M 212.617188 603 " clip-rule="nonzero"/></clipPath><clipPath id="29e4caf81f"><path d="M 362 174.058594 L 571 174.058594 L 571 284 L 362 284 Z M 362 174.058594 " clip-rule="nonzero"/></clipPath></defs><g clip-path="url(#39b275c637)"><g clip-path="url(#8537da4997)"><path fill="#001b27" d="M 73.875 31.894531 L 825.917969 31.894531 L 825.917969 778.105469 L 73.875 778.105469 Z M 73.875 31.894531 " fill-opacity="1" fill-rule="nonzero"/></g></g><path fill="#f1f3f4" d="M 290.199219 329.917969 C 276.4375 329.917969 265.238281 320.65625 265.238281 309.28125 C 265.238281 305.832031 268.042969 303.027344 271.488281 303.027344 C 274.9375 303.027344 277.742188 305.832031 277.742188 309.28125 C 277.742188 313.613281 283.5625 317.414062 290.199219 317.414062 C 296.835938 317.414062 302.660156 313.613281 302.660156 309.28125 C 302.660156 304.945312 296.835938 301.144531 290.199219 301.144531 C 276.4375 301.144531 265.238281 291.882812 265.238281 280.496094 C 265.238281 269.117188 276.4375 259.855469 290.199219 259.855469 C 303.960938 259.855469 315.164062 269.117188 315.164062 280.496094 C 315.164062 283.941406 312.359375 286.746094 308.910156 286.746094 C 305.464844 286.746094 302.660156 283.941406 302.660156 280.496094 C 302.660156 276.160156 296.835938 272.359375 290.199219 272.359375 C 283.5625 272.359375 277.742188 276.160156 277.742188 280.496094 C 277.742188 284.828125 283.5625 288.640625 290.199219 288.640625 C 303.960938 288.640625 315.164062 297.902344 315.164062 309.28125 C 315.164062 320.65625 303.960938 329.917969 290.199219 329.917969 Z M 290.199219 329.917969 " fill-opacity="1" fill-rule="evenodd"/><path fill="#f1f3f4" d="M 290.199219 338.566406 C 286.753906 338.566406 283.949219 335.761719 283.949219 332.3125 L 283.949219 257.460938 C 283.949219 254.011719 286.753906 251.210938 290.199219 251.210938 C 293.648438 251.210938 296.453125 254.011719 296.453125 257.460938 L 296.453125 332.3125 C 296.453125 335.761719 293.648438 338.566406 290.199219 338.566406 Z M 290.199219 338.566406 " fill-opacity="1" fill-rule="evenodd"/><path fill="#f1f3f4" d="M 290.199219 361.996094 C 253.195312 361.996094 223.085938 331.898438 223.085938 294.882812 C 223.085938 257.875 253.195312 227.777344 290.199219 227.777344 C 327.207031 227.777344 357.3125 257.875 357.3125 294.882812 C 357.3125 331.898438 327.207031 361.996094 290.199219 361.996094 Z M 290.199219 240.28125 C 260.082031 240.28125 235.589844 264.773438 235.589844 294.882812 C 235.589844 325 260.082031 349.492188 290.199219 349.492188 C 320.308594 349.492188 344.8125 325 344.8125 294.882812 C 344.8125 264.773438 320.308594 240.28125 290.199219 240.28125 Z M 290.199219 240.28125 " fill-opacity="1" fill-rule="evenodd"/><g clip-path="url(#889a890cf8)"><path fill="#f1f3f4" d="M 739.738281 660.722656 L 218.898438 660.722656 C 215.449219 660.722656 212.648438 657.917969 212.648438 654.46875 L 212.648438 609.757812 C 212.648438 606.308594 215.449219 603.503906 218.898438 603.503906 L 739.738281 603.503906 C 743.1875 603.503906 745.988281 606.308594 745.988281 609.757812 L 745.988281 654.46875 C 745.988281 657.917969 743.1875 660.722656 739.738281 660.722656 Z M 225.148438 648.21875 L 733.488281 648.21875 L 733.488281 616.007812 L 225.148438 616.007812 Z M 225.148438 648.21875 " fill-opacity="1" fill-rule="evenodd"/></g><path fill="#f1f3f4" d="M 444.480469 566.824219 L 237.558594 566.824219 C 231.265625 566.824219 226.140625 561.699219 226.140625 555.40625 L 226.140625 414.992188 C 226.140625 408.6875 231.265625 403.574219 237.558594 403.574219 L 444.480469 403.574219 C 450.785156 403.574219 455.898438 408.6875 455.898438 414.992188 L 455.898438 555.40625 C 455.898438 561.699219 450.785156 566.824219 444.480469 566.824219 Z M 238.640625 554.320312 L 443.40625 554.320312 L 443.40625 416.0625 L 238.640625 416.0625 Z M 238.640625 554.320312 " fill-opacity="1" fill-rule="evenodd"/><path fill="#f1f3f4" d="M 449.648438 530.652344 L 232.390625 530.652344 C 228.941406 530.652344 226.140625 527.859375 226.140625 524.402344 C 226.140625 520.953125 228.941406 518.152344 232.390625 518.152344 L 449.648438 518.152344 C 453.105469 518.152344 455.898438 520.953125 455.898438 524.402344 C 455.898438 527.859375 453.105469 530.652344 449.648438 530.652344 Z M 449.648438 530.652344 " fill-opacity="1" fill-rule="evenodd"/><path fill="#f1f3f4" d="M 360.960938 591.054688 L 321.078125 591.054688 C 317.632812 591.054688 314.828125 588.265625 314.828125 584.816406 L 314.828125 560.574219 C 314.828125 557.125 317.632812 554.320312 321.078125 554.320312 L 360.960938 554.320312 C 364.40625 554.320312 367.210938 557.125 367.210938 560.574219 L 367.210938 584.816406 C 367.210938 588.265625 364.40625 591.054688 360.960938 591.054688 Z M 327.332031 578.566406 L 354.710938 578.566406 L 354.710938 566.824219 L 327.332031 566.824219 Z M 327.332031 578.566406 " fill-opacity="1" fill-rule="evenodd"/><path fill="#f1f3f4" d="M 389.921875 616.007812 L 292.117188 616.007812 C 288.667969 616.007812 285.867188 613.203125 285.867188 609.757812 L 285.867188 597.285156 C 285.867188 586.960938 294.273438 578.554688 304.597656 578.554688 L 377.453125 578.554688 C 387.777344 578.554688 396.171875 586.953125 396.171875 597.285156 L 396.171875 609.757812 C 396.171875 613.214844 393.371094 616.007812 389.921875 616.007812 Z M 298.367188 603.503906 L 383.671875 603.503906 L 383.671875 597.285156 C 383.671875 593.847656 380.878906 591.054688 377.453125 591.054688 L 304.597656 591.054688 C 301.160156 591.054688 298.367188 593.847656 298.367188 597.285156 Z M 298.367188 603.503906 " fill-opacity="1" fill-rule="evenodd"/><path fill="#f1f3f4" d="M 379.859375 394.71875 C 378.972656 394.71875 378.066406 394.53125 377.222656 394.132812 C 375.023438 393.101562 373.617188 390.894531 373.617188 388.46875 L 373.617188 336.167969 C 373.617188 321.363281 385.660156 309.3125 400.476562 309.3125 L 486.007812 309.3125 C 500.351562 309.3125 512.019531 320.988281 512.019531 335.324219 L 512.019531 345.199219 C 512.019531 359.546875 500.351562 371.214844 486.007812 371.214844 L 410.089844 371.214844 L 383.890625 393.25 C 382.734375 394.21875 381.304688 394.71875 379.859375 394.71875 Z M 400.476562 321.8125 C 392.558594 321.8125 386.109375 328.261719 386.109375 336.179688 L 386.109375 375.046875 L 403.789062 360.183594 C 404.914062 359.246094 406.339844 358.722656 407.808594 358.722656 L 486.007812 358.722656 C 493.457031 358.722656 499.519531 352.660156 499.519531 345.210938 L 499.519531 335.324219 C 499.519531 327.875 493.457031 321.8125 486.007812 321.8125 Z M 400.476562 321.8125 " fill-opacity="1" fill-rule="evenodd"/><path fill="#f1f3f4" d="M 418.988281 346.511719 L 407.507812 346.511719 C 404.058594 346.511719 401.257812 343.722656 401.257812 340.261719 C 401.257812 336.8125 404.058594 334.023438 407.507812 334.023438 L 418.988281 334.023438 C 422.4375 334.023438 425.238281 336.8125 425.238281 340.261719 C 425.238281 343.722656 422.4375 346.511719 418.988281 346.511719 Z M 418.988281 346.511719 " fill-opacity="1" fill-rule="evenodd"/><path fill="#f1f3f4" d="M 448.554688 346.511719 L 437.085938 346.511719 C 433.625 346.511719 430.832031 343.722656 430.832031 340.261719 C 430.832031 336.8125 433.625 334.023438 437.085938 334.023438 L 448.554688 334.023438 C 452.011719 334.023438 454.804688 336.8125 454.804688 340.261719 C 454.804688 343.722656 452.011719 346.511719 448.554688 346.511719 Z M 448.554688 346.511719 " fill-opacity="1" fill-rule="evenodd"/><path fill="#f1f3f4" d="M 478.132812 346.511719 L 466.652344 346.511719 C 463.203125 346.511719 460.398438 343.722656 460.398438 340.261719 C 460.398438 336.8125 463.203125 334.023438 466.652344 334.023438 L 478.132812 334.023438 C 481.578125 334.023438 484.382812 336.8125 484.382812 340.261719 C 484.382812 343.722656 481.578125 346.511719 478.132812 346.511719 Z M 478.132812 346.511719 " fill-opacity="1" fill-rule="evenodd"/><path fill="#f1f3f4" d="M 726.246094 616.007812 L 487.601562 616.007812 C 485.933594 616.007812 484.332031 615.339844 483.164062 614.152344 C 481.984375 612.964844 481.328125 611.359375 481.351562 609.695312 C 481.402344 605.308594 482.164062 566.480469 494.175781 551.113281 C 509.332031 531.703125 526.574219 524.347656 542.941406 519.285156 C 544.785156 518.714844 546.589844 518.183594 548.347656 517.660156 C 565.664062 512.523438 574.351562 509.953125 573.875 491.355469 C 573.78125 487.898438 576.5 485.03125 579.957031 484.9375 C 580.007812 484.9375 580.0625 484.9375 580.125 484.9375 C 583.5 484.9375 586.28125 487.625 586.363281 491.023438 C 587.105469 519.203125 569.207031 524.515625 551.902344 529.640625 C 550.191406 530.152344 548.433594 530.671875 546.628906 531.226562 C 533.191406 535.382812 517.710938 541.277344 504.019531 558.800781 C 497.289062 567.417969 494.769531 590.160156 494.070312 603.503906 L 719.777344 603.503906 C 719.078125 590.160156 716.558594 567.417969 709.828125 558.800781 C 694.617188 539.332031 677.25 534.183594 661.9375 529.640625 C 644.644531 524.503906 626.753906 519.203125 627.484375 491.023438 C 627.578125 487.574219 630.472656 484.894531 633.890625 484.9375 C 637.351562 485.03125 640.070312 487.898438 639.984375 491.34375 C 639.496094 509.953125 648.183594 512.523438 665.488281 517.652344 C 681.761719 522.484375 702.003906 528.484375 719.683594 551.113281 C 731.683594 566.480469 732.445312 605.308594 732.5 609.695312 C 732.507812 611.359375 731.863281 612.964844 730.683594 614.152344 C 729.519531 615.339844 727.914062 616.007812 726.246094 616.007812 Z M 726.246094 616.007812 " fill-opacity="1" fill-rule="evenodd"/><path fill="#f1f3f4" d="M 606.929688 539.113281 C 590.425781 539.113281 575.582031 530.808594 567.226562 516.902344 C 565.457031 513.941406 566.402344 510.097656 569.363281 508.316406 C 572.320312 506.542969 576.164062 507.503906 577.9375 510.460938 C 584.019531 520.578125 594.855469 526.609375 606.929688 526.609375 C 619.003906 526.609375 629.828125 520.578125 635.914062 510.460938 C 637.683594 507.503906 641.527344 506.542969 644.488281 508.316406 C 647.445312 510.097656 648.402344 513.941406 646.621094 516.902344 C 638.265625 530.808594 623.433594 539.113281 606.929688 539.113281 Z M 606.929688 539.113281 " fill-opacity="1" fill-rule="evenodd"/><path fill="#f1f3f4" d="M 541.648438 616.007812 C 538.203125 616.007812 535.398438 613.203125 535.398438 609.757812 L 535.398438 591.421875 C 535.398438 587.972656 538.203125 585.167969 541.648438 585.167969 C 545.097656 585.167969 547.902344 587.972656 547.902344 591.421875 L 547.902344 609.757812 C 547.902344 613.214844 545.097656 616.007812 541.648438 616.007812 Z M 541.648438 616.007812 " fill-opacity="1" fill-rule="evenodd"/><path fill="#f1f3f4" d="M 672.199219 616.007812 C 668.75 616.007812 665.949219 613.203125 665.949219 609.757812 L 665.949219 591.421875 C 665.949219 587.972656 668.75 585.167969 672.199219 585.167969 C 675.65625 585.167969 678.449219 587.972656 678.449219 591.421875 L 678.449219 609.757812 C 678.449219 613.214844 675.65625 616.007812 672.199219 616.007812 Z M 672.199219 616.007812 " fill-opacity="1" fill-rule="evenodd"/><path fill="#f1f3f4" d="M 718.683594 568.25 L 495.164062 568.25 C 491.707031 568.25 488.914062 565.457031 488.914062 562 C 488.914062 558.550781 491.707031 555.757812 495.164062 555.757812 L 718.683594 555.757812 C 722.144531 555.757812 724.933594 558.550781 724.933594 562 C 724.933594 565.457031 722.144531 568.25 718.683594 568.25 Z M 718.683594 568.25 " fill-opacity="1" fill-rule="evenodd"/><path fill="#f1f3f4" d="M 558.484375 425.230469 C 552.910156 425.230469 550.597656 419.347656 548.558594 414.15625 C 546.503906 408.929688 543.785156 400.824219 539.992188 388.644531 C 534.960938 372.484375 535.753906 358.339844 542.335938 346.585938 C 550.660156 331.75 565.757812 325.542969 571.382812 323.675781 C 585.53125 306.738281 609.617188 306.019531 610.660156 305.988281 C 611.011719 305.976562 611.335938 306.007812 611.679688 306.050781 C 671.917969 314.582031 692.359375 353.992188 693.203125 355.660156 C 694.460938 358.160156 693.898438 361.191406 691.824219 363.089844 C 691.773438 363.140625 686.066406 368.371094 679.1875 375.726562 C 675.78125 379.371094 675.980469 390.488281 677.1875 396.851562 C 677.511719 398.582031 677.09375 400.363281 676.042969 401.769531 L 660.257812 422.730469 C 658.6875 424.835938 655.96875 425.722656 653.445312 424.960938 C 650.933594 424.199219 649.175781 421.941406 649.027344 419.324219 C 648.007812 400.96875 646.089844 392.9375 644.933594 389.632812 C 631.890625 392.28125 620.753906 393.5625 611.003906 393.5625 C 594.40625 393.5625 585.667969 389.675781 579.882812 387.101562 C 577.332031 385.964844 575.488281 385.152344 574.070312 385.152344 C 573.707031 385.152344 573.320312 385.207031 572.90625 385.308594 C 572.207031 385.488281 570.664062 387.132812 569.320312 392.15625 C 567.957031 397.3125 567.371094 403.832031 566.914062 409.085938 C 566.089844 418.386719 565.601562 424.003906 559.765625 425.117188 C 559.382812 425.191406 558.882812 425.230469 558.484375 425.230469 Z M 647.570312 376.445312 C 651.496094 376.445312 654.5625 379.425781 656.65625 385.300781 C 658.070312 389.257812 659.226562 394.894531 660.113281 402.144531 L 664.46875 396.363281 C 663.625 390 662.644531 375.132812 670.050781 367.203125 C 673.824219 363.152344 677.230469 359.753906 679.65625 357.398438 C 673.304688 348.054688 653.46875 324.78125 610.503906 318.511719 C 607.460938 318.699219 589.449219 320.324219 580.0625 332.84375 C 579.195312 333.980469 577.976562 334.804688 576.582031 335.148438 C 576.445312 335.1875 560.632812 339.417969 553.183594 352.796875 C 548.390625 361.421875 547.972656 372.226562 551.921875 384.925781 C 553.351562 389.507812 554.601562 393.40625 555.683594 396.707031 C 557.257812 386.027344 560.578125 375.546875 569.808594 373.195312 C 571.238281 372.828125 572.664062 372.652344 574.070312 372.652344 C 578.132812 372.652344 581.457031 374.121094 584.957031 375.683594 C 590.355469 378.082031 597.0625 381.058594 610.992188 381.058594 C 620.679688 381.058594 632.535156 379.558594 646.238281 376.589844 C 646.496094 376.527344 646.769531 376.484375 647.039062 376.464844 C 647.207031 376.453125 647.394531 376.445312 647.570312 376.445312 Z M 647.570312 376.445312 " fill-opacity="1" fill-rule="evenodd"/><path fill="#f1f3f4" d="M 602.742188 506.691406 C 591.167969 506.691406 577.9375 498.730469 568.894531 489.710938 C 559.328125 480.175781 554.328125 469.9375 554.621094 460.882812 C 543.453125 454.058594 537.785156 446.296875 537.785156 437.777344 C 537.773438 423.480469 553.808594 414.449219 555.632812 413.46875 C 558.671875 411.835938 562.464844 412.980469 564.089844 416.023438 C 565.726562 419.054688 564.589844 422.835938 561.570312 424.472656 C 558.632812 426.074219 550.265625 431.953125 550.285156 437.785156 C 550.296875 442.128906 555.296875 447.195312 564.339844 452.046875 C 566.902344 453.421875 568.183594 456.382812 567.425781 459.195312 C 565.945312 464.644531 569.988281 473.144531 577.71875 480.863281 C 586.9375 490.0625 598.792969 495.648438 605.273438 493.875 C 608.605469 492.960938 612.042969 494.929688 612.953125 498.253906 C 613.867188 501.585938 611.910156 505.023438 608.574219 505.929688 C 606.699219 506.449219 604.753906 506.691406 602.742188 506.691406 Z M 602.742188 506.691406 " fill-opacity="1" fill-rule="evenodd"/><path fill="#f1f3f4" d="M 611.105469 506.691406 C 609.105469 506.691406 607.148438 506.449219 605.273438 505.941406 C 601.949219 505.023438 599.992188 501.585938 600.898438 498.261719 C 601.804688 494.929688 605.253906 492.960938 608.574219 493.875 C 615.078125 495.65625 626.910156 490.0625 636.132812 480.863281 C 643.863281 473.144531 647.902344 464.644531 646.425781 459.195312 C 645.664062 456.382812 646.945312 453.421875 649.507812 452.046875 C 658.5625 447.195312 663.550781 442.128906 663.574219 437.785156 C 663.59375 431.953125 655.21875 426.074219 652.289062 424.472656 C 649.269531 422.824219 648.132812 419.035156 649.777344 416.011719 C 651.414062 412.980469 655.1875 411.84375 658.21875 413.46875 C 660.050781 414.460938 676.074219 423.480469 676.074219 437.777344 C 676.0625 446.296875 670.40625 454.058594 659.226562 460.882812 C 659.53125 469.945312 654.519531 480.175781 644.964844 489.710938 C 635.921875 498.730469 622.683594 506.691406 611.105469 506.691406 Z M 611.105469 506.691406 " fill-opacity="1" fill-rule="evenodd"/><g clip-path="url(#29e4caf81f)"><path fill="#f1f3f4" d="M 488.027344 283.777344 C 486.113281 283.777344 484.269531 282.890625 483.070312 281.328125 C 481.527344 279.328125 481.351562 276.585938 482.609375 274.398438 L 493.027344 256.367188 C 434.5625 225.882812 370.316406 239.144531 369.648438 239.292969 C 367.136719 239.824219 364.554688 238.78125 363.136719 236.632812 C 361.710938 234.5 361.742188 231.707031 363.210938 229.601562 C 384.128906 199.609375 419.21875 184.398438 464.671875 185.605469 C 492.527344 186.335938 517.242188 193.085938 527.679688 196.347656 L 538.566406 177.492188 C 539.828125 175.304688 542.296875 174.09375 544.796875 174.417969 C 547.296875 174.75 549.359375 176.5625 550.015625 179 L 570.496094 255.429688 C 570.925781 257.03125 570.695312 258.742188 569.871094 260.167969 C 569.039062 261.605469 567.675781 262.660156 566.070312 263.085938 L 489.644531 283.558594 C 489.113281 283.703125 488.570312 283.777344 488.027344 283.777344 Z M 507.050781 257.085938 L 500.988281 267.585938 L 556.808594 252.625 L 541.847656 196.804688 L 536.015625 206.910156 C 535.742188 207.402344 535.410156 207.847656 535.023438 208.246094 C 534.367188 208.914062 533.578125 209.421875 532.722656 209.734375 C 531.855469 210.058594 530.917969 210.195312 529.980469 210.101562 C 529.441406 210.058594 528.886719 209.933594 528.355469 209.734375 C 524.792969 208.472656 496.863281 198.964844 464.339844 198.097656 C 429.519531 197.171875 402.453125 206.109375 383.609375 224.707031 C 408.789062 222.277344 458.523438 222.019531 504.738281 248.519531 C 504.75 248.53125 504.75 248.542969 504.761719 248.542969 C 504.90625 248.625 505.042969 248.710938 505.175781 248.804688 C 505.175781 248.804688 505.175781 248.804688 505.1875 248.804688 C 505.1875 248.804688 505.1875 248.8125 505.1875 248.8125 C 505.1875 248.8125 505.1875 248.8125 505.199219 248.8125 C 505.199219 248.8125 505.207031 248.8125 505.207031 248.824219 C 505.207031 248.824219 505.21875 248.824219 505.21875 248.824219 C 505.21875 248.824219 505.21875 248.835938 505.230469 248.835938 C 505.238281 248.835938 505.238281 248.84375 505.238281 248.84375 C 505.238281 248.84375 505.25 248.84375 505.25 248.84375 C 505.25 248.84375 505.25 248.84375 505.25 248.855469 C 505.261719 248.855469 505.261719 248.855469 505.261719 248.855469 C 505.269531 248.855469 505.269531 248.867188 505.269531 248.867188 C 505.269531 248.867188 505.28125 248.867188 505.28125 248.867188 C 505.28125 248.867188 505.28125 248.875 505.292969 248.875 C 505.292969 248.875 505.292969 248.875 505.300781 248.875 C 505.300781 248.875 505.300781 248.886719 505.300781 248.886719 C 505.488281 249.011719 505.667969 249.15625 505.824219 249.304688 C 505.824219 249.304688 505.832031 249.304688 505.832031 249.3125 C 505.832031 249.3125 505.832031 249.3125 505.84375 249.3125 C 505.84375 249.3125 505.84375 249.324219 505.84375 249.324219 C 505.855469 249.324219 505.855469 249.324219 505.855469 249.324219 C 505.855469 249.335938 505.863281 249.335938 505.863281 249.335938 C 505.863281 249.335938 505.863281 249.34375 505.875 249.34375 C 505.875 249.34375 505.886719 249.34375 505.886719 249.355469 C 505.894531 249.355469 505.894531 249.367188 505.894531 249.367188 C 505.894531 249.367188 505.90625 249.367188 505.90625 249.367188 C 505.90625 249.375 505.90625 249.375 505.90625 249.375 C 505.917969 249.375 505.917969 249.375 505.917969 249.386719 C 505.917969 249.386719 505.925781 249.386719 505.925781 249.386719 C 505.925781 249.386719 505.925781 249.386719 505.925781 249.398438 C 505.9375 249.398438 505.9375 249.398438 505.9375 249.398438 C 505.9375 249.40625 505.949219 249.40625 505.949219 249.40625 C 505.949219 249.40625 505.949219 249.40625 505.957031 249.40625 C 505.957031 249.40625 505.957031 249.417969 505.957031 249.417969 C 505.957031 249.417969 505.96875 249.429688 505.96875 249.429688 C 505.96875 249.429688 505.96875 249.429688 505.980469 249.429688 C 505.980469 249.429688 505.980469 249.4375 505.980469 249.4375 C 506.84375 250.261719 507.425781 251.304688 507.707031 252.417969 C 507.707031 252.429688 507.707031 252.429688 507.707031 252.429688 C 507.71875 252.429688 507.71875 252.429688 507.71875 252.429688 C 507.71875 252.429688 507.71875 252.4375 507.71875 252.4375 C 507.71875 252.4375 507.71875 252.449219 507.71875 252.449219 C 507.71875 252.460938 507.71875 252.460938 507.71875 252.460938 C 507.71875 252.46875 507.71875 252.46875 507.71875 252.46875 C 507.730469 252.46875 507.730469 252.46875 507.730469 252.46875 C 507.730469 252.46875 507.730469 252.46875 507.730469 252.480469 C 507.730469 252.480469 507.730469 252.480469 507.730469 252.492188 C 507.730469 252.492188 507.730469 252.492188 507.730469 252.5 C 507.730469 252.5 507.730469 252.5 507.730469 252.511719 C 507.925781 253.324219 507.957031 254.179688 507.8125 255.011719 C 507.8125 255.023438 507.8125 255.023438 507.8125 255.023438 C 507.800781 255.03125 507.800781 255.03125 507.800781 255.03125 C 507.800781 255.03125 507.800781 255.042969 507.800781 255.042969 C 507.800781 255.042969 507.800781 255.054688 507.800781 255.054688 C 507.800781 255.054688 507.800781 255.054688 507.800781 255.0625 C 507.800781 255.074219 507.800781 255.074219 507.800781 255.074219 C 507.800781 255.085938 507.800781 255.085938 507.792969 255.085938 C 507.792969 255.085938 507.792969 255.085938 507.792969 255.09375 C 507.792969 255.09375 507.792969 255.09375 507.792969 255.105469 C 507.792969 255.105469 507.792969 255.117188 507.792969 255.117188 C 507.792969 255.117188 507.792969 255.117188 507.792969 255.125 C 507.78125 255.125 507.78125 255.125 507.78125 255.125 C 507.78125 255.136719 507.78125 255.136719 507.78125 255.136719 C 507.78125 255.136719 507.78125 255.148438 507.78125 255.148438 C 507.65625 255.773438 507.4375 256.386719 507.113281 256.96875 C 507.113281 256.96875 507.113281 256.980469 507.113281 256.980469 C 507.105469 256.980469 507.105469 256.980469 507.105469 256.980469 C 507.105469 256.980469 507.105469 256.980469 507.105469 256.992188 C 507.09375 257 507.09375 257 507.09375 257 C 507.09375 257 507.09375 257.011719 507.09375 257.011719 C 507.09375 257.011719 507.082031 257.011719 507.082031 257.023438 C 507.074219 257.023438 507.074219 257.03125 507.0625 257.042969 C 507.050781 257.0625 507.050781 257.074219 507.050781 257.085938 Z M 507.050781 257.085938 " fill-opacity="1" fill-rule="evenodd"/></g></svg>