<svg xmlns="http://www.w3.org/2000/svg" xmlns:xlink="http://www.w3.org/1999/xlink" width="1200" zoomAndPan="magnify" viewBox="0 0 900 809.999993" height="1080" preserveAspectRatio="xMidYMid meet" version="1.0"><defs><clipPath id="5adecafd5e"><path d="M 73.875 31.894531 L 826 31.894531 L 826 778.105469 L 73.875 778.105469 Z M 73.875 31.894531 " clip-rule="nonzero"/></clipPath><clipPath id="0f850404b9"><path d="M 87.375 31.894531 L 812.625 31.894531 C 816.207031 31.894531 819.640625 33.316406 822.171875 35.847656 C 824.703125 38.378906 826.125 41.8125 826.125 45.394531 L 826.125 764.605469 C 826.125 768.1875 824.703125 771.621094 822.171875 774.152344 C 819.640625 776.683594 816.207031 778.105469 812.625 778.105469 L 87.375 778.105469 C 83.792969 778.105469 80.359375 776.683594 77.828125 774.152344 C 75.296875 771.621094 73.875 768.1875 73.875 764.605469 L 73.875 45.394531 C 73.875 41.8125 75.296875 38.378906 77.828125 35.847656 C 80.359375 33.316406 83.792969 31.894531 87.375 31.894531 Z M 87.375 31.894531 " clip-rule="nonzero"/></clipPath><clipPath id="31269ddf13"><path d="M 485 158.195312 L 613 158.195312 L 613 286 L 485 286 Z M 485 158.195312 " clip-rule="nonzero"/></clipPath><clipPath id="b8c365a606"><path d="M 190 286 L 708 286 L 708 644.859375 L 190 644.859375 Z M 190 286 " clip-rule="nonzero"/></clipPath></defs><g clip-path="url(#5adecafd5e)"><g clip-path="url(#0f850404b9)"><path fill="#001b27" d="M 73.875 31.894531 L 825.917969 31.894531 L 825.917969 778.105469 L 73.875 778.105469 Z M 73.875 31.894531 " fill-opacity="1" fill-rule="nonzero"/></g></g><g clip-path="url(#31269ddf13)"><path fill="#ffffff" d="M 612.503906 221.828125 C 612.503906 186.710938 583.929688 158.136719 548.808594 158.136719 C 513.691406 158.136719 485.117188 186.710938 485.117188 221.828125 C 485.117188 256.949219 513.691406 285.519531 548.808594 285.519531 C 583.929688 285.519531 612.503906 256.949219 612.503906 221.828125 Z M 501.492188 221.828125 C 501.492188 195.734375 522.71875 174.503906 548.816406 174.503906 C 574.910156 174.503906 596.140625 195.734375 596.140625 221.828125 C 596.140625 247.921875 574.910156 269.152344 548.816406 269.152344 C 522.722656 269.152344 501.492188 247.921875 501.492188 221.828125 Z M 501.492188 221.828125 " fill-opacity="1" fill-rule="nonzero"/></g><g clip-path="url(#b8c365a606)"><path fill="#ffffff" d="M 699.660156 425.804688 L 685.382812 425.804688 L 685.382812 366.648438 C 685.382812 329.78125 655.390625 299.785156 618.519531 299.785156 L 479.097656 299.785156 C 442.226562 299.785156 412.234375 329.78125 412.234375 366.648438 L 412.234375 425.804688 L 374.894531 425.804688 L 374.894531 423.546875 C 374.894531 404.582031 368.558594 386.730469 357.203125 372.273438 L 368.796875 372.273438 C 373.3125 372.273438 376.980469 368.613281 376.980469 364.089844 L 376.980469 342.378906 C 376.980469 311.804688 352.101562 286.933594 321.53125 286.933594 L 261.660156 286.933594 C 231.039062 286.933594 206.125 311.804688 206.125 342.378906 L 206.125 364.089844 C 206.125 368.613281 209.789062 372.273438 214.308594 372.273438 L 225.9375 372.273438 C 214.554688 386.714844 208.207031 404.570312 208.207031 423.546875 L 208.207031 425.804688 L 199.109375 425.804688 C 194.589844 425.804688 190.925781 429.464844 190.925781 433.988281 L 190.925781 636.730469 C 190.925781 641.25 194.589844 644.914062 199.109375 644.914062 L 699.660156 644.914062 C 704.175781 644.914062 707.84375 641.25 707.84375 636.730469 L 707.84375 433.988281 C 707.84375 429.472656 704.175781 425.804688 699.660156 425.804688 Z M 428.601562 366.648438 C 428.601562 338.808594 451.25 316.15625 479.097656 316.15625 L 618.519531 316.15625 C 646.367188 316.15625 669.011719 338.808594 669.011719 366.648438 L 669.011719 425.804688 L 626.703125 425.804688 L 626.703125 361.261719 C 626.703125 356.742188 623.039062 353.078125 618.519531 353.078125 C 614.003906 353.078125 610.335938 356.742188 610.335938 361.261719 L 610.335938 425.804688 L 487.28125 425.804688 L 487.28125 361.261719 C 487.28125 356.742188 483.613281 353.078125 479.097656 353.078125 C 474.578125 353.078125 470.910156 356.742188 470.910156 361.261719 L 470.910156 425.804688 L 428.601562 425.804688 Z M 222.492188 342.378906 C 222.492188 320.832031 240.066406 303.300781 261.660156 303.300781 L 321.535156 303.300781 C 343.085938 303.300781 360.617188 320.832031 360.617188 342.378906 L 360.617188 355.90625 L 333.644531 355.90625 L 333.644531 338.785156 C 333.644531 327.503906 324.503906 318.324219 313.269531 318.324219 L 269.84375 318.324219 C 258.605469 318.324219 249.46875 327.503906 249.46875 338.785156 L 249.46875 355.90625 L 222.492188 355.90625 Z M 317.277344 344.464844 C 300.699219 339.179688 282.433594 339.171875 265.832031 344.464844 L 265.832031 338.789062 C 265.832031 336.53125 267.628906 334.699219 269.835938 334.699219 L 313.265625 334.699219 C 315.476562 334.699219 317.269531 336.53125 317.269531 338.789062 L 317.269531 344.464844 Z M 224.582031 423.550781 C 224.582031 403.519531 233.292969 384.980469 248.570312 372.277344 L 257.648438 372.277344 C 262.167969 372.277344 265.832031 368.617188 265.832031 364.09375 L 265.832031 361.714844 C 281.863281 354.988281 300.847656 354.867188 317.277344 361.722656 L 317.277344 364.089844 C 317.277344 368.613281 320.941406 372.273438 325.460938 372.273438 L 334.613281 372.273438 C 349.847656 385 358.53125 403.535156 358.53125 423.546875 L 358.53125 425.804688 L 224.582031 425.804688 Z M 691.476562 628.542969 L 207.292969 628.542969 L 207.292969 442.171875 L 691.476562 442.171875 Z M 691.476562 628.542969 " fill-opacity="1" fill-rule="nonzero"/></g><path fill="#ffffff" d="M 291.59375 361.089844 C 275 361.089844 261.488281 374.597656 261.488281 391.195312 C 261.488281 407.789062 275 421.300781 291.59375 421.300781 C 308.195312 421.300781 321.707031 407.796875 321.707031 391.195312 C 321.707031 374.59375 308.195312 361.089844 291.59375 361.089844 Z M 291.59375 404.933594 C 284.015625 404.933594 277.855469 398.773438 277.855469 391.195312 C 277.855469 383.617188 284.015625 377.457031 291.59375 377.457031 C 299.171875 377.457031 305.339844 383.617188 305.339844 391.195312 C 305.339844 398.765625 299.171875 404.933594 291.59375 404.933594 Z M 291.59375 404.933594 " fill-opacity="1" fill-rule="nonzero"/></svg>