<svg xmlns="http://www.w3.org/2000/svg" xmlns:xlink="http://www.w3.org/1999/xlink" width="1200" zoomAndPan="magnify" viewBox="0 0 900 809.999993" height="1080" preserveAspectRatio="xMidYMid meet" version="1.0"><defs><clipPath id="d85127e36c"><path d="M 73.890625 31.910156 L 826 31.910156 L 826 778.089844 L 73.890625 778.089844 Z M 73.890625 31.910156 " clip-rule="nonzero"/></clipPath><clipPath id="2e70535001"><path d="M 87.390625 31.910156 L 812.609375 31.910156 C 820.0625 31.910156 826.109375 37.953125 826.109375 45.410156 L 826.109375 764.589844 C 826.109375 772.046875 820.0625 778.089844 812.609375 778.089844 L 87.390625 778.089844 C 79.9375 778.089844 73.890625 772.046875 73.890625 764.589844 L 73.890625 45.410156 C 73.890625 37.953125 79.9375 31.910156 87.390625 31.910156 Z M 87.390625 31.910156 " clip-rule="nonzero"/></clipPath><clipPath id="86c6684062"><path d="M 469 482 L 720.46875 482 L 720.46875 657.078125 L 469 657.078125 Z M 469 482 " clip-rule="nonzero"/></clipPath><clipPath id="79a0338193"><path d="M 178.292969 170.457031 L 604 170.457031 L 604 596 L 178.292969 596 Z M 178.292969 170.457031 " clip-rule="nonzero"/></clipPath></defs><g clip-path="url(#d85127e36c)"><g clip-path="url(#2e70535001)"><path fill="#001b27" d="M 73.890625 31.910156 L 825.902344 31.910156 L 825.902344 778.089844 L 73.890625 778.089844 Z M 73.890625 31.910156 " fill-opacity="1" fill-rule="nonzero"/></g></g><g clip-path="url(#86c6684062)"><path fill="#f1f3f4" d="M 711.992188 657.078125 L 477.742188 657.078125 C 473.066406 657.078125 469.273438 653.289062 469.273438 648.605469 L 469.273438 585.8125 C 469.273438 533.304688 508.507812 488.8125 560.539062 482.324219 C 563.382812 481.96875 566.210938 483.070312 568.058594 485.261719 C 576.195312 494.882812 585.644531 500.191406 594.675781 500.207031 C 594.730469 500.207031 594.789062 500.207031 594.847656 500.207031 C 603.867188 500.164062 613.300781 494.84375 621.421875 485.230469 C 623.265625 483.050781 626.082031 481.941406 628.917969 482.289062 C 681.109375 488.648438 720.46875 533.15625 720.46875 585.8125 L 720.46875 648.605469 C 720.46875 653.289062 716.675781 657.078125 711.992188 657.078125 Z M 486.214844 640.140625 L 703.527344 640.140625 L 703.527344 585.8125 C 703.527344 543.160156 672.707031 506.902344 631.148438 499.738281 C 620.433594 510.90625 607.761719 517.050781 595.042969 517.148438 C 594.9375 517.148438 594.828125 517.148438 594.726562 517.148438 C 581.914062 517.148438 569.140625 511.019531 558.34375 499.777344 C 516.929688 507.042969 486.214844 543.289062 486.214844 585.8125 L 486.214844 640.140625 " fill-opacity="1" fill-rule="evenodd"/></g><path fill="#f1f3f4" d="M 594.726562 477.210938 C 586.21875 477.210938 577.867188 474.609375 569.902344 469.472656 C 562.976562 465.003906 556.644531 458.824219 551.09375 451.097656 C 540.566406 436.449219 534.28125 418.105469 534.28125 402.035156 C 534.28125 368.707031 561.394531 341.589844 594.730469 341.589844 L 594.886719 341.589844 C 611.023438 341.636719 626.15625 347.945312 637.53125 359.351562 C 648.910156 370.761719 655.179688 385.921875 655.179688 402.035156 C 655.179688 418.105469 648.894531 436.449219 638.363281 451.097656 C 632.808594 458.824219 626.484375 465.003906 619.554688 469.472656 C 611.59375 474.609375 603.238281 477.210938 594.726562 477.210938 Z M 594.863281 358.53125 L 594.726562 358.53125 C 570.738281 358.53125 551.222656 378.046875 551.222656 402.035156 C 551.222656 414.496094 556.445312 429.507812 564.855469 441.210938 C 573.558594 453.324219 584.449219 460.269531 594.726562 460.269531 C 605.007812 460.269531 615.894531 453.324219 624.605469 441.210938 C 633.007812 429.515625 638.238281 414.496094 638.238281 402.035156 C 638.238281 378.117188 618.78125 358.601562 594.863281 358.53125 " fill-opacity="1" fill-rule="evenodd"/><g clip-path="url(#79a0338193)"><path fill="#f1f3f4" d="M 476.085938 595.484375 L 186.796875 595.484375 C 182.117188 595.484375 178.324219 591.695312 178.324219 587.015625 L 178.324219 178.921875 C 178.324219 174.246094 182.117188 170.457031 186.796875 170.457031 L 594.886719 170.457031 C 599.570312 170.457031 603.359375 174.246094 603.359375 178.921875 L 603.359375 349.59375 C 603.359375 354.269531 599.570312 358.0625 594.886719 358.0625 C 590.210938 358.0625 586.417969 354.269531 586.417969 349.59375 L 586.417969 187.394531 L 195.265625 187.394531 L 195.265625 578.542969 L 476.085938 578.542969 C 480.769531 578.542969 484.558594 582.335938 484.558594 587.015625 C 484.558594 591.695312 480.769531 595.484375 476.085938 595.484375 " fill-opacity="1" fill-rule="evenodd"/></g><path fill="#f1f3f4" d="M 267.183594 553.179688 L 240.804688 553.179688 C 236.121094 553.179688 232.332031 549.390625 232.332031 544.714844 L 232.332031 445.640625 C 232.332031 440.957031 236.121094 437.164062 240.804688 437.164062 L 267.183594 437.164062 C 271.867188 437.164062 275.660156 440.957031 275.660156 445.640625 L 275.660156 544.714844 C 275.660156 549.390625 271.867188 553.179688 267.183594 553.179688 Z M 249.273438 536.238281 L 258.71875 536.238281 L 258.71875 454.105469 L 249.273438 454.105469 L 249.273438 536.238281 " fill-opacity="1" fill-rule="evenodd"/><path fill="#f1f3f4" d="M 326.632812 553.179688 L 300.246094 553.179688 C 295.570312 553.179688 291.777344 549.390625 291.777344 544.714844 L 291.777344 478.28125 C 291.777344 473.605469 295.570312 469.8125 300.246094 469.8125 L 326.632812 469.8125 C 331.308594 469.8125 335.097656 473.605469 335.097656 478.28125 L 335.097656 544.714844 C 335.097656 549.390625 331.308594 553.179688 326.632812 553.179688 Z M 308.71875 536.238281 L 318.15625 536.238281 L 318.15625 486.753906 L 308.71875 486.753906 L 308.71875 536.238281 " fill-opacity="1" fill-rule="evenodd"/><path fill="#f1f3f4" d="M 386.070312 553.179688 L 359.6875 553.179688 C 355.011719 553.179688 351.21875 549.390625 351.21875 544.714844 L 351.21875 412.042969 C 351.21875 407.363281 355.011719 403.570312 359.6875 403.570312 L 386.070312 403.570312 C 390.75 403.570312 394.539062 407.363281 394.539062 412.042969 L 394.539062 544.714844 C 394.539062 549.390625 390.75 553.179688 386.070312 553.179688 Z M 368.160156 536.238281 L 377.597656 536.238281 L 377.597656 420.511719 L 368.160156 420.511719 L 368.160156 536.238281 " fill-opacity="1" fill-rule="evenodd"/><path fill="#f1f3f4" d="M 445.511719 553.179688 L 419.132812 553.179688 C 414.449219 553.179688 410.660156 549.390625 410.660156 544.714844 L 410.660156 445.640625 C 410.660156 440.957031 414.449219 437.164062 419.132812 437.164062 L 445.511719 437.164062 C 450.1875 437.164062 453.984375 440.957031 453.984375 445.640625 L 453.984375 544.714844 C 453.984375 549.390625 450.1875 553.179688 445.511719 553.179688 Z M 427.601562 536.238281 L 437.046875 536.238281 L 437.046875 454.105469 L 427.601562 454.105469 L 427.601562 536.238281 " fill-opacity="1" fill-rule="evenodd"/><path fill="#f1f3f4" d="M 431.273438 360.726562 C 390.378906 360.726562 357.113281 327.457031 357.113281 286.566406 C 357.113281 245.683594 390.378906 212.414062 431.273438 212.414062 C 472.164062 212.414062 505.425781 245.683594 505.425781 286.566406 C 505.425781 327.457031 472.164062 360.726562 431.273438 360.726562 Z M 431.273438 229.355469 C 399.722656 229.355469 374.058594 255.023438 374.058594 286.566406 C 374.058594 318.117188 399.722656 343.785156 431.273438 343.785156 C 462.816406 343.785156 488.484375 318.117188 488.484375 286.566406 C 488.484375 255.023438 462.816406 229.355469 431.273438 229.355469 " fill-opacity="1" fill-rule="evenodd"/><path fill="#f1f3f4" d="M 431.273438 295.398438 C 430.179688 295.398438 429.078125 295.183594 428.03125 294.75 C 424.867188 293.4375 422.796875 290.347656 422.796875 286.925781 L 422.796875 221.578125 C 422.796875 216.894531 426.59375 213.105469 431.273438 213.105469 C 435.949219 213.105469 439.746094 216.894531 439.746094 221.578125 L 439.746094 266.472656 L 471.285156 234.929688 C 474.59375 231.625 479.957031 231.625 483.265625 234.929688 C 486.574219 238.238281 486.574219 243.601562 483.265625 246.910156 L 437.261719 292.914062 C 435.644531 294.535156 433.472656 295.398438 431.273438 295.398438 " fill-opacity="1" fill-rule="evenodd"/><path fill="#f1f3f4" d="M 321.179688 238.679688 L 240.820312 238.679688 C 236.144531 238.679688 232.355469 234.886719 232.355469 230.210938 C 232.355469 225.53125 236.144531 221.738281 240.820312 221.738281 L 321.179688 221.738281 C 325.863281 221.738281 329.652344 225.53125 329.652344 230.210938 C 329.652344 234.886719 325.863281 238.679688 321.179688 238.679688 " fill-opacity="1" fill-rule="evenodd"/><path fill="#f1f3f4" d="M 321.179688 266.925781 L 240.820312 266.925781 C 236.144531 266.925781 232.355469 263.136719 232.355469 258.457031 C 232.355469 253.777344 236.144531 249.984375 240.820312 249.984375 L 321.179688 249.984375 C 325.863281 249.984375 329.652344 253.777344 329.652344 258.457031 C 329.652344 263.136719 325.863281 266.925781 321.179688 266.925781 " fill-opacity="1" fill-rule="evenodd"/><path fill="#f1f3f4" d="M 321.179688 295.179688 L 240.820312 295.179688 C 236.144531 295.179688 232.355469 291.386719 232.355469 286.707031 C 232.355469 282.03125 236.144531 278.238281 240.820312 278.238281 L 321.179688 278.238281 C 325.863281 278.238281 329.652344 282.03125 329.652344 286.707031 C 329.652344 291.386719 325.863281 295.179688 321.179688 295.179688 " fill-opacity="1" fill-rule="evenodd"/><path fill="#f1f3f4" d="M 321.179688 323.425781 L 240.820312 323.425781 C 236.144531 323.425781 232.355469 319.632812 232.355469 314.957031 C 232.355469 310.277344 236.144531 306.484375 240.820312 306.484375 L 321.179688 306.484375 C 325.863281 306.484375 329.652344 310.277344 329.652344 314.957031 C 329.652344 319.632812 325.863281 323.425781 321.179688 323.425781 " fill-opacity="1" fill-rule="evenodd"/><path fill="#f1f3f4" d="M 321.179688 351.671875 L 240.820312 351.671875 C 236.144531 351.671875 232.355469 347.882812 232.355469 343.203125 C 232.355469 338.523438 236.144531 334.730469 240.820312 334.730469 L 321.179688 334.730469 C 325.863281 334.730469 329.652344 338.523438 329.652344 343.203125 C 329.652344 347.882812 325.863281 351.671875 321.179688 351.671875 " fill-opacity="1" fill-rule="evenodd"/></svg>