<svg xmlns="http://www.w3.org/2000/svg" xmlns:xlink="http://www.w3.org/1999/xlink" width="1200" zoomAndPan="magnify" viewBox="0 0 900 809.999993" height="1080" preserveAspectRatio="xMidYMid meet" version="1.0"><defs><clipPath id="2320ae656d"><path d="M 73.875 31.894531 L 826 31.894531 L 826 778.105469 L 73.875 778.105469 Z M 73.875 31.894531 " clip-rule="nonzero"/></clipPath><clipPath id="b8d89f1672"><path d="M 87.375 31.894531 L 812.625 31.894531 C 816.207031 31.894531 819.640625 33.316406 822.171875 35.847656 C 824.703125 38.378906 826.125 41.8125 826.125 45.394531 L 826.125 764.605469 C 826.125 768.1875 824.703125 771.621094 822.171875 774.152344 C 819.640625 776.683594 816.207031 778.105469 812.625 778.105469 L 87.375 778.105469 C 83.792969 778.105469 80.359375 776.683594 77.828125 774.152344 C 75.296875 771.621094 73.875 768.1875 73.875 764.605469 L 73.875 45.394531 C 73.875 41.8125 75.296875 38.378906 77.828125 35.847656 C 80.359375 33.316406 83.792969 31.894531 87.375 31.894531 Z M 87.375 31.894531 " clip-rule="nonzero"/></clipPath><clipPath id="1c30376035"><path d="M 406 186.21875 L 494 186.21875 L 494 274 L 406 274 Z M 406 186.21875 " clip-rule="nonzero"/></clipPath><clipPath id="54781e891f"><path d="M 375 542 L 525 542 L 525 640.433594 L 375 640.433594 Z M 375 542 " clip-rule="nonzero"/></clipPath><clipPath id="8739aaaf78"><path d="M 581 542 L 729.828125 542 L 729.828125 640.433594 L 581 640.433594 Z M 581 542 " clip-rule="nonzero"/></clipPath><clipPath id="b820941002"><path d="M 170.171875 542 L 319 542 L 319 640.433594 L 170.171875 640.433594 Z M 170.171875 542 " clip-rule="nonzero"/></clipPath></defs><g clip-path="url(#2320ae656d)"><g clip-path="url(#b8d89f1672)"><path fill="#001b27" d="M 73.875 31.894531 L 825.917969 31.894531 L 825.917969 778.105469 L 73.875 778.105469 Z M 73.875 31.894531 " fill-opacity="1" fill-rule="nonzero"/></g></g><path fill="#ffffff" d="M 244.5 549.121094 C 266.363281 549.121094 283.851562 531.632812 283.851562 509.769531 C 283.851562 487.910156 266.363281 470.417969 244.5 470.417969 C 222.636719 470.417969 205.148438 487.910156 205.148438 509.769531 C 205.148438 531.632812 222.636719 549.121094 244.5 549.121094 Z M 244.5 487.910156 C 256.742188 487.910156 266.363281 497.527344 266.363281 509.769531 C 266.363281 522.011719 256.742188 531.632812 244.5 531.632812 C 232.257812 531.632812 222.636719 522.011719 222.636719 509.769531 C 222.636719 497.527344 232.257812 487.910156 244.5 487.910156 Z M 244.5 487.910156 " fill-opacity="1" fill-rule="nonzero"/><g clip-path="url(#1c30376035)"><path fill="#ffffff" d="M 450 273.664062 C 474.046875 273.664062 493.722656 253.988281 493.722656 229.941406 C 493.722656 205.890625 474.046875 186.21875 450 186.21875 C 425.953125 186.21875 406.277344 205.890625 406.277344 229.941406 C 406.277344 253.988281 425.953125 273.664062 450 273.664062 Z M 450 203.707031 C 464.429688 203.707031 476.234375 215.511719 476.234375 229.941406 C 476.234375 244.367188 464.429688 256.175781 450 256.175781 C 435.570312 256.175781 423.765625 244.367188 423.765625 229.941406 C 423.765625 215.511719 435.570312 203.707031 450 203.707031 Z M 450 203.707031 " fill-opacity="1" fill-rule="nonzero"/></g><g clip-path="url(#54781e891f)"><path fill="#ffffff" d="M 496.785156 542.125 C 493.285156 547.371094 488.914062 551.746094 483.667969 555.679688 C 496.347656 559.613281 506.839844 570.546875 506.839844 586.722656 L 506.839844 623.886719 L 393.160156 623.886719 L 393.160156 586.722656 C 393.160156 570.546875 403.652344 560.050781 416.332031 555.679688 C 411.085938 552.183594 406.714844 547.371094 403.214844 542.125 C 387.476562 549.996094 375.671875 565.300781 375.671875 586.285156 L 375.671875 623.453125 C 375.671875 633.070312 383.539062 640.941406 393.160156 640.941406 L 506.839844 640.941406 C 516.460938 640.941406 524.328125 633.070312 524.328125 623.453125 L 524.328125 586.285156 C 524.328125 565.300781 512.523438 549.996094 496.785156 542.125 Z M 496.785156 542.125 " fill-opacity="1" fill-rule="nonzero"/></g><g clip-path="url(#8739aaaf78)"><path fill="#ffffff" d="M 702.285156 542.125 C 698.785156 547.371094 694.414062 551.746094 689.167969 555.679688 C 701.847656 559.613281 712.339844 570.546875 712.339844 586.722656 L 712.339844 623.886719 L 598.660156 623.886719 L 598.660156 586.722656 C 598.660156 570.546875 609.152344 560.050781 621.832031 555.679688 C 616.585938 552.183594 612.214844 547.371094 608.714844 542.125 C 592.976562 549.996094 581.171875 565.300781 581.171875 586.285156 L 581.171875 623.453125 C 581.171875 633.070312 589.039062 640.941406 598.660156 640.941406 L 712.339844 640.941406 C 721.960938 640.941406 729.828125 633.070312 729.828125 623.453125 L 729.828125 586.285156 C 729.828125 565.300781 718.023438 549.996094 702.285156 542.125 Z M 702.285156 542.125 " fill-opacity="1" fill-rule="nonzero"/></g><path fill="#ffffff" d="M 410.648438 509.769531 C 410.648438 531.632812 428.136719 549.121094 450 549.121094 C 471.863281 549.121094 489.351562 531.632812 489.351562 509.769531 C 489.351562 487.910156 471.863281 470.417969 450 470.417969 C 428.136719 470.417969 410.648438 487.910156 410.648438 509.769531 Z M 471.863281 509.769531 C 471.863281 522.011719 462.242188 531.632812 450 531.632812 C 437.757812 531.632812 428.136719 522.011719 428.136719 509.769531 C 428.136719 497.527344 437.757812 487.910156 450 487.910156 C 462.242188 487.910156 471.863281 497.527344 471.863281 509.769531 Z M 471.863281 509.769531 " fill-opacity="1" fill-rule="nonzero"/><path fill="#ffffff" d="M 616.148438 509.769531 C 616.148438 531.632812 633.636719 549.121094 655.5 549.121094 C 677.363281 549.121094 694.851562 531.632812 694.851562 509.769531 C 694.851562 487.910156 677.363281 470.417969 655.5 470.417969 C 633.636719 470.417969 616.148438 487.910156 616.148438 509.769531 Z M 677.363281 509.769531 C 677.363281 522.011719 667.742188 531.632812 655.5 531.632812 C 643.257812 531.632812 633.636719 522.011719 633.636719 509.769531 C 633.636719 497.527344 643.257812 487.910156 655.5 487.910156 C 667.742188 487.910156 677.363281 497.527344 677.363281 509.769531 Z M 677.363281 509.769531 " fill-opacity="1" fill-rule="nonzero"/><path fill="#ffffff" d="M 253.246094 453.804688 L 253.246094 426.695312 L 441.253906 426.695312 L 441.253906 453.804688 C 444.316406 453.367188 446.9375 452.929688 450 452.929688 C 453.0625 452.929688 455.683594 453.367188 458.746094 453.804688 L 458.746094 426.695312 L 646.753906 426.695312 L 646.753906 453.804688 C 649.816406 453.367188 652.441406 452.929688 655.5 452.929688 C 658.5625 452.929688 661.183594 453.367188 664.246094 453.804688 L 664.246094 426.695312 C 664.246094 417.078125 656.375 409.207031 646.753906 409.207031 L 458.746094 409.207031 L 458.746094 382.972656 L 515.585938 382.972656 C 525.203125 382.972656 533.074219 375.101562 533.074219 365.484375 L 533.074219 319.574219 C 533.074219 293.777344 518.207031 274.976562 499.40625 266.230469 C 495.472656 271.476562 491.101562 275.851562 485.851562 279.785156 C 502.03125 284.15625 516.023438 297.710938 516.023438 319.574219 L 515.585938 365.484375 L 384.414062 365.484375 L 384.414062 319.574219 C 384.414062 297.710938 398.40625 284.15625 414.585938 279.785156 C 409.335938 275.851562 404.964844 271.476562 401.03125 266.230469 C 382.230469 274.976562 367.363281 293.339844 367.363281 319.574219 L 367.363281 365.484375 C 367.363281 375.101562 375.234375 382.972656 384.851562 382.972656 L 441.691406 382.972656 L 441.691406 409.207031 L 253.246094 409.207031 C 243.625 409.207031 235.753906 417.078125 235.753906 426.695312 L 235.753906 453.804688 C 238.816406 453.367188 241.4375 452.929688 244.5 452.929688 C 247.558594 452.929688 250.183594 453.367188 253.246094 453.804688 Z M 253.246094 453.804688 " fill-opacity="1" fill-rule="nonzero"/><g clip-path="url(#b820941002)"><path fill="#ffffff" d="M 291.285156 542.125 C 287.785156 547.371094 283.414062 551.746094 278.167969 555.679688 C 290.847656 559.613281 301.339844 570.546875 301.339844 586.722656 L 301.339844 623.886719 L 187.660156 623.886719 L 187.660156 586.722656 C 187.660156 570.546875 198.152344 560.050781 210.832031 555.679688 C 205.585938 552.183594 201.214844 547.371094 197.714844 542.125 C 181.976562 549.996094 170.171875 565.300781 170.171875 586.285156 L 170.171875 623.453125 C 170.171875 633.070312 178.039062 640.941406 187.660156 640.941406 L 301.339844 640.941406 C 310.960938 640.941406 318.828125 633.070312 318.828125 623.453125 L 318.828125 586.285156 C 318.828125 565.300781 307.023438 549.996094 291.285156 542.125 Z M 291.285156 542.125 " fill-opacity="1" fill-rule="nonzero"/></g></svg>