<svg xmlns="http://www.w3.org/2000/svg" xmlns:xlink="http://www.w3.org/1999/xlink" width="1200" zoomAndPan="magnify" viewBox="0 0 900 809.999993" height="1080" preserveAspectRatio="xMidYMid meet" version="1.0"><defs><clipPath id="22dce6f85d"><path d="M 73.875 31.894531 L 826 31.894531 L 826 778.105469 L 73.875 778.105469 Z M 73.875 31.894531 " clip-rule="nonzero"/></clipPath><clipPath id="efd8585bb6"><path d="M 87.375 31.894531 L 812.625 31.894531 C 816.207031 31.894531 819.640625 33.316406 822.171875 35.847656 C 824.703125 38.378906 826.125 41.8125 826.125 45.394531 L 826.125 764.605469 C 826.125 768.1875 824.703125 771.621094 822.171875 774.152344 C 819.640625 776.683594 816.207031 778.105469 812.625 778.105469 L 87.375 778.105469 C 83.792969 778.105469 80.359375 776.683594 77.828125 774.152344 C 75.296875 771.621094 73.875 768.1875 73.875 764.605469 L 73.875 45.394531 C 73.875 41.8125 75.296875 38.378906 77.828125 35.847656 C 80.359375 33.316406 83.792969 31.894531 87.375 31.894531 Z M 87.375 31.894531 " clip-rule="nonzero"/></clipPath><clipPath id="4a32759bbc"><path d="M 280 124.785156 L 620 124.785156 L 620 667 L 280 667 Z M 280 124.785156 " clip-rule="nonzero"/></clipPath></defs><g clip-path="url(#22dce6f85d)"><g clip-path="url(#efd8585bb6)"><path fill="#001b27" d="M 73.875 31.894531 L 825.917969 31.894531 L 825.917969 778.105469 L 73.875 778.105469 Z M 73.875 31.894531 " fill-opacity="1" fill-rule="nonzero"/></g></g><g clip-path="url(#4a32759bbc)"><path fill="#ffffff" d="M 543.574219 633.050781 C 543.535156 642.597656 535.414062 650.597656 526.042969 650.425781 C 516.402344 650.253906 508.957031 642.347656 509.050781 632.589844 C 509.171875 623.164062 516.824219 615.558594 526.253906 615.558594 C 535.757812 615.558594 543.667969 623.507812 543.574219 633.050781 Z M 480.265625 543.671875 C 472.226562 549.027344 464.164062 554.355469 456.175781 559.761719 C 452.289062 562.433594 448.402344 562.84375 444.421875 560.1875 C 425.871094 547.851562 407.320312 535.460938 388.679688 522.992188 C 389.3125 522.609375 389.734375 522.320312 390.199219 522.148438 C 409.476562 515.097656 417.078125 500.886719 415.769531 480.988281 C 415.480469 476.121094 415.730469 471.1875 415.730469 465.597656 C 438.628906 473.332031 461.082031 473.332031 484.195312 465.554688 C 484.195312 473.542969 484.0625 480.5625 484.195312 487.585938 C 484.484375 503.171875 491.597656 514.332031 506.167969 520.414062 C 507.78125 521.101562 509.34375 521.894531 511.496094 522.875 C 500.851562 529.972656 490.539062 536.824219 480.265625 543.671875 Z M 365.089844 375.753906 C 364.972656 373.96875 364.929688 372.195312 364.71875 370.464844 C 364.085938 364.632812 361.335938 362.09375 355.371094 361.9375 C 351.484375 361.804688 347.597656 362.015625 343.75 361.765625 C 336.359375 361.289062 330.949219 355.800781 330.910156 348.914062 C 330.910156 341.679688 336.226562 336.273438 344 335.941406 C 349.25 335.675781 354.578125 335.941406 359.816406 335.347656 C 371.304688 334.078125 379.714844 325.574219 381.285156 314.085938 C 381.671875 311.296875 382.082031 309.21875 385.675781 308.757812 C 420.253906 304.316406 453.175781 294.1875 484.539062 279.085938 C 490.792969 276.046875 496.316406 276.390625 502.03125 279.339844 C 511.417969 284.203125 517.035156 291.859375 517.921875 302.636719 C 518.214844 306.3125 518.132812 310.027344 518.558594 313.703125 C 519.867188 325.324219 528.488281 334.078125 540.1875 335.386719 C 545.941406 336.019531 551.824219 335.636719 557.617188 336.230469 C 564.332031 336.945312 569.183594 342.777344 568.972656 349.242188 C 568.761719 356.222656 563.699219 361.421875 556.597656 361.804688 C 553.597656 361.976562 550.59375 361.882812 547.59375 361.882812 C 537.625 361.9375 535.335938 363.785156 534.992188 373.714844 C 533.722656 410.832031 507.4375 442.695312 472.78125 452.125 C 469.066406 453.140625 465.257812 454.027344 461.453125 454.53125 C 457.65625 455.085938 453.71875 455.03125 451.3125 455.164062 C 404.820312 455.164062 368.011719 420.628906 365.089844 375.753906 Z M 392.0625 189.285156 C 391.679688 165.523438 421.8125 140.429688 450.253906 140.640625 C 478.613281 140.839844 508.628906 166.117188 507.820312 189.324219 C 469.238281 170.773438 430.644531 170.8125 392.0625 189.285156 Z M 586.226562 537.246094 C 561.753906 526.761719 537.320312 516.105469 512.804688 505.75 C 504.527344 502.246094 500.335938 496.535156 500.507812 487.492188 C 500.679688 479.042969 500.722656 470.59375 500.46875 462.132812 C 500.378906 458.878906 501.605469 457.199219 504.277344 455.453125 C 526.160156 441.347656 540.613281 421.644531 547.765625 396.578125 C 549.40625 390.707031 550.210938 384.625 551.015625 378.714844 C 554.5625 378.292969 557.734375 378.066406 560.828125 377.5625 C 580.265625 374.601562 591.753906 352.417969 581.574219 335.769531 C 577.476562 329.054688 576.589844 322.707031 576.800781 315.527344 C 576.878906 311.640625 576.839844 307.792969 576.800781 303.890625 C 576.378906 263.113281 560.695312 229.558594 529.253906 203.523438 C 527.046875 201.710938 526 199.964844 525.789062 196.964844 C 523.160156 163.15625 501.859375 136.621094 470.375 127.363281 C 466.78125 126.308594 462.851562 126.652344 459.46875 124.746094 L 439.398438 124.746094 C 439.015625 125.039062 438.722656 125.59375 438.300781 125.671875 C 401.992188 132.058594 376.921875 159.824219 374.09375 196.964844 C 373.882812 199.675781 373.167969 201.449219 371.054688 203.179688 C 342.902344 226.054688 327.0625 255.589844 323.679688 291.726562 C 323.125 297.347656 325.792969 301.15625 330.648438 301.617188 C 335.550781 302.121094 339.015625 299.039062 339.78125 293.5 C 340.152344 290.550781 340.417969 287.589844 340.839844 284.628906 C 348.945312 230.441406 398.277344 189.230469 453.042969 191.691406 C 494.296875 193.554688 525.617188 212.777344 546.535156 248.453125 C 559.464844 270.507812 561.914062 294.6875 560.3125 319.53125 L 546.824219 319.53125 C 536.816406 319.492188 534.449219 317.167969 534.449219 307.117188 C 534.449219 292.148438 529.042969 279.683594 517.421875 270.136719 C 515.476562 268.523438 513.320312 267.132812 510.996094 265.441406 C 515.054688 262.785156 518.808594 260.578125 522.324219 257.957031 C 526.503906 254.785156 527.046875 250.183594 524.003906 246.375 C 521.003906 242.621094 517.035156 242.316406 511.839844 245.660156 C 472.109375 270.851562 428.914062 286.570312 382.34375 293.035156 C 372.535156 294.386719 366.664062 300.441406 365.472656 310.371094 C 364.71875 316.875 362.050781 319.375 355.625 319.492188 C 351.5625 319.585938 347.519531 319.414062 343.457031 319.585938 C 328.585938 320.089844 316.871094 330.785156 314.808594 345.621094 C 312.941406 358.671875 321.773438 371.90625 335.300781 376.507812 C 339.652344 377.988281 344.265625 377.90625 348.65625 378.660156 C 348.90625 379.335938 349.15625 379.851562 349.25 380.316406 C 352.925781 413.238281 368.992188 438.386719 396.757812 456.183594 C 398.78125 457.492188 399.453125 458.972656 399.414062 461.339844 C 399.28125 469.457031 399.375 477.5625 399.375 485.679688 C 399.335938 497.59375 396.492188 501.824219 385.425781 506.558594 C 361.203125 516.871094 336.992188 527.050781 312.902344 537.578125 C 291.722656 546.832031 280.945312 563.1875 280.773438 586.390625 C 280.695312 599.070312 280.734375 611.753906 280.734375 624.433594 C 280.734375 635.550781 280.734375 646.65625 280.773438 657.777344 C 280.773438 662.167969 282.890625 665.207031 287.238281 666.1875 C 291.140625 667.03125 294.140625 665.339844 296.03125 661.875 C 297.183594 659.800781 296.796875 657.394531 296.796875 655.160156 C 296.796875 632.207031 296.757812 609.304688 296.839844 586.390625 C 296.878906 572.957031 301.609375 561.414062 313.960938 555.28125 C 330.527344 547.082031 347.769531 540.195312 365.222656 532.550781 L 365.222656 582.675781 C 356.21875 582.675781 347.464844 582.464844 338.6875 582.714844 C 325.488281 583.058594 315.019531 593.492188 314.714844 606.726562 C 314.421875 618.507812 314.464844 630.34375 314.714844 642.136719 C 315.019531 655.277344 326.046875 666.226562 338.59375 666.320312 C 343.789062 666.359375 347.042969 663.820312 347.558594 659.378906 C 348.101562 654.566406 345.402344 651.3125 340.074219 650.425781 C 333.648438 649.367188 330.949219 646.699219 330.820312 640.402344 C 330.648438 629.839844 330.648438 619.234375 330.820312 608.671875 C 330.949219 601.902344 334.375 598.648438 341 598.609375 C 362.683594 598.570312 384.367188 598.570312 406.050781 598.609375 C 413.113281 598.609375 416.234375 601.824219 416.273438 609 C 416.363281 619.234375 416.363281 629.457031 416.273438 639.691406 C 416.273438 646.789062 414.078125 649.238281 406.859375 650.464844 C 402.324219 651.21875 399.28125 654.566406 399.414062 658.585938 C 399.585938 662.972656 403.050781 666.148438 407.824219 666.320312 C 421.269531 666.78125 432.375 655.277344 432.679688 640.324219 C 432.839844 630.300781 432.507812 620.253906 432.761719 610.191406 C 433.183594 592.949219 420.382812 581.527344 405.164062 582.503906 C 397.511719 583.007812 389.777344 582.585938 381.960938 582.585938 L 381.960938 538.210938 C 383.824219 539.347656 385.292969 540.195312 386.695312 541.132812 C 402.628906 551.738281 418.597656 562.339844 434.53125 573.039062 C 444.671875 579.847656 454.828125 580.058594 465.046875 573.25 C 472.652344 568.171875 480.226562 563.109375 487.871094 558.03125 C 497.71875 551.433594 507.609375 544.886719 518.175781 537.867188 C 518.175781 557.316406 518.042969 575.828125 518.265625 594.300781 C 518.304688 598.398438 517.5 600.554688 513.1875 602.324219 C 496.160156 609.171875 488.386719 628.820312 495.394531 645.734375 C 502.375 662.511719 521.308594 670.667969 538.257812 664.164062 C 555.367188 657.605469 564.121094 638.460938 557.65625 621.296875 C 553.554688 610.402344 545.398438 603.671875 534.832031 600.421875 L 534.832031 532.722656 C 549.828125 539.191406 564.332031 545.351562 578.785156 551.644531 C 581.824219 552.96875 584.957031 554.277344 587.695312 556.085938 C 598.351562 563.226562 603.046875 573.632812 603.085938 586.21875 C 603.164062 609.636719 603.085938 633.09375 603.125 656.546875 C 603.125 662.433594 605.492188 665.683594 609.84375 666.265625 C 615.304688 667.03125 619.097656 663.277344 619.148438 656.890625 C 619.191406 633.609375 619.191406 610.363281 619.148438 587.066406 C 619.097656 563.265625 608.109375 546.660156 586.226562 537.246094 " fill-opacity="1" fill-rule="nonzero"/></g><path fill="#ffffff" d="M 679.375 582.042969 C 679.417969 586.605469 675.316406 590.835938 670.703125 590.992188 C 665.96875 591.203125 661.539062 586.894531 661.488281 582.082031 C 661.488281 577.429688 665.425781 573.367188 670.109375 573.210938 C 674.933594 573.039062 679.375 577.269531 679.375 582.042969 Z M 629.371094 471.691406 C 609.722656 468.941406 593.949219 450.511719 593.789062 429.9375 C 593.699219 421.316406 593.699219 412.640625 593.75 404.023438 C 593.871094 389.609375 604.605469 378.714844 619.058594 378.332031 C 624.847656 378.199219 630.679688 378.332031 636.472656 378.332031 C 641.972656 378.292969 647.417969 378.238281 652.867188 378.332031 C 666.816406 378.542969 677.300781 386.609375 678.742188 400.386719 C 680.167969 413.953125 681.148438 427.859375 677.433594 441.347656 C 671.640625 462.304688 651.597656 474.734375 629.371094 471.691406 Z M 636.5625 521.050781 C 630.8125 516.777344 625.0625 512.507812 619.308594 508.25 C 618.421875 507.617188 617.617188 506.847656 618.039062 505.671875 C 620.289062 499.363281 618.382812 492.742188 619.519531 486.011719 C 630.890625 489.144531 642.183594 489.316406 653.632812 485.839844 C 654.730469 493.070312 652.867188 500 655.367188 506.980469 C 649.03125 511.714844 642.976562 516.238281 636.5625 521.050781 Z M 702.238281 510.777344 C 691.582031 507.113281 680.976562 503.597656 669.949219 499.878906 C 669.949219 493.878906 670.199219 488.207031 669.855469 482.601562 C 669.683594 479.253906 670.875 477.179688 673.453125 475.117188 C 684.863281 465.941406 691.964844 454.144531 694.421875 439.613281 C 696.445312 427.359375 695.269531 415.007812 695.269531 402.710938 C 695.214844 382.851562 679.707031 365.347656 660.019531 362.730469 C 645.648438 360.863281 631.101562 361.25 616.730469 362.265625 C 596.449219 363.707031 580.226562 378.832031 578.148438 397.382812 C 576.839844 409.097656 577.34375 420.972656 577.859375 432.765625 C 578.570312 450.085938 586.136719 464.207031 599.488281 475.0625 C 602.320312 477.351562 603.46875 479.636719 603.125 483.0625 C 602.953125 484.953125 603.085938 486.898438 603.085938 488.855469 C 603.085938 499.75 603.125 499.789062 592.734375 503.382812 C 589.519531 504.480469 587.074219 506.175781 586.386719 509.691406 C 585.078125 516.410156 590.695312 521.179688 597.636719 518.5625 C 602.199219 516.777344 605.414062 517.464844 608.996094 520.507812 C 613.691406 524.472656 618.804688 527.976562 623.710938 531.707031 C 633.507812 539.058594 639.472656 539.058594 649.363281 531.667969 C 653.5 528.574219 657.691406 525.492188 662.464844 521.894531 C 662.464844 533.304688 662.386719 543.671875 662.546875 553.972656 C 662.597656 556.933594 661.871094 558.492188 659 559.976562 C 648.304688 565.433594 643.199219 577.386719 646.28125 588.46875 C 649.457031 599.785156 659.214844 607.191406 670.835938 607.058594 C 682.246094 606.9375 691.84375 599.152344 694.753906 587.621094 C 697.464844 577.003906 692.175781 565.554688 682.074219 559.976562 C 680.511719 559.128906 678.359375 559.089844 678.359375 556.300781 C 678.492188 544.347656 678.4375 532.378906 678.4375 519.832031 C 684.746094 521.894531 690.574219 523.71875 696.367188 525.703125 C 703.203125 528.03125 704.855469 530.398438 704.855469 537.75 C 704.894531 557.316406 704.855469 576.886719 704.855469 596.453125 C 704.855469 603.460938 707.683594 607.152344 712.933594 607.058594 C 718.039062 606.980469 720.75 603.382812 720.75 596.707031 L 720.75 536.398438 C 720.75 523.335938 714.785156 515.097656 702.238281 510.777344 " fill-opacity="1" fill-rule="nonzero"/><path fill="#ffffff" d="M 275.195312 470.59375 C 247.386719 478.277344 220.386719 457.53125 220.429688 428.574219 C 220.429688 425.996094 221.222656 424.398438 223.257812 422.914062 C 230.78125 417.429688 238.226562 411.796875 245.945312 406.019531 C 268.898438 420.972656 268.898438 420.972656 305.710938 429.050781 C 307.652344 446.371094 293.625 465.515625 275.195312 470.59375 Z M 280.152344 508.582031 C 274.691406 512.679688 269.152344 516.777344 263.359375 521.101562 C 257.570312 516.738281 252.253906 512.734375 246.925781 508.753906 C 245.828125 507.90625 244.265625 507.363281 244.890625 505.5 C 246.964844 499.324219 245.234375 492.953125 246.210938 486.0625 C 257.570312 489.011719 268.992188 489.355469 280.402344 485.933594 C 281.5 492.78125 279.636719 499.363281 281.882812 505.671875 C 282.386719 507.191406 281.117188 507.90625 280.152344 508.582031 Z M 220.507812 395.785156 C 220.929688 385.378906 227.910156 378.410156 238.34375 378.332031 C 255.042969 378.199219 271.769531 378.199219 288.46875 378.332031 C 299.203125 378.410156 306.054688 385.550781 306.132812 396.328125 C 306.1875 401.613281 306.1875 406.851562 306.1875 412.523438 C 288.46875 410.871094 272.828125 405 258.679688 395.109375 C 248.617188 388.050781 243.25 388.007812 233.476562 395.230469 C 229.433594 398.230469 225.414062 401.230469 220.46875 404.867188 C 220.46875 401.058594 220.386719 398.402344 220.507812 395.785156 Z M 300.222656 475.273438 C 311.171875 466.535156 318.441406 455.296875 320.929688 441.425781 C 323.71875 425.878906 322.371094 410.15625 322.027344 394.515625 C 321.695312 375.910156 307.402344 362.265625 288.71875 361.976562 C 271.820312 361.710938 254.871094 361.671875 237.960938 361.976562 C 218.695312 362.304688 204.613281 376.96875 204.574219 396.207031 C 204.535156 406.429688 204.707031 416.660156 204.535156 426.84375 C 204.152344 447.046875 211.714844 463.492188 227.527344 476 C 229.179688 477.3125 230.066406 478.621094 230.015625 480.816406 C 229.855469 487.160156 229.933594 493.496094 229.933594 499.878906 C 221.222656 502.84375 212.90625 506.175781 204.324219 508.421875 C 192.664062 511.464844 183.527344 517.082031 179.175781 528.785156 L 179.175781 602.839844 C 182.507812 605.457031 185.601562 608.789062 190.585938 606.210938 C 195.28125 603.804688 195.070312 599.628906 195.070312 595.316406 C 195.027344 575.90625 195.070312 556.511719 195.027344 537.152344 C 194.976562 532.550781 196.085938 528.492188 200.6875 526.800781 C 210.195312 523.375 219.871094 520.296875 229.644531 517.042969 L 229.644531 557.183594 C 226.390625 557.183594 223.375 557.066406 220.46875 557.238281 C 211.253906 557.699219 204.707031 564.417969 204.574219 573.59375 C 204.496094 579.542969 204.402344 585.546875 204.613281 591.550781 C 204.878906 599.996094 212.695312 607.347656 220.851562 607.058594 C 226.761719 606.847656 230.703125 601.226562 228.453125 595.992188 C 227.027344 592.6875 224.144531 591.125 220.679688 590.835938 L 220.679688 573.421875 L 255.121094 573.421875 L 255.121094 590.835938 C 248.789062 592.394531 245.734375 596.363281 247.136719 601.1875 C 248.523438 606 253.484375 608.15625 259.183594 606.515625 C 266.453125 604.359375 271.09375 598.570312 271.265625 591.046875 C 271.4375 585.042969 271.476562 579.039062 271.265625 573.078125 C 271.015625 564.074219 264.550781 557.660156 255.507812 557.238281 C 252.425781 557.066406 249.292969 557.183594 246.117188 557.183594 L 246.117188 529.089844 C 248.617188 529.417969 249.925781 531.242188 251.527344 532.421875 C 260.453125 538.847656 266.625 538.847656 275.496094 532.207031 C 280.441406 528.53125 285.507812 525.027344 290.242188 521.050781 C 294.007812 517.835938 297.472656 516.449219 302.496094 518.644531 C 307.230469 520.71875 311.925781 518.351562 313.324219 514.199219 C 314.925781 509.597656 312.691406 505.460938 307.496094 503.476562 C 303.976562 502.074219 300.128906 501.535156 296.796875 499.417969 C 296.796875 493.585938 297.011719 487.914062 296.757812 482.296875 C 296.585938 479.121094 297.816406 477.21875 300.222656 475.273438 " fill-opacity="1" fill-rule="nonzero"/></svg>