<svg xmlns="http://www.w3.org/2000/svg" xmlns:xlink="http://www.w3.org/1999/xlink" width="1200" zoomAndPan="magnify" viewBox="0 0 900 809.999993" height="1080" preserveAspectRatio="xMidYMid meet" version="1.0"><defs><clipPath id="2d90326aab"><path d="M 73.875 31.894531 L 826 31.894531 L 826 778.105469 L 73.875 778.105469 Z M 73.875 31.894531 " clip-rule="nonzero"/></clipPath><clipPath id="ece1e598d0"><path d="M 87.375 31.894531 L 812.625 31.894531 C 816.207031 31.894531 819.640625 33.316406 822.171875 35.847656 C 824.703125 38.378906 826.125 41.8125 826.125 45.394531 L 826.125 764.605469 C 826.125 768.1875 824.703125 771.621094 822.171875 774.152344 C 819.640625 776.683594 816.207031 778.105469 812.625 778.105469 L 87.375 778.105469 C 83.792969 778.105469 80.359375 776.683594 77.828125 774.152344 C 75.296875 771.621094 73.875 768.1875 73.875 764.605469 L 73.875 45.394531 C 73.875 41.8125 75.296875 38.378906 77.828125 35.847656 C 80.359375 33.316406 83.792969 31.894531 87.375 31.894531 Z M 87.375 31.894531 " clip-rule="nonzero"/></clipPath><clipPath id="f368663eee"><path d="M 242.449219 163 L 648 163 L 648 641 L 242.449219 641 Z M 242.449219 163 " clip-rule="nonzero"/></clipPath></defs><g clip-path="url(#2d90326aab)"><g clip-path="url(#ece1e598d0)"><path fill="#001b27" d="M 73.875 31.894531 L 825.917969 31.894531 L 825.917969 778.105469 L 73.875 778.105469 Z M 73.875 31.894531 " fill-opacity="1" fill-rule="nonzero"/></g></g><g clip-path="url(#f368663eee)"><path fill="#ffffff" d="M 645.265625 470.8125 C 644.199219 469.558594 643.007812 468.4375 641.691406 467.441406 C 640.378906 466.445312 638.972656 465.605469 637.476562 464.917969 C 635.980469 464.226562 634.425781 463.707031 632.816406 463.355469 C 631.207031 463.007812 629.578125 462.832031 627.929688 462.835938 L 625.4375 462.835938 C 612.472656 421.625 596.410156 373.601562 589.875 364.015625 C 580.789062 350.945312 561.457031 339.699219 532.375 330.449219 C 533.320312 329.148438 534.230469 327.824219 535.113281 326.484375 C 535.996094 325.140625 536.847656 323.777344 537.667969 322.394531 C 538.488281 321.015625 539.273438 319.613281 540.03125 318.195312 C 540.785156 316.777344 541.507812 315.34375 542.199219 313.894531 C 542.890625 312.441406 543.546875 310.976562 544.167969 309.496094 C 544.792969 308.015625 545.378906 306.519531 545.933594 305.011719 C 546.488281 303.503906 547.007812 301.984375 547.492188 300.453125 C 547.980469 298.921875 548.429688 297.378906 548.84375 295.828125 C 549.257812 294.273438 549.636719 292.714844 549.976562 291.144531 C 550.320312 289.574219 550.628906 287.996094 550.898438 286.414062 C 551.167969 284.828125 551.402344 283.242188 551.601562 281.644531 C 551.796875 280.050781 551.960938 278.453125 552.085938 276.851562 C 552.207031 275.25 552.296875 273.644531 552.347656 272.039062 C 552.398438 270.433594 552.414062 268.828125 552.390625 267.222656 C 552.367188 265.617188 552.308594 264.011719 552.214844 262.40625 C 552.117188 260.800781 551.984375 259.203125 551.816406 257.605469 C 551.644531 256.007812 551.441406 254.414062 551.199219 252.824219 C 550.957031 251.238281 550.675781 249.65625 550.363281 248.078125 C 550.046875 246.503906 549.699219 244.9375 549.3125 243.375 C 548.925781 241.816406 548.503906 240.265625 548.046875 238.726562 C 547.589844 237.1875 547.09375 235.65625 546.566406 234.140625 C 546.039062 232.621094 545.480469 231.117188 544.882812 229.625 C 544.285156 228.132812 543.65625 226.65625 542.992188 225.195312 C 542.328125 223.730469 541.628906 222.285156 540.902344 220.851562 C 540.171875 219.421875 539.40625 218.007812 538.613281 216.613281 C 537.816406 215.214844 536.992188 213.839844 536.132812 212.480469 C 535.273438 211.121094 534.386719 209.785156 533.464844 208.464844 C 532.546875 207.148438 531.597656 205.851562 530.621094 204.578125 C 529.640625 203.304688 528.632812 202.054688 527.597656 200.824219 C 526.5625 199.597656 525.496094 198.394531 524.40625 197.214844 C 523.316406 196.035156 522.199219 194.882812 521.054688 193.753906 C 519.910156 192.625 518.742188 191.523438 517.546875 190.449219 C 516.351562 189.375 515.132812 188.328125 513.890625 187.308594 C 512.648438 186.289062 511.382812 185.300781 510.097656 184.339844 C 508.808594 183.378906 507.5 182.449219 506.167969 181.546875 C 504.839844 180.644531 503.488281 179.777344 502.117188 178.9375 C 500.746094 178.097656 499.359375 177.289062 497.953125 176.515625 C 496.546875 175.738281 495.121094 174.996094 493.679688 174.285156 C 492.238281 173.574219 490.78125 172.898438 489.308594 172.253906 C 487.835938 171.613281 486.351562 171.003906 484.851562 170.425781 C 483.351562 169.851562 481.839844 169.3125 480.3125 168.804688 C 478.789062 168.296875 477.253906 167.828125 475.707031 167.390625 C 474.160156 166.957031 472.605469 166.554688 471.039062 166.191406 C 469.476562 165.824219 467.902344 165.496094 466.324219 165.203125 C 464.742188 164.914062 463.15625 164.65625 461.566406 164.4375 C 459.976562 164.214844 458.378906 164.03125 456.78125 163.886719 C 455.179688 163.738281 453.578125 163.628906 451.972656 163.554688 C 450.367188 163.480469 448.761719 163.445312 447.15625 163.445312 C 445.546875 163.445312 443.941406 163.480469 442.335938 163.554688 C 440.730469 163.628906 439.128906 163.738281 437.53125 163.886719 C 435.929688 164.03125 434.335938 164.214844 432.742188 164.4375 C 431.152344 164.65625 429.566406 164.914062 427.984375 165.203125 C 426.40625 165.496094 424.832031 165.828125 423.269531 166.191406 C 421.703125 166.554688 420.148438 166.957031 418.601562 167.390625 C 417.054688 167.828125 415.519531 168.296875 413.996094 168.804688 C 412.46875 169.3125 410.957031 169.851562 409.457031 170.425781 C 407.957031 171.003906 406.472656 171.613281 405 172.253906 C 403.527344 172.898438 402.070312 173.574219 400.628906 174.285156 C 399.1875 174.996094 397.765625 175.738281 396.355469 176.515625 C 394.949219 177.289062 393.5625 178.097656 392.191406 178.9375 C 390.820312 179.777344 389.46875 180.644531 388.140625 181.546875 C 386.808594 182.449219 385.5 183.378906 384.214844 184.339844 C 382.925781 185.300781 381.660156 186.289062 380.417969 187.308594 C 379.175781 188.328125 377.957031 189.375 376.761719 190.449219 C 375.570312 191.523438 374.398438 192.625 373.253906 193.753906 C 372.113281 194.882812 370.992188 196.035156 369.902344 197.214844 C 368.8125 198.394531 367.746094 199.597656 366.710938 200.824219 C 365.675781 202.054688 364.667969 203.304688 363.691406 204.578125 C 362.710938 205.851562 361.761719 207.148438 360.84375 208.464844 C 359.921875 209.785156 359.035156 211.121094 358.175781 212.480469 C 357.316406 213.839844 356.492188 215.214844 355.695312 216.613281 C 354.902344 218.007812 354.140625 219.421875 353.410156 220.851562 C 352.679688 222.285156 351.980469 223.730469 351.316406 225.195312 C 350.652344 226.65625 350.023438 228.132812 349.425781 229.625 C 348.832031 231.117188 348.269531 232.621094 347.742188 234.140625 C 347.214844 235.65625 346.722656 237.1875 346.265625 238.726562 C 345.804688 240.265625 345.382812 241.816406 344.996094 243.375 C 344.613281 244.9375 344.261719 246.503906 343.945312 248.078125 C 343.632812 249.65625 343.351562 251.238281 343.109375 252.824219 C 342.867188 254.414062 342.664062 256.007812 342.492188 257.605469 C 342.324219 259.203125 342.191406 260.800781 342.097656 262.40625 C 342 264.011719 341.941406 265.617188 341.917969 267.222656 C 341.894531 268.828125 341.910156 270.433594 341.960938 272.039062 C 342.011719 273.644531 342.101562 275.25 342.226562 276.851562 C 342.351562 278.453125 342.511719 280.050781 342.707031 281.644531 C 342.90625 283.242188 343.140625 284.828125 343.410156 286.414062 C 343.683594 287.996094 343.988281 289.574219 344.332031 291.144531 C 344.675781 292.714844 345.050781 294.273438 345.464844 295.828125 C 345.882812 297.378906 346.332031 298.921875 346.816406 300.453125 C 347.300781 301.984375 347.820312 303.503906 348.375 305.011719 C 348.929688 306.519531 349.519531 308.015625 350.140625 309.496094 C 350.761719 310.976562 351.421875 312.441406 352.109375 313.894531 C 352.800781 315.34375 353.523438 316.777344 354.277344 318.195312 C 355.035156 319.613281 355.824219 321.015625 356.640625 322.394531 C 357.460938 323.777344 358.3125 325.140625 359.195312 326.484375 C 360.078125 327.824219 360.988281 329.148438 361.933594 330.449219 C 332.519531 339.699219 312.964844 351 303.824219 364.183594 C 297.289062 373.601562 281.226562 421.570312 268.261719 462.835938 L 265.769531 462.835938 C 264.949219 462.835938 264.132812 462.882812 263.316406 462.96875 C 262.5 463.058594 261.691406 463.191406 260.890625 463.367188 C 260.089844 463.542969 259.300781 463.761719 258.523438 464.023438 C 257.746094 464.28125 256.984375 464.585938 256.238281 464.929688 C 255.492188 465.269531 254.765625 465.652344 254.0625 466.074219 C 253.359375 466.496094 252.679688 466.953125 252.023438 467.449219 C 251.371094 467.941406 250.746094 468.46875 250.148438 469.03125 C 249.550781 469.59375 248.984375 470.1875 248.449219 470.808594 C 247.914062 471.433594 247.417969 472.082031 246.953125 472.761719 C 246.488281 473.4375 246.0625 474.136719 245.675781 474.859375 C 245.285156 475.582031 244.9375 476.324219 244.628906 477.082031 C 244.320312 477.84375 244.054688 478.617188 243.832031 479.40625 C 243.605469 480.195312 243.425781 480.996094 243.285156 481.804688 C 243.148438 482.613281 243.050781 483.425781 243 484.246094 C 242.949219 485.066406 242.945312 485.882812 242.980469 486.703125 C 243.019531 487.523438 243.101562 488.339844 243.226562 489.148438 L 265.382812 633.613281 C 265.472656 634.101562 265.601562 634.574219 265.777344 635.039062 C 265.949219 635.503906 266.164062 635.949219 266.417969 636.375 C 266.671875 636.800781 266.960938 637.199219 267.285156 637.574219 C 267.609375 637.945312 267.964844 638.289062 268.351562 638.597656 C 268.738281 638.910156 269.148438 639.183594 269.582031 639.417969 C 270.015625 639.65625 270.46875 639.851562 270.941406 640.007812 C 271.410156 640.164062 271.890625 640.277344 272.378906 640.347656 C 272.871094 640.417969 273.363281 640.445312 273.859375 640.425781 L 619.839844 640.425781 C 620.332031 640.425781 620.820312 640.382812 621.304688 640.292969 C 621.789062 640.207031 622.257812 640.078125 622.71875 639.90625 C 623.179688 639.738281 623.621094 639.527344 624.046875 639.277344 C 624.46875 639.027344 624.867188 638.742188 625.238281 638.421875 C 625.613281 638.101562 625.953125 637.753906 626.265625 637.371094 C 626.574219 636.992188 626.851562 636.585938 627.089844 636.15625 C 627.328125 635.730469 627.527344 635.28125 627.6875 634.816406 C 627.847656 634.351562 627.964844 633.878906 628.039062 633.390625 L 650.472656 488.925781 C 650.714844 487.320312 650.78125 485.703125 650.671875 484.082031 C 650.566406 482.460938 650.289062 480.867188 649.839844 479.304688 C 649.390625 477.742188 648.777344 476.246094 648.007812 474.8125 C 647.238281 473.382812 646.324219 472.050781 645.265625 470.8125 Z M 358.664062 268.960938 C 358.664062 267.511719 358.699219 266.0625 358.769531 264.613281 C 358.84375 263.164062 358.949219 261.71875 359.089844 260.277344 C 359.234375 258.832031 359.410156 257.394531 359.625 255.957031 C 359.835938 254.523438 360.085938 253.09375 360.367188 251.671875 C 360.652344 250.25 360.96875 248.835938 361.320312 247.425781 C 361.671875 246.019531 362.058594 244.625 362.480469 243.234375 C 362.902344 241.847656 363.355469 240.46875 363.84375 239.105469 C 364.335938 237.738281 364.855469 236.386719 365.410156 235.046875 C 365.964844 233.707031 366.554688 232.378906 367.175781 231.070312 C 367.792969 229.757812 368.445312 228.460938 369.128906 227.183594 C 369.8125 225.902344 370.527344 224.644531 371.273438 223.398438 C 372.019531 222.15625 372.796875 220.929688 373.601562 219.722656 C 374.40625 218.515625 375.242188 217.332031 376.105469 216.167969 C 376.96875 215 377.863281 213.859375 378.78125 212.738281 C 379.703125 211.617188 380.648438 210.519531 381.625 209.445312 C 382.597656 208.367188 383.597656 207.320312 384.625 206.292969 C 385.648438 205.265625 386.699219 204.265625 387.773438 203.292969 C 388.847656 202.320312 389.945312 201.371094 391.066406 200.453125 C 392.1875 199.53125 393.332031 198.640625 394.496094 197.777344 C 395.664062 196.910156 396.847656 196.078125 398.054688 195.269531 C 399.257812 194.464844 400.484375 193.6875 401.730469 192.945312 C 402.972656 192.199219 404.234375 191.484375 405.515625 190.800781 C 406.792969 190.117188 408.089844 189.464844 409.398438 188.84375 C 410.710938 188.222656 412.035156 187.636719 413.375 187.082031 C 414.714844 186.527344 416.070312 186.003906 417.433594 185.515625 C 418.800781 185.027344 420.175781 184.570312 421.566406 184.152344 C 422.953125 183.730469 424.351562 183.34375 425.757812 182.992188 C 427.164062 182.636719 428.578125 182.320312 430.003906 182.039062 C 431.425781 181.753906 432.855469 181.507812 434.289062 181.292969 C 435.722656 181.082031 437.164062 180.902344 438.605469 180.761719 C 440.050781 180.617188 441.496094 180.511719 442.945312 180.441406 C 444.394531 180.371094 445.84375 180.335938 447.292969 180.335938 C 448.742188 180.335938 450.191406 180.371094 451.640625 180.441406 C 453.089844 180.511719 454.535156 180.617188 455.980469 180.761719 C 457.421875 180.902344 458.863281 181.082031 460.296875 181.292969 C 461.730469 181.507812 463.160156 181.753906 464.582031 182.039062 C 466.007812 182.320312 467.421875 182.636719 468.828125 182.992188 C 470.234375 183.34375 471.632812 183.730469 473.019531 184.152344 C 474.410156 184.570312 475.785156 185.027344 477.152344 185.515625 C 478.515625 186.003906 479.871094 186.527344 481.210938 187.082031 C 482.550781 187.636719 483.875 188.222656 485.1875 188.84375 C 486.496094 189.464844 487.792969 190.117188 489.070312 190.800781 C 490.351562 191.484375 491.613281 192.199219 492.855469 192.945312 C 494.101562 193.6875 495.328125 194.464844 496.53125 195.269531 C 497.738281 196.078125 498.925781 196.910156 500.089844 197.777344 C 501.253906 198.640625 502.398438 199.53125 503.519531 200.453125 C 504.640625 201.371094 505.738281 202.320312 506.8125 203.292969 C 507.886719 204.265625 508.9375 205.265625 509.960938 206.292969 C 510.988281 207.320312 511.988281 208.367188 512.960938 209.445312 C 513.9375 210.519531 514.882812 211.617188 515.804688 212.738281 C 516.722656 213.859375 517.617188 215 518.480469 216.167969 C 519.34375 217.332031 520.179688 218.515625 520.984375 219.722656 C 521.789062 220.929688 522.566406 222.15625 523.3125 223.398438 C 524.058594 224.644531 524.773438 225.902344 525.457031 227.183594 C 526.140625 228.460938 526.792969 229.757812 527.414062 231.070312 C 528.03125 232.378906 528.621094 233.707031 529.175781 235.046875 C 529.730469 236.386719 530.253906 237.738281 530.742188 239.105469 C 531.230469 240.46875 531.683594 241.847656 532.105469 243.234375 C 532.527344 244.625 532.914062 246.019531 533.265625 247.425781 C 533.617188 248.835938 533.9375 250.25 534.21875 251.671875 C 534.5 253.09375 534.75 254.523438 534.960938 255.957031 C 535.175781 257.394531 535.351562 258.832031 535.496094 260.277344 C 535.636719 261.71875 535.742188 263.164062 535.816406 264.613281 C 535.886719 266.0625 535.921875 267.511719 535.921875 268.960938 C 535.921875 270.414062 535.886719 271.863281 535.816406 273.3125 C 535.742188 274.761719 535.636719 276.207031 535.496094 277.648438 C 535.351562 279.09375 535.175781 280.53125 534.960938 281.96875 C 534.75 283.402344 534.5 284.832031 534.21875 286.253906 C 533.9375 287.675781 533.617188 289.089844 533.265625 290.496094 C 532.914062 291.90625 532.527344 293.300781 532.105469 294.691406 C 531.683594 296.078125 531.230469 297.453125 530.742188 298.820312 C 530.253906 300.1875 529.730469 301.539062 529.175781 302.878906 C 528.621094 304.21875 528.03125 305.546875 527.414062 306.855469 C 526.792969 308.167969 526.140625 309.460938 525.457031 310.742188 C 524.773438 312.019531 524.058594 313.28125 523.3125 314.527344 C 522.566406 315.769531 521.789062 316.996094 520.984375 318.203125 C 520.179688 319.40625 519.34375 320.59375 518.480469 321.757812 C 517.617188 322.921875 516.722656 324.066406 515.804688 325.1875 C 514.882812 326.308594 513.9375 327.40625 512.960938 328.480469 C 511.988281 329.554688 510.988281 330.605469 509.960938 331.632812 C 508.9375 332.65625 507.886719 333.65625 506.8125 334.632812 C 505.738281 335.605469 504.640625 336.554688 503.519531 337.472656 C 502.398438 338.394531 501.253906 339.285156 500.089844 340.148438 C 498.925781 341.015625 497.738281 341.847656 496.53125 342.65625 C 495.328125 343.460938 494.101562 344.234375 492.855469 344.980469 C 491.613281 345.726562 490.351562 346.441406 489.070312 347.125 C 487.792969 347.808594 486.496094 348.460938 485.1875 349.082031 C 483.875 349.703125 482.550781 350.289062 481.210938 350.84375 C 479.871094 351.398438 478.515625 351.921875 477.152344 352.410156 C 475.785156 352.898438 474.410156 353.355469 473.019531 353.773438 C 471.632812 354.195312 470.234375 354.582031 468.828125 354.933594 C 467.421875 355.289062 466.007812 355.605469 464.582031 355.886719 C 463.160156 356.171875 461.730469 356.417969 460.296875 356.632812 C 458.863281 356.84375 457.421875 357.023438 455.980469 357.164062 C 454.535156 357.304688 453.089844 357.414062 451.640625 357.484375 C 450.191406 357.554688 448.742188 357.589844 447.292969 357.589844 C 445.84375 357.589844 444.394531 357.554688 442.945312 357.484375 C 441.496094 357.414062 440.050781 357.304688 438.605469 357.164062 C 437.164062 357.023438 435.722656 356.84375 434.289062 356.632812 C 432.855469 356.417969 431.425781 356.171875 430.003906 355.886719 C 428.578125 355.605469 427.164062 355.289062 425.757812 354.933594 C 424.351562 354.582031 422.953125 354.195312 421.566406 353.773438 C 420.175781 353.355469 418.800781 352.898438 417.433594 352.410156 C 416.070312 351.921875 414.714844 351.398438 413.375 350.84375 C 412.035156 350.289062 410.710938 349.703125 409.398438 349.082031 C 408.089844 348.460938 406.792969 347.808594 405.515625 347.125 C 404.234375 346.441406 402.972656 345.726562 401.730469 344.980469 C 400.484375 344.234375 399.257812 343.460938 398.054688 342.65625 C 396.847656 341.847656 395.664062 341.015625 394.496094 340.148438 C 393.332031 339.285156 392.1875 338.394531 391.066406 337.472656 C 389.945312 336.554688 388.847656 335.605469 387.773438 334.632812 C 386.699219 333.65625 385.648438 332.65625 384.625 331.632812 C 383.597656 330.605469 382.597656 329.554688 381.625 328.480469 C 380.648438 327.40625 379.703125 326.308594 378.78125 325.1875 C 377.863281 324.066406 376.96875 322.921875 376.105469 321.757812 C 375.242188 320.59375 374.40625 319.40625 373.601562 318.203125 C 372.796875 316.996094 372.019531 315.769531 371.273438 314.527344 C 370.527344 313.28125 369.8125 312.019531 369.128906 310.742188 C 368.445312 309.460938 367.792969 308.167969 367.175781 306.855469 C 366.554688 305.546875 365.964844 304.21875 365.410156 302.878906 C 364.855469 301.539062 364.335938 300.1875 363.84375 298.820312 C 363.355469 297.453125 362.902344 296.078125 362.480469 294.691406 C 362.058594 293.300781 361.671875 291.90625 361.320312 290.496094 C 360.96875 289.089844 360.652344 287.675781 360.367188 286.253906 C 360.085938 284.832031 359.835938 283.402344 359.625 281.96875 C 359.410156 280.53125 359.234375 279.09375 359.089844 277.648438 C 358.949219 276.207031 358.84375 274.761719 358.769531 273.3125 C 358.699219 271.863281 358.664062 270.414062 358.664062 268.960938 Z M 317.453125 373.488281 C 326.203125 360.96875 348.972656 351.332031 373.730469 344.074219 C 374.941406 345.261719 376.179688 346.417969 377.445312 347.546875 C 378.710938 348.671875 380.003906 349.769531 381.324219 350.832031 C 382.644531 351.894531 383.988281 352.925781 385.355469 353.925781 C 386.726562 354.925781 388.117188 355.890625 389.535156 356.820312 C 390.949219 357.753906 392.386719 358.648438 393.847656 359.511719 C 395.308594 360.371094 396.785156 361.199219 398.285156 361.988281 C 399.785156 362.777344 401.304688 363.53125 402.839844 364.246094 C 404.375 364.964844 405.929688 365.640625 407.496094 366.285156 C 409.066406 366.925781 410.648438 367.527344 412.25 368.089844 C 413.847656 368.65625 415.457031 369.179688 417.082031 369.667969 C 418.703125 370.152344 420.339844 370.597656 421.984375 371.003906 C 423.628906 371.414062 425.285156 371.78125 426.945312 372.105469 C 428.609375 372.433594 430.28125 372.71875 431.957031 372.964844 C 433.632812 373.210938 435.316406 373.414062 437.003906 373.578125 C 438.691406 373.742188 440.378906 373.867188 442.074219 373.949219 C 443.765625 374.03125 445.460938 374.070312 447.15625 374.070312 C 448.847656 374.070312 450.542969 374.03125 452.234375 373.949219 C 453.929688 373.867188 455.617188 373.742188 457.304688 373.578125 C 458.992188 373.414062 460.675781 373.210938 462.351562 372.964844 C 464.027344 372.71875 465.699219 372.433594 467.363281 372.105469 C 469.023438 371.78125 470.679688 371.414062 472.324219 371.003906 C 473.96875 370.597656 475.605469 370.152344 477.226562 369.667969 C 478.851562 369.179688 480.460938 368.65625 482.0625 368.089844 C 483.660156 367.527344 485.242188 366.925781 486.8125 366.285156 C 488.378906 365.640625 489.933594 364.964844 491.46875 364.246094 C 493.003906 363.53125 494.523438 362.777344 496.023438 361.988281 C 497.523438 361.199219 499 360.371094 500.460938 359.511719 C 501.921875 358.648438 503.359375 357.753906 504.773438 356.820312 C 506.191406 355.890625 507.582031 354.925781 508.953125 353.925781 C 510.320312 352.925781 511.667969 351.894531 512.984375 350.832031 C 514.304688 349.769531 515.597656 348.671875 516.863281 347.546875 C 518.128906 346.417969 519.367188 345.261719 520.578125 344.074219 C 545.117188 351.164062 567.605469 360.691406 575.96875 373.378906 C 580.789062 380.246094 594.359375 420.40625 607.710938 462.671875 L 560.847656 462.671875 L 555.972656 443.339844 C 555.839844 442.808594 555.660156 442.296875 555.425781 441.804688 C 555.191406 441.3125 554.914062 440.847656 554.585938 440.40625 C 554.261719 439.96875 553.898438 439.566406 553.492188 439.199219 C 553.089844 438.835938 552.652344 438.511719 552.183594 438.230469 C 551.714844 437.949219 551.226562 437.71875 550.710938 437.535156 C 550.195312 437.351562 549.671875 437.21875 549.128906 437.136719 C 548.589844 437.058594 548.046875 437.03125 547.503906 437.058594 C 546.957031 437.085938 546.421875 437.164062 545.890625 437.296875 C 545.363281 437.429688 544.851562 437.613281 544.359375 437.847656 C 543.863281 438.082031 543.398438 438.359375 542.960938 438.6875 C 542.523438 439.011719 542.121094 439.375 541.753906 439.78125 C 541.386719 440.183594 541.0625 440.621094 540.785156 441.089844 C 540.503906 441.558594 540.273438 442.050781 540.089844 442.5625 C 539.90625 443.078125 539.773438 443.605469 539.691406 444.144531 C 539.613281 444.683594 539.585938 445.226562 539.613281 445.769531 C 539.640625 446.316406 539.722656 446.855469 539.855469 447.382812 L 543.730469 462.671875 L 349.855469 462.671875 L 353.734375 447.382812 C 353.867188 446.855469 353.945312 446.316406 353.972656 445.773438 C 354 445.226562 353.976562 444.683594 353.894531 444.144531 C 353.816406 443.605469 353.683594 443.078125 353.5 442.5625 C 353.316406 442.050781 353.082031 441.558594 352.804688 441.089844 C 352.523438 440.625 352.199219 440.1875 351.832031 439.78125 C 351.46875 439.378906 351.066406 439.011719 350.628906 438.6875 C 350.1875 438.363281 349.722656 438.082031 349.230469 437.851562 C 348.738281 437.617188 348.226562 437.433594 347.695312 437.300781 C 347.167969 437.167969 346.628906 437.089844 346.085938 437.0625 C 345.539062 437.035156 345 437.0625 344.457031 437.140625 C 343.917969 437.222656 343.390625 437.351562 342.878906 437.535156 C 342.363281 437.71875 341.875 437.953125 341.40625 438.230469 C 340.9375 438.511719 340.5 438.835938 340.097656 439.203125 C 339.691406 439.570312 339.328125 439.96875 339.003906 440.410156 C 338.675781 440.847656 338.398438 441.3125 338.164062 441.804688 C 337.929688 442.296875 337.75 442.808594 337.617188 443.339844 L 332.742188 462.671875 L 285.710938 462.671875 C 299.0625 420.574219 312.632812 380.414062 317.453125 373.488281 Z M 634.078125 486.601562 L 613.027344 623.808594 L 280.949219 623.808594 L 259.621094 486.601562 C 259.476562 485.703125 259.527344 484.820312 259.78125 483.945312 C 260.03125 483.074219 260.460938 482.296875 261.0625 481.617188 C 261.644531 480.917969 262.34375 480.378906 263.171875 480 C 263.996094 479.621094 264.863281 479.4375 265.769531 479.457031 L 627.929688 479.457031 C 628.835938 479.4375 629.703125 479.621094 630.527344 480 C 631.355469 480.378906 632.058594 480.917969 632.636719 481.617188 C 633.242188 482.296875 633.667969 483.074219 633.921875 483.945312 C 634.171875 484.820312 634.226562 485.703125 634.078125 486.601562 Z M 392.898438 533.296875 L 376.945312 549.25 L 398.769531 571.074219 C 399.15625 571.457031 399.503906 571.878906 399.808594 572.328125 C 400.117188 572.78125 400.375 573.261719 400.585938 573.765625 C 400.792969 574.269531 400.953125 574.789062 401.0625 575.324219 C 401.167969 575.859375 401.222656 576.398438 401.222656 576.945312 C 401.222656 577.492188 401.167969 578.035156 401.0625 578.570312 C 400.953125 579.105469 400.792969 579.625 400.585938 580.128906 C 400.375 580.632812 400.117188 581.109375 399.808594 581.5625 C 399.503906 582.015625 399.15625 582.433594 398.769531 582.816406 C 398 583.609375 397.105469 584.21875 396.085938 584.640625 C 395.0625 585.066406 394 585.269531 392.898438 585.253906 C 391.792969 585.265625 390.734375 585.054688 389.714844 584.632812 C 388.695312 584.210938 387.796875 583.605469 387.027344 582.816406 L 359.328125 555.121094 C 358.949219 554.734375 358.605469 554.3125 358.304688 553.859375 C 358.007812 553.40625 357.753906 552.925781 357.546875 552.421875 C 357.339844 551.917969 357.183594 551.402344 357.078125 550.867188 C 356.972656 550.332031 356.921875 549.792969 356.921875 549.25 C 356.921875 548.707031 356.972656 548.167969 357.078125 547.632812 C 357.183594 547.097656 357.339844 546.582031 357.546875 546.078125 C 357.753906 545.574219 358.007812 545.09375 358.304688 544.640625 C 358.605469 544.1875 358.949219 543.765625 359.328125 543.378906 L 387.027344 515.683594 C 387.414062 515.300781 387.835938 514.960938 388.289062 514.660156 C 388.742188 514.359375 389.222656 514.105469 389.722656 513.898438 C 390.226562 513.695312 390.746094 513.539062 391.28125 513.433594 C 391.8125 513.328125 392.351562 513.273438 392.898438 513.273438 C 393.441406 513.273438 393.980469 513.328125 394.515625 513.433594 C 395.046875 513.539062 395.566406 513.695312 396.070312 513.898438 C 396.574219 514.105469 397.050781 514.359375 397.507812 514.660156 C 397.960938 514.960938 398.382812 515.300781 398.769531 515.683594 C 399.15625 516.066406 399.503906 516.484375 399.808594 516.9375 C 400.117188 517.390625 400.375 517.867188 400.585938 518.371094 C 400.792969 518.875 400.953125 519.394531 401.0625 519.929688 C 401.167969 520.464844 401.222656 521.007812 401.222656 521.554688 C 401.222656 522.101562 401.167969 522.640625 401.0625 523.175781 C 400.953125 523.710938 400.792969 524.230469 400.585938 524.734375 C 400.375 525.238281 400.117188 525.71875 399.808594 526.171875 C 399.503906 526.625 399.15625 527.042969 398.769531 527.425781 Z M 534.371094 543.378906 C 534.753906 543.765625 535.09375 544.1875 535.394531 544.640625 C 535.691406 545.09375 535.945312 545.574219 536.152344 546.078125 C 536.359375 546.582031 536.515625 547.097656 536.621094 547.632812 C 536.726562 548.167969 536.777344 548.707031 536.777344 549.25 C 536.777344 549.792969 536.726562 550.332031 536.621094 550.867188 C 536.515625 551.402344 536.359375 551.917969 536.152344 552.421875 C 535.945312 552.925781 535.691406 553.40625 535.394531 553.859375 C 535.09375 554.3125 534.753906 554.734375 534.371094 555.121094 L 506.675781 582.816406 C 505.902344 583.605469 505.003906 584.210938 503.984375 584.632812 C 502.96875 585.054688 501.90625 585.265625 500.800781 585.253906 C 499.699219 585.269531 498.636719 585.066406 497.617188 584.640625 C 496.59375 584.21875 495.699219 583.609375 494.929688 582.816406 C 494.542969 582.433594 494.195312 582.015625 493.890625 581.5625 C 493.585938 581.109375 493.328125 580.632812 493.117188 580.128906 C 492.90625 579.625 492.746094 579.105469 492.640625 578.570312 C 492.53125 578.035156 492.476562 577.492188 492.476562 576.945312 C 492.476562 576.402344 492.53125 575.859375 492.640625 575.324219 C 492.746094 574.789062 492.90625 574.269531 493.117188 573.765625 C 493.328125 573.261719 493.585938 572.78125 493.890625 572.328125 C 494.195312 571.878906 494.542969 571.457031 494.929688 571.074219 L 516.753906 549.25 L 494.929688 527.425781 C 494.542969 527.042969 494.195312 526.625 493.890625 526.171875 C 493.585938 525.71875 493.328125 525.238281 493.117188 524.734375 C 492.90625 524.230469 492.746094 523.710938 492.640625 523.175781 C 492.53125 522.640625 492.476562 522.101562 492.476562 521.554688 C 492.476562 521.007812 492.53125 520.464844 492.640625 519.929688 C 492.746094 519.394531 492.90625 518.875 493.117188 518.371094 C 493.328125 517.867188 493.585938 517.390625 493.890625 516.9375 C 494.195312 516.484375 494.542969 516.066406 494.929688 515.683594 C 495.320312 515.300781 495.738281 514.960938 496.191406 514.660156 C 496.648438 514.359375 497.125 514.105469 497.628906 513.898438 C 498.132812 513.695312 498.652344 513.539062 499.183594 513.433594 C 499.71875 513.328125 500.257812 513.273438 500.800781 513.273438 C 501.347656 513.273438 501.886719 513.328125 502.417969 513.433594 C 502.953125 513.539062 503.472656 513.695312 503.976562 513.898438 C 504.480469 514.105469 504.957031 514.359375 505.410156 514.660156 C 505.867188 514.960938 506.285156 515.300781 506.675781 515.683594 Z M 475.652344 511.417969 L 434.109375 594.507812 C 433.867188 594.996094 433.578125 595.460938 433.242188 595.894531 C 432.90625 596.328125 432.535156 596.726562 432.121094 597.089844 C 431.707031 597.449219 431.265625 597.765625 430.789062 598.039062 C 430.3125 598.3125 429.816406 598.539062 429.296875 598.710938 C 428.777344 598.886719 428.242188 599.011719 427.699219 599.082031 C 427.15625 599.152344 426.609375 599.167969 426.0625 599.128906 C 425.515625 599.09375 424.976562 599.003906 424.449219 598.859375 C 423.917969 598.71875 423.40625 598.523438 422.917969 598.28125 C 422.425781 598.035156 421.960938 597.746094 421.527344 597.410156 C 421.09375 597.078125 420.695312 596.703125 420.335938 596.289062 C 419.976562 595.875 419.660156 595.429688 419.386719 594.953125 C 419.113281 594.480469 418.890625 593.980469 418.714844 593.460938 C 418.539062 592.941406 418.417969 592.410156 418.347656 591.867188 C 418.277344 591.320312 418.261719 590.777344 418.300781 590.230469 C 418.335938 589.679688 418.429688 589.144531 418.570312 588.613281 C 418.714844 588.085938 418.910156 587.574219 419.152344 587.082031 L 460.699219 503.996094 C 460.957031 503.535156 461.257812 503.101562 461.597656 502.699219 C 461.941406 502.296875 462.316406 501.929688 462.730469 501.597656 C 463.140625 501.265625 463.582031 500.976562 464.046875 500.730469 C 464.515625 500.484375 465 500.28125 465.503906 500.128906 C 466.011719 499.972656 466.527344 499.867188 467.050781 499.8125 C 467.574219 499.753906 468.101562 499.75 468.628906 499.792969 C 469.15625 499.835938 469.671875 499.929688 470.179688 500.074219 C 470.691406 500.214844 471.179688 500.40625 471.652344 500.640625 C 472.125 500.878906 472.570312 501.15625 472.992188 501.476562 C 473.410156 501.800781 473.796875 502.15625 474.144531 502.550781 C 474.496094 502.945312 474.808594 503.371094 475.078125 503.824219 C 475.347656 504.277344 475.574219 504.753906 475.753906 505.25 C 475.929688 505.75 476.0625 506.257812 476.144531 506.78125 C 476.226562 507.300781 476.257812 507.824219 476.242188 508.355469 C 476.222656 508.882812 476.15625 509.402344 476.039062 509.917969 C 475.921875 510.433594 475.757812 510.933594 475.542969 511.417969 Z M 475.652344 511.417969 " fill-opacity="1" fill-rule="nonzero"/></g></svg>