<svg xmlns="http://www.w3.org/2000/svg" xmlns:xlink="http://www.w3.org/1999/xlink" width="1200" zoomAndPan="magnify" viewBox="0 0 900 809.999993" height="1080" preserveAspectRatio="xMidYMid meet" version="1.0"><defs><clipPath id="21681a055e"><path d="M 73.875 31.894531 L 826 31.894531 L 826 778.105469 L 73.875 778.105469 Z M 73.875 31.894531 " clip-rule="nonzero"/></clipPath><clipPath id="fff0cc482f"><path d="M 87.375 31.894531 L 812.625 31.894531 C 816.207031 31.894531 819.640625 33.316406 822.171875 35.847656 C 824.703125 38.378906 826.125 41.8125 826.125 45.394531 L 826.125 764.605469 C 826.125 768.1875 824.703125 771.621094 822.171875 774.152344 C 819.640625 776.683594 816.207031 778.105469 812.625 778.105469 L 87.375 778.105469 C 83.792969 778.105469 80.359375 776.683594 77.828125 774.152344 C 75.296875 771.621094 73.875 768.1875 73.875 764.605469 L 73.875 45.394531 C 73.875 41.8125 75.296875 38.378906 77.828125 35.847656 C 80.359375 33.316406 83.792969 31.894531 87.375 31.894531 Z M 87.375 31.894531 " clip-rule="nonzero"/></clipPath><clipPath id="2f1f6e3714"><path d="M 394 154.476562 L 524 154.476562 L 524 285 L 394 285 Z M 394 154.476562 " clip-rule="nonzero"/></clipPath><clipPath id="64cb36f88f"><path d="M 294 460 L 624 460 L 624 641.136719 L 294 641.136719 Z M 294 460 " clip-rule="nonzero"/></clipPath></defs><g clip-path="url(#21681a055e)"><g clip-path="url(#fff0cc482f)"><path fill="#001b27" d="M 73.875 31.894531 L 825.917969 31.894531 L 825.917969 778.105469 L 73.875 778.105469 Z M 73.875 31.894531 " fill-opacity="1" fill-rule="nonzero"/></g></g><path fill="#ffffff" d="M 499.496094 438.363281 C 499.496094 411.523438 481.304688 389.695312 458.941406 389.695312 C 436.578125 389.695312 418.386719 411.523438 418.386719 438.363281 C 418.386719 465.199219 436.578125 487.027344 458.941406 487.027344 C 481.304688 487.027344 499.496094 465.199219 499.496094 438.363281 Z M 458.941406 470.804688 C 445.527344 470.804688 434.609375 456.253906 434.609375 438.363281 C 434.609375 420.46875 445.527344 405.917969 458.941406 405.917969 C 472.355469 405.917969 483.273438 420.46875 483.273438 438.363281 C 483.273438 456.253906 472.355469 470.804688 458.941406 470.804688 Z M 458.941406 470.804688 " fill-opacity="1" fill-rule="nonzero"/><path fill="#ffffff" d="M 458.941406 243.695312 C 459.738281 243.695312 460.535156 243.65625 461.328125 243.578125 C 462.121094 243.5 462.90625 243.386719 463.6875 243.230469 C 464.46875 243.074219 465.242188 242.878906 466.003906 242.648438 C 466.769531 242.417969 467.515625 242.148438 468.253906 241.84375 C 468.988281 241.539062 469.710938 241.199219 470.414062 240.824219 C 471.113281 240.449219 471.796875 240.039062 472.460938 239.597656 C 473.125 239.152344 473.761719 238.679688 474.378906 238.171875 C 474.996094 237.667969 475.585938 237.132812 476.148438 236.570312 C 476.710938 236.007812 477.246094 235.417969 477.75 234.800781 C 478.257812 234.183594 478.730469 233.546875 479.175781 232.882812 C 479.617188 232.21875 480.027344 231.539062 480.402344 230.835938 C 480.777344 230.132812 481.117188 229.410156 481.421875 228.675781 C 481.726562 227.941406 481.996094 227.191406 482.226562 226.425781 C 482.457031 225.664062 482.652344 224.894531 482.808594 224.109375 C 482.960938 223.328125 483.078125 222.542969 483.15625 221.75 C 483.234375 220.957031 483.273438 220.160156 483.273438 219.363281 C 483.273438 218.566406 483.234375 217.773438 483.15625 216.980469 C 483.078125 216.1875 482.960938 215.398438 482.808594 214.617188 C 482.652344 213.835938 482.457031 213.0625 482.226562 212.300781 C 481.996094 211.539062 481.726562 210.789062 481.421875 210.050781 C 481.117188 209.316406 480.777344 208.597656 480.402344 207.894531 C 480.027344 207.191406 479.617188 206.507812 479.175781 205.84375 C 478.730469 205.183594 478.257812 204.542969 477.75 203.925781 C 477.246094 203.3125 476.710938 202.722656 476.148438 202.15625 C 475.585938 201.59375 474.996094 201.058594 474.378906 200.554688 C 473.761719 200.046875 473.125 199.574219 472.460938 199.132812 C 471.796875 198.6875 471.113281 198.28125 470.414062 197.902344 C 469.710938 197.527344 468.988281 197.1875 468.253906 196.882812 C 467.515625 196.578125 466.769531 196.308594 466.003906 196.078125 C 465.242188 195.847656 464.46875 195.652344 463.6875 195.5 C 462.90625 195.34375 462.121094 195.226562 461.328125 195.148438 C 460.535156 195.070312 459.738281 195.03125 458.941406 195.03125 C 458.144531 195.03125 457.351562 195.070312 456.558594 195.148438 C 455.761719 195.226562 454.976562 195.34375 454.195312 195.5 C 453.414062 195.652344 452.640625 195.847656 451.878906 196.078125 C 451.117188 196.308594 450.367188 196.578125 449.628906 196.882812 C 448.894531 197.1875 448.175781 197.527344 447.472656 197.902344 C 446.769531 198.28125 446.085938 198.6875 445.421875 199.132812 C 444.761719 199.574219 444.121094 200.046875 443.503906 200.554688 C 442.890625 201.058594 442.300781 201.59375 441.734375 202.15625 C 441.171875 202.722656 440.636719 203.3125 440.132812 203.925781 C 439.625 204.542969 439.152344 205.183594 438.710938 205.84375 C 438.265625 206.507812 437.859375 207.191406 437.480469 207.894531 C 437.105469 208.597656 436.765625 209.316406 436.460938 210.050781 C 436.15625 210.789062 435.886719 211.539062 435.65625 212.300781 C 435.425781 213.0625 435.230469 213.835938 435.078125 214.617188 C 434.921875 215.398438 434.804688 216.1875 434.726562 216.980469 C 434.648438 217.773438 434.609375 218.566406 434.609375 219.363281 C 434.609375 220.160156 434.648438 220.957031 434.726562 221.75 C 434.804688 222.542969 434.921875 223.328125 435.078125 224.109375 C 435.230469 224.894531 435.425781 225.664062 435.65625 226.425781 C 435.886719 227.191406 436.15625 227.941406 436.460938 228.675781 C 436.765625 229.410156 437.105469 230.132812 437.480469 230.835938 C 437.859375 231.539062 438.265625 232.21875 438.710938 232.882812 C 439.152344 233.546875 439.625 234.183594 440.132812 234.800781 C 440.636719 235.417969 441.171875 236.007812 441.734375 236.570312 C 442.300781 237.132812 442.890625 237.667969 443.503906 238.171875 C 444.121094 238.679688 444.761719 239.152344 445.421875 239.597656 C 446.085938 240.039062 446.769531 240.449219 447.472656 240.824219 C 448.175781 241.199219 448.894531 241.539062 449.628906 241.84375 C 450.367188 242.148438 451.117188 242.417969 451.878906 242.648438 C 452.640625 242.878906 453.414062 243.074219 454.195312 243.230469 C 454.976562 243.386719 455.761719 243.5 456.558594 243.578125 C 457.351562 243.65625 458.144531 243.695312 458.941406 243.695312 Z M 458.941406 211.253906 C 459.472656 211.253906 460 211.304688 460.523438 211.410156 C 461.046875 211.511719 461.554688 211.667969 462.046875 211.871094 C 462.539062 212.074219 463.003906 212.324219 463.449219 212.621094 C 463.890625 212.914062 464.300781 213.253906 464.675781 213.628906 C 465.054688 214.003906 465.390625 214.414062 465.6875 214.859375 C 465.980469 215.300781 466.230469 215.769531 466.433594 216.261719 C 466.640625 216.753906 466.792969 217.257812 466.898438 217.78125 C 467 218.304688 467.054688 218.832031 467.054688 219.363281 C 467.054688 219.898438 467 220.425781 466.898438 220.945312 C 466.792969 221.46875 466.640625 221.976562 466.433594 222.46875 C 466.230469 222.960938 465.980469 223.425781 465.6875 223.871094 C 465.390625 224.3125 465.054688 224.722656 464.675781 225.097656 C 464.300781 225.476562 463.890625 225.8125 463.449219 226.109375 C 463.003906 226.402344 462.539062 226.652344 462.046875 226.859375 C 461.554688 227.0625 461.046875 227.214844 460.523438 227.320312 C 460 227.421875 459.472656 227.476562 458.941406 227.476562 C 458.410156 227.476562 457.882812 227.421875 457.359375 227.320312 C 456.835938 227.214844 456.328125 227.0625 455.835938 226.859375 C 455.347656 226.652344 454.878906 226.402344 454.433594 226.109375 C 453.992188 225.8125 453.582031 225.476562 453.207031 225.097656 C 452.828125 224.722656 452.492188 224.3125 452.199219 223.871094 C 451.902344 223.425781 451.652344 222.960938 451.449219 222.46875 C 451.246094 221.976562 451.089844 221.46875 450.988281 220.945312 C 450.882812 220.425781 450.832031 219.898438 450.832031 219.363281 C 450.832031 218.832031 450.882812 218.304688 450.988281 217.78125 C 451.089844 217.257812 451.246094 216.753906 451.449219 216.261719 C 451.652344 215.769531 451.902344 215.300781 452.199219 214.859375 C 452.492188 214.414062 452.828125 214.003906 453.207031 213.628906 C 453.582031 213.253906 453.992188 212.914062 454.433594 212.621094 C 454.878906 212.324219 455.347656 212.074219 455.835938 211.871094 C 456.328125 211.667969 456.835938 211.511719 457.359375 211.410156 C 457.882812 211.304688 458.410156 211.253906 458.941406 211.253906 Z M 458.941406 211.253906 " fill-opacity="1" fill-rule="nonzero"/><g clip-path="url(#2f1f6e3714)"><path fill="#ffffff" d="M 398.539062 234.773438 L 409.082031 240.046875 L 405.410156 251.207031 C 405.171875 251.921875 405.035156 252.65625 405 253.410156 C 404.964844 254.160156 405.035156 254.90625 405.207031 255.636719 C 405.378906 256.371094 405.648438 257.066406 406.015625 257.726562 C 406.382812 258.382812 406.832031 258.980469 407.363281 259.511719 L 418.839844 270.984375 C 419.375 271.515625 419.96875 271.964844 420.625 272.328125 C 421.285156 272.695312 421.980469 272.964844 422.710938 273.136719 C 423.445312 273.308594 424.1875 273.378906 424.9375 273.34375 C 425.691406 273.3125 426.425781 273.175781 427.136719 272.9375 L 438.339844 269.214844 L 443.613281 279.757812 C 443.945312 280.429688 444.367188 281.042969 444.871094 281.597656 C 445.375 282.15625 445.949219 282.628906 446.585938 283.027344 C 447.222656 283.421875 447.902344 283.726562 448.621094 283.933594 C 449.34375 284.140625 450.082031 284.25 450.832031 284.253906 L 467.054688 284.253906 C 467.808594 284.257812 468.554688 284.15625 469.28125 283.953125 C 470.011719 283.75 470.699219 283.449219 471.34375 283.050781 C 471.988281 282.65625 472.566406 282.179688 473.078125 281.621094 C 473.589844 281.0625 474.015625 280.445312 474.351562 279.765625 L 479.625 269.222656 L 490.824219 272.945312 C 491.539062 273.183594 492.273438 273.320312 493.023438 273.355469 C 493.777344 273.386719 494.519531 273.320312 495.253906 273.144531 C 495.984375 272.972656 496.679688 272.703125 497.339844 272.335938 C 497.996094 271.972656 498.589844 271.523438 499.125 270.992188 L 510.601562 259.523438 C 511.132812 258.988281 511.582031 258.394531 511.949219 257.734375 C 512.316406 257.074219 512.585938 256.378906 512.757812 255.648438 C 512.929688 254.914062 513 254.167969 512.964844 253.417969 C 512.929688 252.664062 512.792969 251.929688 512.554688 251.214844 L 508.832031 240.023438 L 519.375 234.742188 C 520.046875 234.402344 520.660156 233.976562 521.214844 233.46875 C 521.769531 232.957031 522.242188 232.382812 522.636719 231.742188 C 523.027344 231.097656 523.328125 230.414062 523.527344 229.691406 C 523.730469 228.964844 523.832031 228.226562 523.828125 227.476562 L 523.828125 211.253906 C 523.832031 210.5 523.726562 209.761719 523.523438 209.035156 C 523.316406 208.308594 523.015625 207.625 522.617188 206.984375 C 522.222656 206.34375 521.746094 205.769531 521.191406 205.261719 C 520.632812 204.753906 520.019531 204.332031 519.34375 203.992188 L 508.800781 198.722656 L 512.472656 187.519531 C 512.714844 186.804688 512.851562 186.070312 512.882812 185.320312 C 512.917969 184.566406 512.851562 183.824219 512.675781 183.089844 C 512.503906 182.355469 512.234375 181.660156 511.867188 181 C 511.503906 180.34375 511.050781 179.746094 510.519531 179.214844 L 499.082031 167.746094 C 498.546875 167.21875 497.953125 166.773438 497.292969 166.410156 C 496.632812 166.046875 495.9375 165.78125 495.207031 165.613281 C 494.472656 165.441406 493.730469 165.378906 492.980469 165.414062 C 492.230469 165.453125 491.496094 165.589844 490.785156 165.832031 L 479.585938 169.554688 L 474.3125 159.011719 C 473.980469 158.332031 473.558594 157.710938 473.050781 157.148438 C 472.542969 156.589844 471.96875 156.109375 471.328125 155.707031 C 470.6875 155.308594 470.003906 155 469.277344 154.792969 C 468.550781 154.582031 467.808594 154.476562 467.054688 154.476562 L 450.832031 154.476562 C 450.078125 154.476562 449.335938 154.578125 448.613281 154.785156 C 447.886719 154.988281 447.203125 155.289062 446.5625 155.6875 C 445.921875 156.082031 445.347656 156.558594 444.839844 157.117188 C 444.332031 157.671875 443.910156 158.285156 443.570312 158.960938 L 438.300781 169.503906 L 427.097656 165.832031 C 426.382812 165.59375 425.652344 165.457031 424.898438 165.421875 C 424.148438 165.390625 423.40625 165.457031 422.671875 165.628906 C 421.9375 165.804688 421.242188 166.074219 420.585938 166.4375 C 419.929688 166.804688 419.332031 167.253906 418.800781 167.785156 L 407.324219 179.214844 C 406.792969 179.75 406.347656 180.347656 405.984375 181.007812 C 405.621094 181.664062 405.355469 182.363281 405.1875 183.09375 C 405.019531 183.828125 404.953125 184.570312 404.988281 185.324219 C 405.027344 186.074219 405.167969 186.808594 405.410156 187.519531 L 409.132812 198.722656 L 398.585938 203.992188 C 397.910156 204.328125 397.289062 204.746094 396.726562 205.253906 C 396.167969 205.761719 395.6875 206.335938 395.285156 206.976562 C 394.882812 207.617188 394.578125 208.300781 394.371094 209.027344 C 394.160156 209.753906 394.054688 210.496094 394.054688 211.253906 L 394.054688 227.476562 C 394.050781 228.230469 394.148438 228.976562 394.351562 229.703125 C 394.558594 230.433594 394.859375 231.121094 395.253906 231.765625 C 395.648438 232.410156 396.128906 232.988281 396.6875 233.5 C 397.242188 234.011719 397.863281 234.4375 398.539062 234.773438 Z M 410.277344 216.265625 L 420.820312 210.992188 C 421.734375 210.535156 422.53125 209.929688 423.214844 209.167969 C 423.898438 208.410156 424.417969 207.554688 424.777344 206.597656 C 425.078125 205.785156 425.402344 204.976562 425.75 204.222656 C 426.171875 203.292969 426.410156 202.320312 426.460938 201.300781 C 426.511719 200.28125 426.375 199.289062 426.050781 198.324219 L 422.328125 187.140625 L 426.707031 182.757812 L 437.894531 186.488281 C 438.867188 186.816406 439.871094 186.953125 440.894531 186.898438 C 441.921875 186.84375 442.902344 186.601562 443.839844 186.171875 C 444.585938 185.824219 445.355469 185.515625 446.140625 185.226562 C 447.105469 184.867188 447.964844 184.34375 448.730469 183.65625 C 449.492188 182.972656 450.105469 182.167969 450.5625 181.25 L 455.835938 170.707031 L 462.03125 170.707031 L 467.304688 181.25 C 467.761719 182.167969 468.375 182.972656 469.136719 183.65625 C 469.902344 184.34375 470.761719 184.867188 471.726562 185.226562 C 472.535156 185.515625 473.28125 185.824219 474.027344 186.171875 C 474.964844 186.597656 475.945312 186.835938 476.972656 186.890625 C 477.996094 186.941406 478.996094 186.808594 479.972656 186.488281 L 491.160156 182.757812 L 495.539062 187.140625 L 491.816406 198.324219 C 491.492188 199.296875 491.355469 200.296875 491.410156 201.324219 C 491.464844 202.347656 491.707031 203.328125 492.132812 204.261719 C 492.480469 205.074219 492.789062 205.808594 493.089844 206.597656 C 493.449219 207.554688 493.96875 208.410156 494.652344 209.167969 C 495.335938 209.929688 496.132812 210.535156 497.046875 210.992188 L 507.589844 216.265625 L 507.589844 222.460938 L 497.046875 227.742188 C 496.136719 228.199219 495.339844 228.804688 494.65625 229.558594 C 493.972656 230.316406 493.449219 231.167969 493.089844 232.121094 C 492.789062 232.933594 492.464844 233.746094 492.117188 234.507812 C 491.695312 235.4375 491.457031 236.410156 491.40625 237.425781 C 491.355469 238.445312 491.492188 239.4375 491.816406 240.402344 L 495.539062 251.589844 L 491.160156 255.96875 L 479.972656 252.238281 C 478.996094 251.917969 477.996094 251.785156 476.972656 251.839844 C 475.945312 251.894531 474.964844 252.132812 474.027344 252.554688 C 473.28125 252.902344 472.511719 253.210938 471.726562 253.503906 C 470.761719 253.863281 469.902344 254.382812 469.136719 255.070312 C 468.375 255.757812 467.761719 256.558594 467.304688 257.476562 L 462.03125 268.023438 L 455.835938 268.023438 L 450.5625 257.476562 C 450.105469 256.558594 449.492188 255.757812 448.730469 255.070312 C 447.964844 254.382812 447.105469 253.863281 446.144531 253.503906 C 445.332031 253.210938 444.585938 252.902344 443.839844 252.554688 C 442.902344 252.125 441.921875 251.886719 440.894531 251.832031 C 439.871094 251.777344 438.867188 251.910156 437.894531 252.238281 L 426.707031 255.96875 L 422.328125 251.582031 L 426.050781 240.402344 C 426.378906 239.425781 426.515625 238.417969 426.460938 237.386719 C 426.402344 236.355469 426.160156 235.371094 425.726562 234.433594 C 425.378906 233.6875 425.070312 232.910156 424.777344 232.128906 C 424.417969 231.175781 423.898438 230.316406 423.214844 229.558594 C 422.53125 228.800781 421.734375 228.191406 420.820312 227.734375 L 410.277344 222.460938 Z M 410.277344 216.265625 " fill-opacity="1" fill-rule="nonzero"/></g><path fill="#ffffff" d="M 280.5 332.917969 C 281.296875 332.917969 282.089844 332.878906 282.882812 332.800781 C 283.675781 332.722656 284.464844 332.605469 285.246094 332.449219 C 286.027344 332.296875 286.800781 332.101562 287.5625 331.871094 C 288.324219 331.640625 289.074219 331.371094 289.8125 331.066406 C 290.546875 330.761719 291.265625 330.421875 291.96875 330.046875 C 292.671875 329.667969 293.355469 329.261719 294.019531 328.816406 C 294.679688 328.375 295.320312 327.902344 295.9375 327.394531 C 296.550781 326.890625 297.140625 326.355469 297.707031 325.792969 C 298.269531 325.226562 298.804688 324.636719 299.308594 324.023438 C 299.816406 323.40625 300.289062 322.765625 300.730469 322.105469 C 301.175781 321.441406 301.582031 320.757812 301.960938 320.054688 C 302.335938 319.351562 302.675781 318.632812 302.980469 317.898438 C 303.285156 317.160156 303.554688 316.410156 303.785156 315.648438 C 304.015625 314.886719 304.210938 314.113281 304.363281 313.332031 C 304.519531 312.550781 304.636719 311.761719 304.714844 310.96875 C 304.792969 310.175781 304.832031 309.382812 304.832031 308.585938 C 304.832031 307.789062 304.792969 306.992188 304.714844 306.199219 C 304.636719 305.40625 304.519531 304.621094 304.363281 303.839844 C 304.210938 303.054688 304.015625 302.285156 303.785156 301.523438 C 303.554688 300.757812 303.285156 300.007812 302.980469 299.273438 C 302.675781 298.535156 302.335938 297.816406 301.960938 297.113281 C 301.582031 296.410156 301.175781 295.730469 300.730469 295.066406 C 300.289062 294.402344 299.816406 293.765625 299.308594 293.148438 C 298.804688 292.53125 298.269531 291.941406 297.707031 291.378906 C 297.140625 290.816406 296.550781 290.28125 295.9375 289.777344 C 295.320312 289.269531 294.679688 288.796875 294.019531 288.351562 C 293.355469 287.910156 292.671875 287.5 291.96875 287.125 C 291.265625 286.75 290.546875 286.410156 289.8125 286.105469 C 289.074219 285.800781 288.324219 285.53125 287.5625 285.300781 C 286.800781 285.070312 286.027344 284.875 285.246094 284.71875 C 284.464844 284.5625 283.675781 284.449219 282.882812 284.371094 C 282.089844 284.292969 281.296875 284.253906 280.5 284.253906 C 279.703125 284.253906 278.90625 284.292969 278.113281 284.371094 C 277.320312 284.449219 276.535156 284.5625 275.753906 284.71875 C 274.96875 284.875 274.199219 285.070312 273.4375 285.300781 C 272.671875 285.53125 271.925781 285.800781 271.1875 286.105469 C 270.453125 286.410156 269.730469 286.75 269.027344 287.125 C 268.324219 287.5 267.644531 287.910156 266.980469 288.351562 C 266.316406 288.796875 265.679688 289.269531 265.0625 289.777344 C 264.445312 290.28125 263.855469 290.816406 263.292969 291.378906 C 262.730469 291.941406 262.195312 292.53125 261.691406 293.148438 C 261.183594 293.765625 260.710938 294.402344 260.265625 295.066406 C 259.824219 295.730469 259.414062 296.410156 259.039062 297.113281 C 258.664062 297.816406 258.324219 298.535156 258.019531 299.273438 C 257.714844 300.007812 257.445312 300.757812 257.214844 301.523438 C 256.984375 302.285156 256.789062 303.054688 256.632812 303.839844 C 256.476562 304.621094 256.363281 305.40625 256.285156 306.199219 C 256.207031 306.992188 256.167969 307.789062 256.167969 308.585938 C 256.167969 309.382812 256.207031 310.175781 256.285156 310.96875 C 256.363281 311.761719 256.476562 312.550781 256.632812 313.332031 C 256.789062 314.113281 256.984375 314.886719 257.214844 315.648438 C 257.445312 316.410156 257.714844 317.160156 258.019531 317.898438 C 258.324219 318.632812 258.664062 319.351562 259.039062 320.054688 C 259.414062 320.757812 259.824219 321.441406 260.265625 322.105469 C 260.710938 322.765625 261.183594 323.40625 261.691406 324.023438 C 262.195312 324.636719 262.730469 325.226562 263.292969 325.792969 C 263.855469 326.355469 264.445312 326.890625 265.0625 327.394531 C 265.679688 327.902344 266.316406 328.375 266.980469 328.816406 C 267.644531 329.261719 268.324219 329.667969 269.027344 330.046875 C 269.730469 330.421875 270.453125 330.761719 271.1875 331.066406 C 271.925781 331.371094 272.671875 331.640625 273.4375 331.871094 C 274.199219 332.101562 274.96875 332.296875 275.753906 332.449219 C 276.535156 332.605469 277.320312 332.722656 278.113281 332.800781 C 278.90625 332.878906 279.703125 332.917969 280.5 332.917969 Z M 280.5 300.472656 C 281.03125 300.472656 281.558594 300.527344 282.082031 300.628906 C 282.605469 300.734375 283.109375 300.886719 283.601562 301.089844 C 284.09375 301.296875 284.5625 301.546875 285.003906 301.839844 C 285.449219 302.136719 285.859375 302.472656 286.234375 302.851562 C 286.613281 303.226562 286.949219 303.636719 287.242188 304.078125 C 287.539062 304.523438 287.789062 304.988281 287.992188 305.480469 C 288.195312 305.972656 288.351562 306.480469 288.453125 307.003906 C 288.558594 307.523438 288.609375 308.050781 288.609375 308.585938 C 288.609375 309.117188 288.558594 309.644531 288.453125 310.167969 C 288.351562 310.691406 288.195312 311.195312 287.992188 311.6875 C 287.789062 312.179688 287.539062 312.648438 287.242188 313.089844 C 286.949219 313.535156 286.613281 313.945312 286.234375 314.320312 C 285.859375 314.695312 285.449219 315.035156 285.003906 315.328125 C 284.5625 315.625 284.09375 315.875 283.601562 316.078125 C 283.109375 316.28125 282.605469 316.4375 282.082031 316.539062 C 281.558594 316.644531 281.03125 316.695312 280.5 316.695312 C 279.96875 316.695312 279.4375 316.644531 278.917969 316.539062 C 278.394531 316.4375 277.886719 316.28125 277.394531 316.078125 C 276.902344 315.875 276.4375 315.625 275.992188 315.328125 C 275.550781 315.035156 275.140625 314.695312 274.765625 314.320312 C 274.386719 313.945312 274.050781 313.535156 273.753906 313.089844 C 273.460938 312.648438 273.210938 312.179688 273.003906 311.6875 C 272.800781 311.195312 272.648438 310.691406 272.542969 310.167969 C 272.441406 309.644531 272.386719 309.117188 272.386719 308.585938 C 272.386719 308.050781 272.441406 307.523438 272.542969 307.003906 C 272.648438 306.480469 272.800781 305.972656 273.003906 305.480469 C 273.210938 304.988281 273.460938 304.523438 273.753906 304.078125 C 274.050781 303.636719 274.386719 303.226562 274.765625 302.851562 C 275.140625 302.472656 275.550781 302.136719 275.992188 301.839844 C 276.4375 301.546875 276.902344 301.296875 277.394531 301.089844 C 277.886719 300.886719 278.394531 300.734375 278.917969 300.628906 C 279.4375 300.527344 279.96875 300.472656 280.5 300.472656 Z M 280.5 300.472656 " fill-opacity="1" fill-rule="nonzero"/><path fill="#ffffff" d="M 220.097656 323.996094 L 230.640625 329.269531 L 226.964844 340.429688 C 226.726562 341.144531 226.589844 341.878906 226.554688 342.628906 C 226.523438 343.382812 226.589844 344.125 226.765625 344.859375 C 226.9375 345.59375 227.207031 346.289062 227.574219 346.949219 C 227.9375 347.605469 228.390625 348.203125 228.921875 348.734375 L 240.398438 360.203125 C 240.929688 360.734375 241.527344 361.183594 242.183594 361.550781 C 242.84375 361.917969 243.535156 362.1875 244.269531 362.359375 C 245.003906 362.53125 245.746094 362.601562 246.496094 362.566406 C 247.25 362.53125 247.980469 362.398438 248.695312 362.160156 L 259.898438 358.433594 L 265.167969 368.980469 C 265.503906 369.652344 265.925781 370.265625 266.429688 370.820312 C 266.933594 371.375 267.503906 371.851562 268.144531 372.25 C 268.78125 372.644531 269.460938 372.949219 270.179688 373.15625 C 270.902344 373.363281 271.636719 373.46875 272.386719 373.472656 L 288.609375 373.472656 C 289.363281 373.472656 290.101562 373.371094 290.828125 373.164062 C 291.554688 372.960938 292.238281 372.660156 292.878906 372.261719 C 293.519531 371.867188 294.09375 371.390625 294.601562 370.832031 C 295.109375 370.277344 295.53125 369.660156 295.871094 368.988281 L 301.140625 358.445312 L 312.34375 362.167969 C 313.058594 362.40625 313.789062 362.539062 314.542969 362.574219 C 315.292969 362.609375 316.035156 362.539062 316.769531 362.367188 C 317.503906 362.195312 318.199219 361.925781 318.855469 361.558594 C 319.511719 361.191406 320.109375 360.742188 320.640625 360.210938 L 332.117188 348.742188 C 332.652344 348.210938 333.101562 347.613281 333.46875 346.957031 C 333.832031 346.296875 334.101562 345.601562 334.277344 344.867188 C 334.449219 344.132812 334.515625 343.390625 334.484375 342.636719 C 334.449219 341.886719 334.3125 341.152344 334.074219 340.4375 L 330.351562 329.242188 L 340.894531 323.964844 C 341.570312 323.628906 342.1875 323.203125 342.742188 322.695312 C 343.300781 322.1875 343.777344 321.613281 344.175781 320.96875 C 344.570312 320.328125 344.875 319.644531 345.078125 318.917969 C 345.285156 318.191406 345.386719 317.449219 345.386719 316.695312 L 345.386719 300.472656 C 345.386719 299.71875 345.285156 298.980469 345.078125 298.257812 C 344.875 297.53125 344.574219 296.847656 344.175781 296.207031 C 343.78125 295.566406 343.304688 294.992188 342.746094 294.484375 C 342.191406 293.972656 341.578125 293.550781 340.902344 293.214844 L 330.359375 287.941406 L 334.082031 276.742188 C 334.320312 276.027344 334.457031 275.292969 334.492188 274.539062 C 334.527344 273.789062 334.457031 273.042969 334.285156 272.3125 C 334.109375 271.578125 333.839844 270.882812 333.476562 270.222656 C 333.109375 269.5625 332.660156 268.96875 332.125 268.4375 L 320.648438 256.964844 C 320.117188 256.433594 319.519531 255.984375 318.863281 255.621094 C 318.207031 255.253906 317.511719 254.984375 316.777344 254.8125 C 316.046875 254.636719 315.300781 254.570312 314.550781 254.601562 C 313.796875 254.636719 313.066406 254.773438 312.351562 255.011719 L 301.148438 258.734375 L 295.878906 248.191406 C 295.542969 247.515625 295.117188 246.898438 294.609375 246.339844 C 294.101562 245.785156 293.527344 245.304688 292.882812 244.910156 C 292.242188 244.511719 291.558594 244.210938 290.832031 244.003906 C 290.105469 243.800781 289.363281 243.695312 288.609375 243.695312 L 272.386719 243.695312 C 271.632812 243.695312 270.894531 243.800781 270.171875 244.003906 C 269.445312 244.210938 268.761719 244.511719 268.121094 244.90625 C 267.480469 245.304688 266.90625 245.78125 266.398438 246.335938 C 265.886719 246.894531 265.464844 247.507812 265.128906 248.183594 L 259.855469 258.726562 L 248.65625 255.050781 C 247.941406 254.8125 247.207031 254.679688 246.457031 254.644531 C 245.703125 254.609375 244.960938 254.679688 244.230469 254.851562 C 243.496094 255.023438 242.800781 255.292969 242.144531 255.660156 C 241.484375 256.027344 240.890625 256.476562 240.359375 257.007812 L 228.882812 268.4375 C 228.351562 268.972656 227.90625 269.566406 227.542969 270.226562 C 227.179688 270.886719 226.914062 271.582031 226.746094 272.316406 C 226.574219 273.050781 226.511719 273.792969 226.546875 274.542969 C 226.585938 275.296875 226.726562 276.027344 226.964844 276.742188 L 230.691406 287.941406 L 220.144531 293.214844 C 219.464844 293.546875 218.847656 293.96875 218.285156 294.476562 C 217.722656 294.980469 217.242188 295.554688 216.84375 296.199219 C 216.441406 296.839844 216.136719 297.523438 215.929688 298.25 C 215.71875 298.976562 215.613281 299.71875 215.609375 300.472656 L 215.609375 316.695312 C 215.605469 317.453125 215.707031 318.195312 215.910156 318.925781 C 216.113281 319.65625 216.414062 320.339844 216.8125 320.988281 C 217.207031 321.632812 217.683594 322.210938 218.242188 322.722656 C 218.800781 323.234375 219.417969 323.65625 220.097656 323.996094 Z M 231.832031 305.488281 L 242.378906 300.214844 C 243.289062 299.757812 244.089844 299.148438 244.773438 298.390625 C 245.453125 297.632812 245.976562 296.773438 246.335938 295.820312 C 246.636719 295.007812 246.960938 294.195312 247.308594 293.441406 C 247.730469 292.511719 247.96875 291.539062 248.019531 290.523438 C 248.070312 289.503906 247.933594 288.511719 247.609375 287.546875 L 243.886719 276.359375 L 248.265625 271.980469 L 259.453125 275.710938 C 260.425781 276.039062 261.425781 276.171875 262.453125 276.117188 C 263.480469 276.0625 264.460938 275.824219 265.398438 275.394531 C 266.144531 275.046875 266.914062 274.738281 267.699219 274.445312 C 268.660156 274.085938 269.523438 273.566406 270.289062 272.878906 C 271.050781 272.191406 271.660156 271.390625 272.121094 270.472656 L 277.394531 259.925781 L 283.589844 259.925781 L 288.863281 270.472656 C 289.320312 271.390625 289.929688 272.191406 290.695312 272.878906 C 291.457031 273.566406 292.320312 274.085938 293.28125 274.445312 C 294.09375 274.738281 294.839844 275.046875 295.585938 275.394531 C 296.523438 275.816406 297.503906 276.054688 298.527344 276.109375 C 299.554688 276.164062 300.554688 276.03125 301.53125 275.710938 L 312.714844 271.980469 L 317.097656 276.359375 L 313.375 287.546875 C 313.046875 288.519531 312.914062 289.519531 312.96875 290.542969 C 313.023438 291.570312 313.261719 292.546875 313.691406 293.484375 C 314.039062 294.253906 314.347656 295.03125 314.648438 295.820312 C 315.007812 296.773438 315.527344 297.632812 316.210938 298.390625 C 316.894531 299.148438 317.691406 299.757812 318.605469 300.214844 L 329.148438 305.488281 L 329.148438 311.683594 L 318.605469 316.964844 C 317.695312 317.417969 316.894531 318.023438 316.214844 318.78125 C 315.53125 319.535156 315.007812 320.390625 314.648438 321.34375 C 314.347656 322.15625 314.023438 322.964844 313.671875 323.726562 C 313.253906 324.65625 313.015625 325.628906 312.964844 326.648438 C 312.910156 327.667969 313.046875 328.660156 313.375 329.625 L 317.097656 340.808594 L 312.714844 345.191406 L 301.53125 341.460938 C 300.554688 341.140625 299.554688 341.003906 298.527344 341.058594 C 297.503906 341.113281 296.523438 341.351562 295.585938 341.777344 C 294.839844 342.125 294.070312 342.433594 293.28125 342.722656 C 292.320312 343.082031 291.457031 343.605469 290.695312 344.292969 C 289.929688 344.976562 289.320312 345.78125 288.863281 346.699219 L 283.589844 357.242188 L 277.402344 357.242188 L 272.128906 346.699219 C 271.671875 345.78125 271.058594 344.976562 270.296875 344.292969 C 269.53125 343.605469 268.671875 343.082031 267.707031 342.722656 C 266.898438 342.433594 266.152344 342.125 265.40625 341.777344 C 264.46875 341.347656 263.488281 341.105469 262.460938 341.050781 C 261.433594 340.996094 260.433594 341.132812 259.460938 341.460938 L 248.273438 345.191406 L 243.894531 340.800781 L 247.617188 329.625 C 247.945312 328.644531 248.082031 327.640625 248.023438 326.609375 C 247.96875 325.578125 247.726562 324.59375 247.292969 323.65625 C 246.945312 322.910156 246.636719 322.128906 246.34375 321.351562 C 245.984375 320.394531 245.464844 319.539062 244.78125 318.78125 C 244.097656 318.019531 243.296875 317.414062 242.386719 316.957031 L 231.832031 311.683594 Z M 231.832031 305.488281 " fill-opacity="1" fill-rule="nonzero"/><path fill="#ffffff" d="M 613.050781 308.585938 C 613.050781 309.382812 613.089844 310.175781 613.167969 310.96875 C 613.246094 311.761719 613.363281 312.550781 613.519531 313.332031 C 613.675781 314.113281 613.867188 314.886719 614.097656 315.648438 C 614.332031 316.410156 614.597656 317.160156 614.902344 317.898438 C 615.207031 318.632812 615.546875 319.351562 615.925781 320.054688 C 616.300781 320.757812 616.710938 321.441406 617.152344 322.105469 C 617.59375 322.765625 618.070312 323.40625 618.574219 324.023438 C 619.078125 324.636719 619.613281 325.226562 620.179688 325.792969 C 620.742188 326.355469 621.332031 326.890625 621.949219 327.394531 C 622.5625 327.902344 623.203125 328.375 623.867188 328.816406 C 624.527344 329.261719 625.210938 329.667969 625.914062 330.046875 C 626.617188 330.421875 627.335938 330.761719 628.070312 331.066406 C 628.808594 331.371094 629.558594 331.640625 630.320312 331.871094 C 631.082031 332.101562 631.855469 332.296875 632.636719 332.449219 C 633.417969 332.605469 634.207031 332.722656 635 332.800781 C 635.792969 332.878906 636.585938 332.917969 637.382812 332.917969 C 638.179688 332.917969 638.976562 332.878906 639.769531 332.800781 C 640.5625 332.722656 641.347656 332.605469 642.132812 332.449219 C 642.914062 332.296875 643.683594 332.101562 644.449219 331.871094 C 645.210938 331.640625 645.960938 331.371094 646.695312 331.066406 C 647.433594 330.761719 648.152344 330.421875 648.855469 330.046875 C 649.558594 329.667969 650.238281 329.261719 650.902344 328.816406 C 651.566406 328.375 652.203125 327.902344 652.820312 327.394531 C 653.4375 326.890625 654.027344 326.355469 654.589844 325.792969 C 655.152344 325.226562 655.6875 324.636719 656.195312 324.023438 C 656.699219 323.40625 657.171875 322.765625 657.617188 322.105469 C 658.058594 321.441406 658.46875 320.757812 658.84375 320.054688 C 659.21875 319.351562 659.558594 318.632812 659.863281 317.898438 C 660.167969 317.160156 660.4375 316.410156 660.667969 315.648438 C 660.902344 314.886719 661.09375 314.113281 661.25 313.332031 C 661.40625 312.550781 661.523438 311.761719 661.601562 310.96875 C 661.679688 310.175781 661.71875 309.382812 661.71875 308.585938 C 661.71875 307.789062 661.679688 306.992188 661.601562 306.199219 C 661.523438 305.40625 661.40625 304.621094 661.25 303.839844 C 661.09375 303.054688 660.902344 302.285156 660.667969 301.523438 C 660.4375 300.757812 660.167969 300.007812 659.863281 299.273438 C 659.558594 298.535156 659.21875 297.816406 658.84375 297.113281 C 658.46875 296.410156 658.058594 295.730469 657.617188 295.066406 C 657.171875 294.402344 656.699219 293.765625 656.195312 293.148438 C 655.6875 292.53125 655.152344 291.941406 654.589844 291.378906 C 654.027344 290.816406 653.4375 290.28125 652.820312 289.777344 C 652.203125 289.269531 651.566406 288.796875 650.902344 288.351562 C 650.238281 287.910156 649.558594 287.5 648.855469 287.125 C 648.152344 286.75 647.433594 286.410156 646.695312 286.105469 C 645.960938 285.800781 645.210938 285.53125 644.449219 285.300781 C 643.683594 285.070312 642.914062 284.875 642.132812 284.71875 C 641.347656 284.5625 640.5625 284.449219 639.769531 284.371094 C 638.976562 284.292969 638.179688 284.253906 637.382812 284.253906 C 636.585938 284.253906 635.792969 284.292969 635 284.371094 C 634.207031 284.449219 633.417969 284.5625 632.636719 284.71875 C 631.855469 284.875 631.082031 285.070312 630.320312 285.300781 C 629.558594 285.53125 628.808594 285.800781 628.070312 286.105469 C 627.335938 286.410156 626.617188 286.75 625.914062 287.125 C 625.210938 287.5 624.527344 287.910156 623.867188 288.351562 C 623.203125 288.796875 622.5625 289.269531 621.949219 289.777344 C 621.332031 290.28125 620.742188 290.816406 620.179688 291.378906 C 619.613281 291.941406 619.078125 292.53125 618.574219 293.148438 C 618.070312 293.765625 617.59375 294.402344 617.152344 295.066406 C 616.710938 295.730469 616.300781 296.410156 615.925781 297.113281 C 615.546875 297.816406 615.207031 298.535156 614.902344 299.273438 C 614.597656 300.007812 614.332031 300.757812 614.097656 301.523438 C 613.867188 302.285156 613.675781 303.054688 613.519531 303.839844 C 613.363281 304.621094 613.246094 305.40625 613.167969 306.199219 C 613.089844 306.992188 613.050781 307.789062 613.050781 308.585938 Z M 645.496094 308.585938 C 645.496094 309.117188 645.441406 309.644531 645.339844 310.167969 C 645.234375 310.691406 645.082031 311.195312 644.878906 311.6875 C 644.671875 312.179688 644.425781 312.648438 644.128906 313.089844 C 643.832031 313.535156 643.496094 313.945312 643.121094 314.320312 C 642.742188 314.695312 642.332031 315.035156 641.890625 315.328125 C 641.449219 315.625 640.980469 315.875 640.488281 316.078125 C 639.996094 316.28125 639.488281 316.4375 638.964844 316.539062 C 638.445312 316.644531 637.917969 316.695312 637.382812 316.695312 C 636.851562 316.695312 636.324219 316.644531 635.800781 316.539062 C 635.277344 316.4375 634.773438 316.28125 634.28125 316.078125 C 633.789062 315.875 633.320312 315.625 632.878906 315.328125 C 632.433594 315.035156 632.023438 314.695312 631.648438 314.320312 C 631.273438 313.945312 630.9375 313.535156 630.640625 313.089844 C 630.34375 312.648438 630.09375 312.179688 629.890625 311.6875 C 629.6875 311.195312 629.53125 310.691406 629.429688 310.167969 C 629.324219 309.644531 629.273438 309.117188 629.273438 308.585938 C 629.273438 308.050781 629.324219 307.523438 629.429688 307.003906 C 629.53125 306.480469 629.6875 305.972656 629.890625 305.480469 C 630.09375 304.988281 630.34375 304.523438 630.640625 304.078125 C 630.9375 303.636719 631.273438 303.226562 631.648438 302.851562 C 632.023438 302.472656 632.433594 302.136719 632.878906 301.839844 C 633.320312 301.546875 633.789062 301.296875 634.28125 301.089844 C 634.773438 300.886719 635.277344 300.734375 635.800781 300.628906 C 636.324219 300.527344 636.851562 300.472656 637.382812 300.472656 C 637.917969 300.472656 638.445312 300.527344 638.964844 300.628906 C 639.488281 300.734375 639.996094 300.886719 640.488281 301.089844 C 640.980469 301.296875 641.449219 301.546875 641.890625 301.839844 C 642.332031 302.136719 642.742188 302.472656 643.121094 302.851562 C 643.496094 303.226562 643.832031 303.636719 644.128906 304.078125 C 644.425781 304.523438 644.671875 304.988281 644.878906 305.480469 C 645.082031 305.972656 645.234375 306.480469 645.339844 307.003906 C 645.441406 307.523438 645.496094 308.050781 645.496094 308.585938 Z M 645.496094 308.585938 " fill-opacity="1" fill-rule="nonzero"/><path fill="#ffffff" d="M 629.273438 243.695312 C 628.515625 243.691406 627.773438 243.792969 627.042969 243.996094 C 626.316406 244.199219 625.628906 244.5 624.984375 244.898438 C 624.335938 245.292969 623.757812 245.769531 623.246094 246.328125 C 622.738281 246.886719 622.3125 247.503906 621.972656 248.183594 L 616.699219 258.726562 L 605.539062 255.050781 C 604.824219 254.8125 604.09375 254.679688 603.339844 254.644531 C 602.589844 254.609375 601.847656 254.679688 601.113281 254.851562 C 600.382812 255.023438 599.6875 255.292969 599.027344 255.660156 C 598.371094 256.027344 597.773438 256.476562 597.242188 257.007812 L 585.765625 268.4375 C 585.234375 268.96875 584.785156 269.5625 584.417969 270.222656 C 584.050781 270.882812 583.78125 271.578125 583.609375 272.3125 C 583.433594 273.042969 583.367188 273.789062 583.402344 274.539062 C 583.433594 275.292969 583.570312 276.027344 583.8125 276.742188 L 587.535156 287.941406 L 576.988281 293.214844 C 576.316406 293.550781 575.699219 293.972656 575.140625 294.480469 C 574.585938 294.988281 574.105469 295.5625 573.710938 296.207031 C 573.3125 296.847656 573.011719 297.53125 572.804688 298.253906 C 572.597656 298.980469 572.496094 299.71875 572.496094 300.472656 L 572.496094 316.695312 C 572.496094 317.449219 572.597656 318.1875 572.804688 318.914062 C 573.007812 319.640625 573.3125 320.320312 573.707031 320.964844 C 574.101562 321.605469 574.578125 322.179688 575.136719 322.6875 C 575.691406 323.195312 576.308594 323.617188 576.980469 323.957031 L 587.527344 329.234375 L 583.800781 340.429688 C 583.5625 341.144531 583.425781 341.878906 583.390625 342.628906 C 583.359375 343.382812 583.425781 344.125 583.601562 344.859375 C 583.773438 345.59375 584.042969 346.289062 584.410156 346.949219 C 584.773438 347.605469 585.226562 348.203125 585.757812 348.734375 L 597.234375 360.203125 C 597.765625 360.734375 598.363281 361.183594 599.019531 361.550781 C 599.679688 361.917969 600.375 362.1875 601.105469 362.359375 C 601.839844 362.53125 602.582031 362.601562 603.332031 362.566406 C 604.085938 362.53125 604.816406 362.398438 605.53125 362.160156 L 616.734375 358.433594 L 622.003906 368.980469 C 622.34375 369.65625 622.765625 370.273438 623.273438 370.828125 C 623.78125 371.386719 624.359375 371.863281 625 372.261719 C 625.640625 372.65625 626.324219 372.960938 627.050781 373.164062 C 627.777344 373.371094 628.519531 373.472656 629.273438 373.472656 L 645.496094 373.472656 C 646.253906 373.476562 646.996094 373.378906 647.722656 373.171875 C 648.453125 372.96875 649.140625 372.667969 649.785156 372.273438 C 650.429688 371.875 651.007812 371.398438 651.519531 370.839844 C 652.03125 370.28125 652.457031 369.664062 652.796875 368.988281 L 658.066406 358.445312 L 669.269531 362.167969 C 669.984375 362.40625 670.714844 362.539062 671.46875 362.574219 C 672.21875 362.609375 672.960938 362.539062 673.695312 362.367188 C 674.425781 362.195312 675.121094 361.925781 675.78125 361.558594 C 676.4375 361.191406 677.035156 360.742188 677.566406 360.210938 L 689.042969 348.742188 C 689.574219 348.210938 690.027344 347.613281 690.390625 346.957031 C 690.757812 346.296875 691.027344 345.601562 691.199219 344.867188 C 691.375 344.132812 691.441406 343.390625 691.40625 342.636719 C 691.375 341.886719 691.238281 341.152344 690.996094 340.4375 L 687.273438 329.242188 L 697.820312 323.964844 C 698.492188 323.625 699.105469 323.199219 699.65625 322.691406 C 700.210938 322.179688 700.683594 321.605469 701.078125 320.960938 C 701.46875 320.320312 701.769531 319.636719 701.972656 318.914062 C 702.175781 318.1875 702.273438 317.449219 702.273438 316.695312 L 702.273438 300.472656 C 702.273438 299.71875 702.167969 298.980469 701.964844 298.257812 C 701.757812 297.53125 701.457031 296.847656 701.0625 296.207031 C 700.664062 295.566406 700.1875 294.992188 699.632812 294.484375 C 699.074219 293.972656 698.460938 293.550781 697.785156 293.214844 L 687.242188 287.941406 L 690.964844 276.742188 C 691.203125 276.027344 691.339844 275.292969 691.375 274.539062 C 691.410156 273.789062 691.339844 273.042969 691.167969 272.3125 C 690.996094 271.578125 690.726562 270.882812 690.359375 270.222656 C 689.992188 269.5625 689.542969 268.96875 689.011719 268.4375 L 677.535156 256.964844 C 677 256.433594 676.40625 255.984375 675.746094 255.621094 C 675.089844 255.253906 674.394531 254.984375 673.664062 254.8125 C 672.929688 254.636719 672.1875 254.570312 671.433594 254.601562 C 670.683594 254.636719 669.949219 254.773438 669.234375 255.011719 L 658.035156 258.734375 L 652.761719 248.191406 C 652.425781 247.515625 652.003906 246.898438 651.496094 246.339844 C 650.984375 245.785156 650.410156 245.304688 649.769531 244.910156 C 649.125 244.511719 648.441406 244.210938 647.714844 244.003906 C 646.992188 243.800781 646.25 243.695312 645.496094 243.695312 Z M 650.175781 274.445312 C 650.984375 274.738281 651.734375 275.046875 652.480469 275.394531 C 653.414062 275.816406 654.394531 276.054688 655.421875 276.109375 C 656.449219 276.164062 657.449219 276.03125 658.425781 275.710938 L 669.609375 271.980469 L 673.988281 276.359375 L 670.265625 287.546875 C 669.941406 288.519531 669.804688 289.519531 669.859375 290.542969 C 669.914062 291.570312 670.15625 292.546875 670.582031 293.484375 C 670.929688 294.253906 671.238281 295.03125 671.539062 295.820312 C 671.898438 296.773438 672.421875 297.632812 673.105469 298.390625 C 673.785156 299.148438 674.585938 299.757812 675.496094 300.214844 L 686.042969 305.488281 L 686.042969 311.683594 L 675.496094 316.964844 C 674.585938 317.417969 673.789062 318.023438 673.105469 318.78125 C 672.421875 319.535156 671.902344 320.390625 671.539062 321.34375 C 671.246094 322.15625 670.9375 322.910156 670.589844 323.671875 C 670.15625 324.605469 669.914062 325.589844 669.855469 326.617188 C 669.800781 327.644531 669.9375 328.648438 670.265625 329.625 L 673.988281 340.808594 L 669.609375 345.191406 L 658.425781 341.460938 C 657.449219 341.140625 656.449219 341.003906 655.421875 341.058594 C 654.394531 341.113281 653.414062 341.351562 652.480469 341.777344 C 651.734375 342.125 650.960938 342.433594 650.175781 342.722656 C 649.214844 343.082031 648.351562 343.605469 647.585938 344.292969 C 646.824219 344.976562 646.214844 345.78125 645.753906 346.699219 L 640.484375 357.242188 L 634.285156 357.242188 L 629.011719 346.699219 C 628.554688 345.78125 627.945312 344.976562 627.179688 344.292969 C 626.417969 343.605469 625.554688 343.082031 624.59375 342.722656 C 623.78125 342.433594 623.035156 342.125 622.289062 341.777344 C 621.355469 341.347656 620.375 341.105469 619.347656 341.050781 C 618.320312 340.996094 617.320312 341.132812 616.34375 341.460938 L 605.160156 345.191406 L 600.777344 340.808594 L 604.5 329.625 C 604.828125 328.660156 604.964844 327.667969 604.910156 326.648438 C 604.859375 325.628906 604.625 324.65625 604.203125 323.726562 C 603.851562 322.917969 603.527344 322.105469 603.230469 321.34375 C 602.867188 320.390625 602.34375 319.535156 601.660156 318.78125 C 600.980469 318.023438 600.183594 317.417969 599.269531 316.964844 L 588.71875 311.683594 L 588.71875 305.488281 L 599.261719 300.214844 C 600.175781 299.757812 600.972656 299.148438 601.65625 298.390625 C 602.339844 297.632812 602.859375 296.773438 603.21875 295.820312 C 603.527344 295.007812 603.851562 294.195312 604.203125 293.433594 C 604.617188 292.503906 604.851562 291.53125 604.902344 290.515625 C 604.953125 289.5 604.816406 288.511719 604.492188 287.546875 L 600.769531 276.359375 L 605.152344 271.980469 L 616.335938 275.710938 C 617.3125 276.039062 618.3125 276.171875 619.339844 276.117188 C 620.367188 276.0625 621.347656 275.824219 622.28125 275.394531 C 623.027344 275.046875 623.796875 274.738281 624.585938 274.445312 C 625.546875 274.085938 626.410156 273.566406 627.171875 272.878906 C 627.9375 272.191406 628.546875 271.390625 629.003906 270.472656 L 634.277344 259.925781 L 640.472656 259.925781 L 645.746094 270.472656 C 646.207031 271.390625 646.820312 272.191406 647.582031 272.878906 C 648.347656 273.566406 649.210938 274.089844 650.175781 274.445312 Z M 650.175781 274.445312 " fill-opacity="1" fill-rule="nonzero"/><g clip-path="url(#64cb36f88f)"><path fill="#ffffff" d="M 594.972656 462.085938 L 522.476562 487.027344 L 395.40625 487.027344 L 323.398438 462.273438 C 322.769531 462.011719 322.125 461.78125 321.472656 461.582031 C 320.820312 461.382812 320.160156 461.214844 319.492188 461.078125 C 318.824219 460.941406 318.148438 460.835938 317.472656 460.765625 C 316.792969 460.695312 316.113281 460.65625 315.429688 460.648438 C 314.746094 460.640625 314.066406 460.667969 313.386719 460.726562 C 312.707031 460.785156 312.03125 460.875 311.359375 461 C 310.6875 461.125 310.023438 461.277344 309.367188 461.464844 C 308.710938 461.652344 308.066406 461.871094 307.429688 462.121094 C 306.796875 462.371094 306.171875 462.648438 305.566406 462.957031 C 304.957031 463.265625 304.363281 463.601562 303.789062 463.96875 C 303.210938 464.335938 302.652344 464.726562 302.113281 465.144531 C 301.578125 465.5625 301.058594 466.007812 300.5625 466.476562 C 300.066406 466.945312 299.59375 467.4375 299.144531 467.949219 C 298.695312 468.464844 298.273438 469 297.875 469.554688 C 297.476562 470.105469 297.105469 470.679688 296.761719 471.269531 C 296.421875 471.859375 296.105469 472.464844 295.820312 473.085938 C 294.652344 475.691406 294.054688 478.425781 294.035156 481.285156 C 294.046875 482.300781 294.128906 483.3125 294.285156 484.320312 C 294.441406 485.324219 294.671875 486.3125 294.976562 487.285156 C 295.277344 488.257812 295.652344 489.203125 296.09375 490.117188 C 296.535156 491.035156 297.042969 491.914062 297.613281 492.757812 C 298.1875 493.597656 298.816406 494.394531 299.507812 495.144531 C 300.195312 495.890625 300.933594 496.585938 301.726562 497.226562 C 302.519531 497.867188 303.351562 498.445312 304.226562 498.960938 C 305.105469 499.480469 306.015625 499.929688 306.957031 500.3125 L 383.695312 532.066406 L 385.984375 535.3125 L 385.984375 633.027344 C 385.984375 633.558594 386.035156 634.085938 386.140625 634.609375 C 386.242188 635.128906 386.398438 635.636719 386.601562 636.128906 C 386.804688 636.621094 387.054688 637.089844 387.351562 637.53125 C 387.644531 637.976562 387.980469 638.382812 388.359375 638.761719 C 388.734375 639.136719 389.144531 639.472656 389.589844 639.769531 C 390.03125 640.066406 390.5 640.316406 390.988281 640.519531 C 391.480469 640.722656 391.988281 640.875 392.511719 640.980469 C 393.035156 641.085938 393.5625 641.136719 394.09375 641.136719 L 523.828125 641.136719 C 524.363281 641.136719 524.890625 641.085938 525.414062 640.980469 C 525.933594 640.875 526.441406 640.722656 526.933594 640.519531 C 527.425781 640.316406 527.894531 640.066406 528.335938 639.769531 C 528.777344 639.472656 529.1875 639.136719 529.566406 638.761719 C 529.941406 638.382812 530.277344 637.976562 530.574219 637.53125 C 530.871094 637.089844 531.121094 636.621094 531.324219 636.128906 C 531.527344 635.636719 531.679688 635.128906 531.785156 634.609375 C 531.890625 634.085938 531.941406 633.558594 531.941406 633.027344 L 531.941406 535.3125 L 534.226562 532.066406 L 610.984375 500.304688 C 612.273438 499.777344 613.5 499.128906 614.660156 498.351562 C 615.824219 497.578125 616.894531 496.695312 617.878906 495.703125 C 618.859375 494.714844 619.734375 493.632812 620.496094 492.46875 C 621.261719 491.300781 621.902344 490.066406 622.417969 488.769531 C 622.921875 487.515625 623.292969 486.21875 623.535156 484.886719 C 623.777344 483.554688 623.882812 482.214844 623.855469 480.859375 C 623.824219 479.507812 623.660156 478.171875 623.363281 476.851562 C 623.0625 475.53125 622.636719 474.253906 622.078125 473.019531 C 621.800781 472.40625 621.492188 471.8125 621.15625 471.226562 C 620.820312 470.644531 620.460938 470.078125 620.070312 469.53125 C 619.683594 468.984375 619.265625 468.453125 618.828125 467.945312 C 618.386719 467.4375 617.925781 466.949219 617.441406 466.484375 C 616.953125 466.019531 616.449219 465.578125 615.921875 465.164062 C 615.394531 464.746094 614.847656 464.355469 614.28125 463.992188 C 613.71875 463.625 613.136719 463.289062 612.539062 462.980469 C 611.941406 462.671875 611.332031 462.390625 610.710938 462.136719 C 610.085938 461.886719 609.453125 461.664062 608.808594 461.472656 C 608.164062 461.28125 607.511719 461.121094 606.851562 460.992188 C 606.191406 460.863281 605.527344 460.765625 604.855469 460.699219 C 604.1875 460.636719 603.519531 460.601562 602.84375 460.597656 C 602.171875 460.597656 601.503906 460.625 600.832031 460.6875 C 600.164062 460.75 599.5 460.84375 598.835938 460.96875 C 598.175781 461.09375 597.523438 461.246094 596.878906 461.433594 C 596.230469 461.621094 595.597656 461.839844 594.972656 462.085938 Z M 607.375 482.785156 C 607.128906 483.363281 606.785156 483.875 606.335938 484.316406 C 605.886719 484.753906 605.371094 485.09375 604.785156 485.324219 L 525.875 517.980469 C 524.425781 518.582031 523.25 519.523438 522.34375 520.800781 L 517.226562 528.101562 C 516.234375 529.5 515.742188 531.058594 515.742188 532.773438 L 515.742188 624.914062 L 402.164062 624.914062 L 402.164062 532.742188 C 402.167969 531.027344 401.671875 529.46875 400.679688 528.070312 L 395.5625 520.769531 C 394.65625 519.492188 393.480469 518.550781 392.035156 517.945312 L 313.15625 485.308594 C 312.734375 485.15625 312.347656 484.945312 311.992188 484.675781 C 311.636719 484.40625 311.328125 484.089844 311.066406 483.730469 C 310.804688 483.367188 310.601562 482.976562 310.457031 482.554688 C 310.3125 482.132812 310.234375 481.699219 310.21875 481.253906 C 310.242188 480.683594 310.375 480.144531 310.617188 479.628906 C 310.773438 479.328125 310.957031 479.039062 311.171875 478.773438 C 311.386719 478.503906 311.621094 478.261719 311.882812 478.042969 C 312.144531 477.820312 312.425781 477.628906 312.726562 477.460938 C 313.027344 477.296875 313.339844 477.164062 313.667969 477.058594 C 313.992188 476.957031 314.324219 476.886719 314.664062 476.847656 C 315.007812 476.8125 315.347656 476.808594 315.6875 476.835938 C 316.027344 476.867188 316.363281 476.929688 316.691406 477.027344 C 317.019531 477.121094 317.335938 477.25 317.640625 477.40625 L 391.449219 502.796875 C 392.292969 503.085938 393.160156 503.238281 394.054688 503.25 L 523.828125 503.25 C 524.730469 503.246094 525.609375 503.101562 526.464844 502.8125 L 600.722656 477.238281 C 601.019531 477.109375 601.324219 477.011719 601.636719 476.941406 C 601.953125 476.871094 602.269531 476.832031 602.59375 476.824219 C 602.914062 476.816406 603.234375 476.839844 603.554688 476.890625 C 603.871094 476.945312 604.183594 477.027344 604.484375 477.136719 C 604.785156 477.25 605.074219 477.390625 605.351562 477.558594 C 605.625 477.726562 605.882812 477.917969 606.121094 478.136719 C 606.359375 478.351562 606.574219 478.589844 606.769531 478.847656 C 606.960938 479.105469 607.128906 479.378906 607.269531 479.671875 C 607.742188 480.695312 607.777344 481.730469 607.375 482.785156 Z M 607.375 482.785156 " fill-opacity="1" fill-rule="nonzero"/></g><path fill="#ffffff" d="M 491.386719 600.582031 L 507.609375 600.582031 L 507.609375 616.804688 L 491.386719 616.804688 Z M 491.386719 600.582031 " fill-opacity="1" fill-rule="nonzero"/><path fill="#ffffff" d="M 467.054688 600.582031 L 483.273438 600.582031 L 483.273438 616.804688 L 467.054688 616.804688 Z M 467.054688 600.582031 " fill-opacity="1" fill-rule="nonzero"/><path fill="#ffffff" d="M 491.386719 576.25 L 507.609375 576.25 L 507.609375 592.46875 L 491.386719 592.46875 Z M 491.386719 576.25 " fill-opacity="1" fill-rule="nonzero"/><path fill="#ffffff" d="M 288.253906 454.582031 C 286.082031 454.617188 283.917969 454.488281 281.765625 454.195312 C 279.609375 453.902344 277.492188 453.449219 275.40625 452.835938 C 273.324219 452.21875 271.296875 451.453125 269.328125 450.53125 C 267.359375 449.613281 265.472656 448.546875 263.664062 447.34375 C 261.855469 446.136719 260.148438 444.800781 258.546875 443.335938 C 256.941406 441.871094 255.453125 440.292969 254.085938 438.605469 C 252.71875 436.914062 251.488281 435.132812 250.390625 433.253906 C 249.296875 431.378906 248.347656 429.429688 247.542969 427.410156 C 246.6875 424.964844 246.066406 422.460938 245.679688 419.898438 C 245.296875 417.335938 245.152344 414.757812 245.246094 412.167969 C 245.34375 409.578125 245.683594 407.019531 246.257812 404.492188 C 246.835938 401.96875 247.644531 399.515625 248.679688 397.140625 L 257.527344 410.417969 L 271.027344 401.414062 L 254.804688 377.082031 C 254.082031 375.996094 253.152344 375.136719 252.015625 374.5 C 250.878906 373.863281 249.65625 373.523438 248.355469 373.472656 C 247.597656 373.527344 246.859375 373.679688 246.140625 373.9375 L 246.09375 373.714844 L 213.648438 381.828125 L 217.574219 397.5625 L 232.644531 393.800781 C 231.457031 396.933594 230.558594 400.148438 229.941406 403.445312 C 229.328125 406.738281 229.007812 410.0625 228.984375 413.414062 C 228.957031 416.765625 229.230469 420.09375 229.796875 423.398438 C 230.363281 426.703125 231.21875 429.929688 232.359375 433.082031 C 232.90625 434.472656 233.5 435.84375 234.148438 437.191406 C 234.796875 438.539062 235.496094 439.859375 236.242188 441.152344 C 236.992188 442.445312 237.785156 443.710938 238.628906 444.945312 C 239.472656 446.179688 240.363281 447.378906 241.296875 448.546875 C 242.230469 449.714844 243.207031 450.84375 244.226562 451.9375 C 245.246094 453.03125 246.304688 454.085938 247.402344 455.097656 C 248.503906 456.109375 249.636719 457.082031 250.8125 458.007812 C 251.984375 458.9375 253.1875 459.816406 254.429688 460.652344 C 255.667969 461.492188 256.9375 462.277344 258.234375 463.019531 C 259.53125 463.757812 260.859375 464.449219 262.207031 465.089844 C 263.558594 465.730469 264.933594 466.320312 266.328125 466.855469 C 267.722656 467.390625 269.136719 467.875 270.566406 468.304688 C 272 468.734375 273.445312 469.109375 274.90625 469.429688 C 276.367188 469.75 277.835938 470.015625 279.316406 470.222656 C 280.796875 470.433594 282.28125 470.585938 283.773438 470.683594 C 285.265625 470.78125 286.757812 470.820312 288.253906 470.804688 L 288.667969 470.804688 L 288.554688 454.582031 Z M 288.253906 454.582031 " fill-opacity="1" fill-rule="nonzero"/><path fill="#ffffff" d="M 704.234375 381.828125 L 671.789062 373.714844 L 671.734375 373.9375 C 671.019531 373.683594 670.285156 373.527344 669.527344 373.472656 C 668.21875 373.515625 666.992188 373.855469 665.847656 374.492188 C 664.703125 375.128906 663.765625 375.992188 663.039062 377.082031 L 646.816406 401.414062 L 660.3125 410.417969 L 669.164062 397.140625 C 670.199219 399.515625 671.007812 401.96875 671.582031 404.496094 C 672.160156 407.023438 672.496094 409.582031 672.59375 412.171875 C 672.691406 414.761719 672.546875 417.339844 672.160156 419.902344 C 671.777344 422.46875 671.15625 424.972656 670.296875 427.417969 C 669.496094 429.4375 668.546875 431.382812 667.453125 433.257812 C 666.355469 435.132812 665.125 436.914062 663.761719 438.601562 C 662.394531 440.289062 660.910156 441.867188 659.308594 443.328125 C 657.703125 444.792969 656 446.128906 654.195312 447.332031 C 652.386719 448.539062 650.503906 449.601562 648.535156 450.523438 C 646.570312 451.445312 644.546875 452.210938 642.464844 452.828125 C 640.378906 453.441406 638.265625 453.894531 636.113281 454.191406 C 633.960938 454.484375 631.800781 454.617188 629.628906 454.582031 L 629.328125 454.582031 L 629.214844 470.804688 L 629.628906 470.804688 C 631.125 470.820312 632.617188 470.78125 634.109375 470.683594 C 635.601562 470.589844 637.089844 470.4375 638.570312 470.226562 C 640.050781 470.019531 641.519531 469.753906 642.980469 469.433594 C 644.441406 469.113281 645.886719 468.738281 647.320312 468.308594 C 648.75 467.878906 650.164062 467.398438 651.558594 466.859375 C 652.957031 466.324219 654.328125 465.738281 655.679688 465.097656 C 657.03125 464.457031 658.355469 463.765625 659.65625 463.027344 C 660.953125 462.285156 662.222656 461.5 663.464844 460.660156 C 664.703125 459.824219 665.910156 458.945312 667.082031 458.015625 C 668.253906 457.089844 669.390625 456.121094 670.488281 455.105469 C 671.589844 454.09375 672.648438 453.039062 673.667969 451.945312 C 674.6875 450.851562 675.664062 449.722656 676.601562 448.554688 C 677.535156 447.390625 678.425781 446.1875 679.265625 444.953125 C 680.109375 443.71875 680.90625 442.457031 681.65625 441.160156 C 682.402344 439.867188 683.101562 438.546875 683.75 437.199219 C 684.398438 435.851562 684.996094 434.480469 685.539062 433.089844 C 686.679688 429.9375 687.535156 426.707031 688.101562 423.402344 C 688.667969 420.101562 688.941406 416.769531 688.917969 413.417969 C 688.890625 410.066406 688.574219 406.742188 687.957031 403.445312 C 687.34375 400.152344 686.441406 396.933594 685.253906 393.800781 L 700.308594 397.5625 Z M 704.234375 381.828125 " fill-opacity="1" fill-rule="nonzero"/><path fill="#ffffff" d="M 288.609375 227.476562 L 385.941406 227.476562 L 385.941406 211.253906 L 280.5 211.253906 C 279.96875 211.253906 279.4375 211.304688 278.917969 211.410156 C 278.394531 211.511719 277.886719 211.667969 277.394531 211.871094 C 276.902344 212.074219 276.4375 212.324219 275.992188 212.621094 C 275.550781 212.914062 275.140625 213.253906 274.765625 213.628906 C 274.386719 214.003906 274.050781 214.414062 273.753906 214.859375 C 273.460938 215.300781 273.210938 215.769531 273.003906 216.261719 C 272.800781 216.753906 272.648438 217.257812 272.542969 217.78125 C 272.441406 218.304688 272.386719 218.832031 272.386719 219.363281 L 272.386719 235.585938 L 288.609375 235.585938 Z M 288.609375 227.476562 " fill-opacity="1" fill-rule="nonzero"/><path fill="#ffffff" d="M 629.273438 235.585938 L 645.496094 235.585938 L 645.496094 219.363281 C 645.496094 218.832031 645.441406 218.304688 645.339844 217.78125 C 645.234375 217.257812 645.082031 216.753906 644.878906 216.261719 C 644.671875 215.769531 644.425781 215.300781 644.128906 214.859375 C 643.832031 214.414062 643.496094 214.003906 643.121094 213.628906 C 642.742188 213.253906 642.332031 212.914062 641.890625 212.621094 C 641.449219 212.324219 640.980469 212.074219 640.488281 211.871094 C 639.996094 211.667969 639.488281 211.511719 638.964844 211.410156 C 638.445312 211.304688 637.917969 211.253906 637.382812 211.253906 L 531.941406 211.253906 L 531.941406 227.476562 L 629.273438 227.476562 Z M 629.273438 235.585938 " fill-opacity="1" fill-rule="nonzero"/></svg>