<svg xmlns="http://www.w3.org/2000/svg" xmlns:xlink="http://www.w3.org/1999/xlink" width="1200" zoomAndPan="magnify" viewBox="0 0 900 809.999993" height="1080" preserveAspectRatio="xMidYMid meet" version="1.0"><defs><clipPath id="204babd779"><path d="M 73.875 31.894531 L 826 31.894531 L 826 778.105469 L 73.875 778.105469 Z M 73.875 31.894531 " clip-rule="nonzero"/></clipPath><clipPath id="980b61ac02"><path d="M 87.375 31.894531 L 812.625 31.894531 C 816.207031 31.894531 819.640625 33.316406 822.171875 35.847656 C 824.703125 38.378906 826.125 41.8125 826.125 45.394531 L 826.125 764.605469 C 826.125 768.1875 824.703125 771.621094 822.171875 774.152344 C 819.640625 776.683594 816.207031 778.105469 812.625 778.105469 L 87.375 778.105469 C 83.792969 778.105469 80.359375 776.683594 77.828125 774.152344 C 75.296875 771.621094 73.875 768.1875 73.875 764.605469 L 73.875 45.394531 C 73.875 41.8125 75.296875 38.378906 77.828125 35.847656 C 80.359375 33.316406 83.792969 31.894531 87.375 31.894531 Z M 87.375 31.894531 " clip-rule="nonzero"/></clipPath><clipPath id="a2ac2166df"><path d="M 206.667969 161.667969 L 693.332031 161.667969 L 693.332031 648.332031 L 206.667969 648.332031 Z M 206.667969 161.667969 " clip-rule="nonzero"/></clipPath></defs><g clip-path="url(#204babd779)"><g clip-path="url(#980b61ac02)"><path fill="#001b27" d="M 73.875 31.894531 L 825.917969 31.894531 L 825.917969 778.105469 L 73.875 778.105469 Z M 73.875 31.894531 " fill-opacity="1" fill-rule="nonzero"/></g></g><g clip-path="url(#a2ac2166df)"><path fill="#ffffff" d="M 267.320312 455.917969 L 214.710938 455.917969 C 210.378906 455.917969 206.867188 459.429688 206.867188 463.765625 L 206.867188 536.925781 C 206.867188 541.257812 210.378906 544.773438 214.710938 544.773438 L 267.320312 544.773438 C 271.652344 544.773438 275.164062 541.257812 275.164062 536.925781 L 275.164062 463.765625 C 275.164062 459.429688 271.652344 455.917969 267.320312 455.917969 Z M 259.472656 529.078125 L 222.558594 529.078125 L 222.558594 471.609375 L 259.472656 471.609375 Z M 381.023438 403.808594 L 328.417969 403.808594 C 324.085938 403.808594 320.570312 407.324219 320.570312 411.65625 L 320.570312 536.925781 C 320.570312 541.257812 324.085938 544.773438 328.417969 544.773438 L 381.023438 544.773438 C 385.359375 544.773438 388.871094 541.257812 388.871094 536.925781 L 388.871094 411.65625 C 388.871094 407.324219 385.359375 403.808594 381.023438 403.808594 Z M 373.179688 529.078125 L 336.261719 529.078125 L 336.261719 419.5 L 373.179688 419.5 Z M 616.28125 431.097656 L 616.28125 307.4375 C 616.28125 303.105469 612.769531 299.589844 608.433594 299.589844 L 555.828125 299.589844 C 551.496094 299.589844 547.980469 303.105469 547.980469 307.4375 L 547.980469 431.097656 C 530.589844 436.726562 515.058594 446.527344 502.578125 459.320312 L 502.578125 359.546875 C 502.578125 355.210938 499.0625 351.699219 494.730469 351.699219 L 442.121094 351.699219 C 437.789062 351.699219 434.277344 355.210938 434.277344 359.546875 L 434.277344 536.925781 C 434.277344 541.257812 437.789062 544.769531 442.121094 544.769531 L 471.214844 544.769531 C 475.253906 602.4375 523.457031 648.125 582.132812 648.125 C 643.445312 648.125 693.332031 598.238281 693.332031 536.925781 C 693.332031 487.519531 660.941406 445.542969 616.28125 431.097656 Z M 563.671875 315.285156 L 600.589844 315.285156 L 600.589844 427.265625 C 594.582031 426.261719 588.417969 425.726562 582.132812 425.726562 C 575.84375 425.726562 569.679688 426.257812 563.671875 427.265625 Z M 449.96875 367.390625 L 486.882812 367.390625 L 486.882812 479.597656 C 478.039062 494.238281 472.476562 511.074219 471.214844 529.078125 L 449.96875 529.078125 Z M 582.132812 632.429688 C 529.46875 632.429688 486.625 589.585938 486.625 536.925781 C 486.625 484.261719 529.46875 441.417969 582.132812 441.417969 C 634.792969 441.417969 677.636719 484.261719 677.636719 536.925781 C 677.636719 589.585938 634.792969 632.429688 582.132812 632.429688 Z M 582.132812 450.160156 C 534.289062 450.160156 495.367188 489.082031 495.367188 536.925781 C 495.367188 584.769531 534.289062 623.691406 582.132812 623.691406 C 629.976562 623.691406 668.898438 584.769531 668.898438 536.925781 C 668.898438 489.082031 629.972656 450.160156 582.132812 450.160156 Z M 582.132812 608 C 542.941406 608 511.058594 576.113281 511.058594 536.925781 C 511.058594 497.734375 542.941406 465.851562 582.132812 465.851562 C 621.324219 465.851562 653.207031 497.734375 653.207031 536.925781 C 653.207031 576.113281 621.320312 608 582.132812 608 Z M 615.101562 554.453125 C 615.933594 561.335938 614.078125 567.632812 609.726562 572.664062 C 605.238281 577.851562 598.125 581.484375 589.976562 582.898438 L 589.976562 586.867188 C 589.976562 591.199219 586.464844 594.710938 582.132812 594.710938 C 577.800781 594.710938 574.285156 591.199219 574.285156 586.867188 L 574.285156 582.773438 C 561.75 580.246094 552.132812 571.804688 549.199219 560.054688 C 548.152344 555.847656 550.710938 551.589844 554.914062 550.542969 C 559.117188 549.5 563.378906 552.050781 564.425781 556.257812 C 566.632812 565.097656 575.796875 568.042969 582.976562 567.859375 C 589.179688 567.710938 595.160156 565.515625 597.859375 562.398438 C 599.292969 560.738281 599.820312 558.816406 599.523438 556.34375 C 599.007812 552.113281 596.429688 546.929688 580.933594 544.386719 C 557.535156 540.542969 552.074219 528.320312 551.609375 518.742188 C 550.96875 505.539062 560.074219 494.488281 574.285156 491.210938 L 574.285156 486.984375 C 574.285156 482.652344 577.800781 479.140625 582.132812 479.140625 C 586.464844 479.140625 589.976562 482.652344 589.976562 486.984375 L 589.976562 491.140625 C 599.210938 493.15625 608.011719 498.984375 612.601562 509.914062 C 614.277344 513.910156 612.398438 518.507812 608.402344 520.1875 C 604.40625 521.863281 599.808594 519.984375 598.132812 515.988281 C 594.398438 507.101562 585.273438 504.816406 577.886719 506.484375 C 576.042969 506.90625 566.867188 509.421875 567.28125 517.984375 C 567.394531 520.261719 567.6875 526.308594 583.476562 528.898438 C 602.785156 532.066406 613.425781 540.667969 615.101562 554.453125 Z M 395.046875 301.183594 L 503.242188 238.714844 L 494.789062 261.707031 C 493.292969 265.773438 495.378906 270.285156 499.445312 271.777344 C 500.339844 272.109375 501.253906 272.265625 502.152344 272.265625 C 505.347656 272.265625 508.351562 270.296875 509.519531 267.125 L 525.449219 223.796875 C 526.253906 221.609375 526.042969 219.179688 524.878906 217.164062 C 523.714844 215.148438 521.714844 213.753906 519.421875 213.355469 L 473.933594 205.488281 C 469.664062 204.75 465.605469 207.613281 464.867188 211.882812 C 464.128906 216.15625 466.992188 220.214844 471.261719 220.953125 L 495.398438 225.125 L 384.277344 289.28125 C 373.078125 278.652344 359.554688 270.5 344.578125 265.605469 C 359.226562 255.25 368.816406 238.191406 368.816406 218.929688 C 368.816406 187.414062 343.179688 161.777344 311.667969 161.777344 C 280.152344 161.777344 254.515625 187.414062 254.515625 218.929688 C 254.515625 238.191406 264.109375 255.25 278.753906 265.605469 C 240.320312 278.167969 211.429688 312.203125 206.910156 354.417969 C 206.671875 356.632812 207.386719 358.84375 208.875 360.5 C 210.363281 362.152344 212.484375 363.101562 214.710938 363.101562 L 256.417969 363.101562 L 225.875 380.734375 C 222.121094 382.902344 220.835938 387.699219 223.003906 391.453125 C 224.457031 393.96875 227.09375 395.375 229.804688 395.375 C 231.136719 395.375 232.488281 395.039062 233.722656 394.324219 L 287.804688 363.101562 L 408.621094 363.101562 C 410.847656 363.101562 412.96875 362.15625 414.457031 360.5 C 415.945312 358.84375 416.660156 356.632812 416.421875 354.417969 C 414.273438 334.351562 406.617188 316.128906 395.046875 301.183594 Z M 270.207031 218.929688 C 270.207031 196.070312 288.804688 177.472656 311.667969 177.472656 C 334.527344 177.472656 353.125 196.070312 353.125 218.929688 C 353.125 241.78125 334.539062 260.371094 311.691406 260.386719 C 311.683594 260.386719 311.675781 260.386719 311.664062 260.386719 C 311.65625 260.386719 311.648438 260.386719 311.640625 260.386719 C 288.792969 260.371094 270.207031 241.78125 270.207031 218.929688 Z M 223.867188 347.410156 C 232.371094 306.1875 268.675781 276.085938 311.644531 276.078125 C 311.652344 276.078125 311.660156 276.078125 311.667969 276.078125 C 311.671875 276.078125 311.679688 276.078125 311.6875 276.078125 C 354.65625 276.085938 390.960938 306.1875 399.460938 347.40625 Z M 223.867188 347.410156 " fill-opacity="1" fill-rule="nonzero"/></g></svg>