<svg xmlns="http://www.w3.org/2000/svg" xmlns:xlink="http://www.w3.org/1999/xlink" width="1200" zoomAndPan="magnify" viewBox="0 0 900 809.999993" height="1080" preserveAspectRatio="xMidYMid meet" version="1.0"><defs><clipPath id="36636a8a48"><path d="M 73.875 31.894531 L 826 31.894531 L 826 778.105469 L 73.875 778.105469 Z M 73.875 31.894531 " clip-rule="nonzero"/></clipPath><clipPath id="1e628f823d"><path d="M 87.375 31.894531 L 812.625 31.894531 C 816.207031 31.894531 819.640625 33.316406 822.171875 35.847656 C 824.703125 38.378906 826.125 41.8125 826.125 45.394531 L 826.125 764.605469 C 826.125 768.1875 824.703125 771.621094 822.171875 774.152344 C 819.640625 776.683594 816.207031 778.105469 812.625 778.105469 L 87.375 778.105469 C 83.792969 778.105469 80.359375 776.683594 77.828125 774.152344 C 75.296875 771.621094 73.875 768.1875 73.875 764.605469 L 73.875 45.394531 C 73.875 41.8125 75.296875 38.378906 77.828125 35.847656 C 80.359375 33.316406 83.792969 31.894531 87.375 31.894531 Z M 87.375 31.894531 " clip-rule="nonzero"/></clipPath><clipPath id="5f26c603e9"><path d="M 220.816406 464 L 672.078125 464 L 672.078125 647.734375 L 220.816406 647.734375 Z M 220.816406 464 " clip-rule="nonzero"/></clipPath><clipPath id="8335a7baad"><path d="M 292 161.308594 L 597 161.308594 L 597 310 L 292 310 Z M 292 161.308594 " clip-rule="nonzero"/></clipPath></defs><g clip-path="url(#36636a8a48)"><g clip-path="url(#1e628f823d)"><path fill="#001b27" d="M 73.875 31.894531 L 825.917969 31.894531 L 825.917969 778.105469 L 73.875 778.105469 Z M 73.875 31.894531 " fill-opacity="1" fill-rule="nonzero"/></g></g><g clip-path="url(#5f26c603e9)"><path fill="#ffffff" d="M 345.710938 464.730469 L 367.167969 464.730469 C 370.03125 464.730469 372.527344 466.316406 373.820312 468.65625 C 383.761719 483.160156 395.136719 494.058594 407.242188 501.402344 C 419.777344 509.011719 433.117188 512.808594 446.449219 512.847656 C 459.785156 512.808594 473.125 509.011719 485.660156 501.402344 C 497.921875 493.96875 509.441406 482.871094 519.46875 468.082031 L 525.734375 472.328125 L 519.441406 468.0625 C 520.921875 465.882812 523.332031 464.71875 525.78125 464.730469 L 547.1875 464.730469 C 581.542969 464.730469 612.765625 478.78125 635.40625 501.410156 C 658.039062 524.046875 672.085938 555.269531 672.085938 589.625 L 672.085938 640.132812 C 672.085938 644.328125 668.683594 647.734375 664.484375 647.734375 L 228.417969 647.734375 C 224.21875 647.734375 220.816406 644.328125 220.816406 640.132812 L 220.816406 589.625 C 220.816406 555.269531 234.863281 524.046875 257.496094 501.410156 C 280.128906 478.78125 311.359375 464.730469 345.710938 464.730469 Z M 363.246094 479.925781 L 345.710938 479.925781 C 315.550781 479.925781 288.132812 492.273438 268.246094 512.160156 C 248.359375 532.042969 236.011719 559.46875 236.011719 589.625 L 236.011719 632.535156 L 656.886719 632.535156 L 656.886719 589.625 C 656.886719 559.46875 644.542969 532.042969 624.65625 512.160156 C 604.769531 492.273438 577.347656 479.925781 547.1875 479.925781 L 529.65625 479.925781 C 518.90625 494.921875 506.621094 506.382812 493.496094 514.347656 C 478.558594 523.40625 462.546875 527.9375 446.449219 527.988281 C 430.355469 527.9375 414.34375 523.40625 399.40625 514.347656 C 386.273438 506.382812 373.988281 494.921875 363.246094 479.925781 " fill-opacity="1" fill-rule="nonzero"/></g><path fill="#ffffff" d="M 352.300781 403.445312 C 340.324219 381.488281 331.492188 360.351562 326.792969 339.214844 C 322.019531 317.753906 321.511719 296.425781 326.285156 274.441406 C 332.847656 244.277344 353.222656 222.679688 379.617188 209.621094 C 399.582031 199.742188 423.03125 194.804688 446.449219 194.804688 L 446.449219 194.773438 C 469.828125 194.773438 493.285156 199.726562 513.285156 209.621094 C 539.675781 222.679688 560.050781 244.277344 566.609375 274.441406 C 571.390625 296.425781 570.882812 317.753906 566.109375 339.214844 C 561.410156 360.351562 552.578125 381.488281 540.601562 403.445312 C 529.078125 424.574219 514.992188 440.542969 499.542969 451.421875 C 482.941406 463.105469 464.761719 468.933594 446.449219 468.992188 C 428.140625 468.933594 409.957031 463.105469 393.359375 451.421875 C 377.917969 440.542969 363.824219 424.574219 352.300781 403.445312 Z M 341.570312 335.945312 C 345.929688 355.5625 354.257812 375.417969 365.59375 396.207031 C 375.941406 415.175781 388.460938 429.417969 402.085938 439.015625 C 416.105469 448.882812 431.292969 453.804688 446.449219 453.855469 C 461.609375 453.804688 476.796875 448.882812 490.8125 439.015625 C 504.441406 429.417969 516.953125 415.175781 527.300781 396.207031 C 538.644531 375.417969 546.964844 355.5625 551.332031 335.945312 C 555.617188 316.648438 556.078125 297.453125 551.769531 277.652344 C 546.296875 252.476562 529.015625 234.316406 506.574219 223.214844 C 488.734375 214.386719 467.628906 209.972656 446.449219 209.972656 L 446.449219 209.945312 C 425.308594 209.945312 404.207031 214.367188 386.328125 223.214844 C 363.882812 234.316406 346.605469 252.476562 341.128906 277.652344 C 336.824219 297.453125 337.277344 316.648438 341.570312 335.945312 " fill-opacity="1" fill-rule="nonzero"/><g clip-path="url(#8335a7baad)"><path fill="#ffffff" d="M 292.90625 300.976562 C 292.476562 305.140625 295.507812 308.859375 299.671875 309.289062 C 303.835938 309.714844 307.554688 306.6875 307.984375 302.523438 C 313.625 247.34375 346.398438 209.25 387.429688 190.359375 C 407.089844 181.308594 428.613281 176.640625 449.941406 176.585938 C 471.230469 176.53125 492.332031 181.0625 511.199219 190.410156 C 547.917969 208.609375 576.226562 245.328125 580.890625 302.34375 C 581.21875 306.527344 584.871094 309.648438 589.050781 309.320312 C 593.230469 308.988281 596.359375 305.335938 596.027344 301.15625 C 590.871094 238.078125 559.128906 197.242188 517.90625 176.816406 C 496.933594 166.425781 473.523438 161.386719 449.941406 161.449219 C 426.398438 161.507812 402.6875 166.636719 381.074219 176.589844 C 335.535156 197.550781 299.160156 239.804688 292.90625 300.976562 " fill-opacity="1" fill-rule="nonzero"/></g><path fill="#ffffff" d="M 299.960938 294.183594 C 305.585938 294.183594 310.75 296.378906 314.597656 299.976562 C 318.632812 303.738281 321.238281 309.050781 321.441406 315.003906 L 322.484375 345.191406 C 322.691406 351.113281 320.457031 356.570312 316.707031 360.589844 C 312.945312 364.625 307.632812 367.226562 301.679688 367.433594 C 295.757812 367.636719 290.300781 365.40625 286.28125 361.65625 C 282.253906 357.894531 279.644531 352.582031 279.4375 346.628906 L 278.402344 316.460938 L 278.378906 316.460938 C 278.371094 316.375 278.371094 316.285156 278.371094 316.199219 L 278.371094 315.992188 L 278.382812 315.828125 L 278.382812 315.769531 L 278.386719 315.683594 C 278.394531 310.054688 280.582031 304.886719 284.179688 301.039062 C 287.9375 297.015625 293.238281 294.410156 299.175781 294.199219 L 299.175781 294.175781 C 299.261719 294.167969 299.351562 294.167969 299.4375 294.167969 L 299.648438 294.167969 L 299.808594 294.179688 L 299.875 294.179688 Z M 304.273438 311.078125 C 303.160156 310.039062 301.695312 309.390625 300.109375 309.335938 L 300.105469 309.335938 L 300.089844 309.339844 L 299.917969 309.351562 L 299.890625 309.351562 L 299.753906 309.359375 L 299.703125 309.359375 C 299.613281 309.367188 299.527344 309.367188 299.4375 309.367188 L 299.4375 309.351562 C 297.808594 309.46875 296.347656 310.226562 295.28125 311.371094 C 294.246094 312.476562 293.59375 313.941406 293.539062 315.527344 L 293.542969 315.570312 L 293.554688 315.730469 L 293.554688 315.75 L 293.5625 315.894531 L 293.5625 315.9375 C 293.570312 316.023438 293.570312 316.113281 293.570312 316.199219 L 293.546875 316.199219 L 294.578125 346.15625 C 294.640625 347.875 295.414062 349.4375 296.613281 350.554688 C 297.820312 351.683594 299.449219 352.355469 301.207031 352.292969 C 302.925781 352.234375 304.484375 351.457031 305.605469 350.261719 C 306.734375 349.050781 307.40625 347.421875 307.34375 345.664062 L 306.304688 315.476562 C 306.246094 313.75 305.472656 312.195312 304.273438 311.078125 " fill-opacity="1" fill-rule="nonzero"/><path fill="#ffffff" d="M 589.769531 294.199219 C 595.710938 294.410156 601.007812 297.023438 604.757812 301.054688 C 608.511719 305.089844 610.738281 310.554688 610.519531 316.488281 L 609.4375 346.679688 C 609.226562 352.617188 606.613281 357.914062 602.578125 361.664062 C 598.550781 365.417969 593.082031 367.644531 587.148438 367.433594 C 581.214844 367.214844 575.910156 364.609375 572.160156 360.574219 C 568.410156 356.542969 566.183594 351.070312 566.398438 345.140625 L 567.480469 314.953125 C 567.691406 309.015625 570.304688 303.71875 574.339844 299.960938 C 578.371094 296.210938 583.835938 293.988281 589.769531 294.199219 Z M 593.660156 311.386719 C 592.535156 310.179688 590.972656 309.402344 589.238281 309.339844 C 587.496094 309.277344 585.871094 309.941406 584.667969 311.0625 C 583.460938 312.183594 582.683594 313.75 582.621094 315.488281 L 581.535156 345.675781 C 581.472656 347.417969 582.136719 349.039062 583.257812 350.246094 C 584.382812 351.453125 585.949219 352.230469 587.679688 352.292969 C 589.421875 352.355469 591.046875 351.6875 592.25 350.566406 C 593.457031 349.445312 594.234375 347.878906 594.296875 346.144531 L 595.386719 315.957031 C 595.445312 314.214844 594.78125 312.589844 593.660156 311.386719 " fill-opacity="1" fill-rule="nonzero"/><path fill="#ffffff" d="M 593.578125 360.710938 C 594.148438 356.5625 591.253906 352.734375 587.105469 352.164062 C 582.960938 351.589844 579.132812 354.488281 578.554688 358.636719 L 578.554688 358.652344 C 576.371094 374.15625 570.890625 413.066406 500.292969 403.554688 C 496.144531 403 492.332031 405.910156 491.769531 410.058594 C 491.214844 414.203125 494.125 418.019531 498.273438 418.578125 C 583.804688 430.097656 590.789062 380.496094 593.578125 360.734375 L 593.578125 360.710938 " fill-opacity="1" fill-rule="nonzero"/><path fill="#ffffff" d="M 475.996094 385.359375 C 483.304688 385.359375 490.050781 387.285156 495.046875 390.398438 C 501.117188 394.183594 504.875 399.746094 504.875 406.210938 C 504.875 412.675781 501.117188 418.242188 495.046875 422.019531 C 490.050781 425.136719 483.304688 427.0625 475.996094 427.0625 C 468.6875 427.0625 461.945312 425.136719 456.945312 422.019531 C 450.875 418.242188 447.117188 412.675781 447.117188 406.210938 C 447.117188 399.746094 450.875 394.183594 456.945312 390.398438 C 461.945312 387.285156 468.6875 385.359375 475.996094 385.359375 Z M 487.035156 403.28125 C 484.335938 401.601562 480.4375 400.5625 475.996094 400.5625 C 471.554688 400.5625 467.660156 401.601562 464.957031 403.28125 C 463.324219 404.296875 462.316406 405.355469 462.316406 406.210938 C 462.316406 407.070312 463.324219 408.125 464.957031 409.140625 C 467.660156 410.820312 471.554688 411.863281 475.996094 411.863281 C 480.4375 411.863281 484.335938 410.820312 487.035156 409.140625 C 488.667969 408.125 489.671875 407.070312 489.671875 406.210938 C 489.671875 405.355469 488.667969 404.296875 487.035156 403.28125 " fill-opacity="1" fill-rule="nonzero"/></svg>